%TF.GenerationSoftware,Altium Limited,Altium Designer,22.10.1 (41)*%
G04 Layer_Physical_Order=1*
G04 Layer_Color=255*
%FSLAX45Y45*%
%MOMM*%
%TF.SameCoordinates,79C1CFBE-EB9A-408B-862A-4DB21413197E*%
%TF.FilePolarity,Positive*%
%TF.FileFunction,Copper,L1,Top,Signal*%
%TF.Part,Single*%
G01*
G75*
%TA.AperFunction,SMDPad,CuDef*%
%ADD10R,0.50000X1.50000*%
%ADD11R,1.50000X0.50000*%
%ADD12R,0.80000X0.80000*%
%ADD13R,0.80000X0.80000*%
%ADD14R,0.95000X0.80000*%
G04:AMPARAMS|DCode=15|XSize=1.97mm|YSize=0.59mm|CornerRadius=0.07375mm|HoleSize=0mm|Usage=FLASHONLY|Rotation=270.000|XOffset=0mm|YOffset=0mm|HoleType=Round|Shape=RoundedRectangle|*
%AMROUNDEDRECTD15*
21,1,1.97000,0.44250,0,0,270.0*
21,1,1.82250,0.59000,0,0,270.0*
1,1,0.14750,-0.22125,-0.91125*
1,1,0.14750,-0.22125,0.91125*
1,1,0.14750,0.22125,0.91125*
1,1,0.14750,0.22125,-0.91125*
%
%ADD15ROUNDEDRECTD15*%
%ADD16R,1.05000X0.95000*%
%ADD17R,0.95000X1.05000*%
%ADD18R,3.00000X3.00000*%
%TA.AperFunction,SMDPad,SMDef*%
G04:AMPARAMS|DCode=19|XSize=3.5mm|YSize=1.4mm|CornerRadius=0.098mm|HoleSize=0mm|Usage=FLASHONLY|Rotation=0.000|XOffset=0mm|YOffset=0mm|HoleType=Round|Shape=RoundedRectangle|*
%AMROUNDEDRECTD19*
21,1,3.50000,1.20400,0,0,0.0*
21,1,3.30400,1.40000,0,0,0.0*
1,1,0.19600,1.65200,-0.60200*
1,1,0.19600,-1.65200,-0.60200*
1,1,0.19600,-1.65200,0.60200*
1,1,0.19600,1.65200,0.60200*
%
%ADD19ROUNDEDRECTD19*%
G04:AMPARAMS|DCode=20|XSize=1.675mm|YSize=0.5mm|CornerRadius=0.1mm|HoleSize=0mm|Usage=FLASHONLY|Rotation=0.000|XOffset=0mm|YOffset=0mm|HoleType=Round|Shape=RoundedRectangle|*
%AMROUNDEDRECTD20*
21,1,1.67500,0.30000,0,0,0.0*
21,1,1.47500,0.50000,0,0,0.0*
1,1,0.20000,0.73750,-0.15000*
1,1,0.20000,-0.73750,-0.15000*
1,1,0.20000,-0.73750,0.15000*
1,1,0.20000,0.73750,0.15000*
%
%ADD20ROUNDEDRECTD20*%
G04:AMPARAMS|DCode=21|XSize=3.5mm|YSize=0.5mm|CornerRadius=0.1mm|HoleSize=0mm|Usage=FLASHONLY|Rotation=0.000|XOffset=0mm|YOffset=0mm|HoleType=Round|Shape=RoundedRectangle|*
%AMROUNDEDRECTD21*
21,1,3.50000,0.30000,0,0,0.0*
21,1,3.30000,0.50000,0,0,0.0*
1,1,0.20000,1.65000,-0.15000*
1,1,0.20000,-1.65000,-0.15000*
1,1,0.20000,-1.65000,0.15000*
1,1,0.20000,1.65000,0.15000*
%
%ADD21ROUNDEDRECTD21*%
G04:AMPARAMS|DCode=22|XSize=0.25mm|YSize=0.6mm|CornerRadius=0.05mm|HoleSize=0mm|Usage=FLASHONLY|Rotation=0.000|XOffset=0mm|YOffset=0mm|HoleType=Round|Shape=RoundedRectangle|*
%AMROUNDEDRECTD22*
21,1,0.25000,0.50000,0,0,0.0*
21,1,0.15000,0.60000,0,0,0.0*
1,1,0.10000,0.07500,-0.25000*
1,1,0.10000,-0.07500,-0.25000*
1,1,0.10000,-0.07500,0.25000*
1,1,0.10000,0.07500,0.25000*
%
%ADD22ROUNDEDRECTD22*%
G04:AMPARAMS|DCode=23|XSize=0.6mm|YSize=0.25mm|CornerRadius=0.05mm|HoleSize=0mm|Usage=FLASHONLY|Rotation=0.000|XOffset=0mm|YOffset=0mm|HoleType=Round|Shape=RoundedRectangle|*
%AMROUNDEDRECTD23*
21,1,0.60000,0.15000,0,0,0.0*
21,1,0.50000,0.25000,0,0,0.0*
1,1,0.10000,0.25000,-0.07500*
1,1,0.10000,-0.25000,-0.07500*
1,1,0.10000,-0.25000,0.07500*
1,1,0.10000,0.25000,0.07500*
%
%ADD23ROUNDEDRECTD23*%
%TA.AperFunction,SMDPad,CuDef*%
G04:AMPARAMS|DCode=24|XSize=1.42mm|YSize=0.58mm|CornerRadius=0.0725mm|HoleSize=0mm|Usage=FLASHONLY|Rotation=0.000|XOffset=0mm|YOffset=0mm|HoleType=Round|Shape=RoundedRectangle|*
%AMROUNDEDRECTD24*
21,1,1.42000,0.43500,0,0,0.0*
21,1,1.27500,0.58000,0,0,0.0*
1,1,0.14500,0.63750,-0.21750*
1,1,0.14500,-0.63750,-0.21750*
1,1,0.14500,-0.63750,0.21750*
1,1,0.14500,0.63750,0.21750*
%
%ADD24ROUNDEDRECTD24*%
G04:AMPARAMS|DCode=25|XSize=1.42mm|YSize=0.58mm|CornerRadius=0.0725mm|HoleSize=0mm|Usage=FLASHONLY|Rotation=90.000|XOffset=0mm|YOffset=0mm|HoleType=Round|Shape=RoundedRectangle|*
%AMROUNDEDRECTD25*
21,1,1.42000,0.43500,0,0,90.0*
21,1,1.27500,0.58000,0,0,90.0*
1,1,0.14500,0.21750,0.63750*
1,1,0.14500,0.21750,-0.63750*
1,1,0.14500,-0.21750,-0.63750*
1,1,0.14500,-0.21750,0.63750*
%
%ADD25ROUNDEDRECTD25*%
%ADD26R,1.90000X1.90000*%
%ADD27R,1.40000X1.60000*%
%ADD28R,1.35000X0.40000*%
%ADD29R,0.80000X0.95000*%
%ADD30R,2.79000X0.74000*%
%ADD31R,0.60000X0.75000*%
%ADD32R,3.00000X3.00000*%
%TA.AperFunction,Conductor*%
%ADD33C,0.20000*%
%ADD34C,0.26000*%
%ADD35C,0.60000*%
%ADD36C,0.25400*%
%ADD37C,0.50000*%
%TA.AperFunction,WasherPad*%
%ADD38C,3.00000*%
%TA.AperFunction,ComponentPad*%
%ADD39O,1.80000X0.90000*%
%ADD40R,1.35800X1.35800*%
%ADD41C,1.35800*%
%ADD42C,1.55000*%
%ADD43R,1.35800X1.35800*%
%TA.AperFunction,ViaPad*%
%ADD44C,0.45000*%
G36*
X4729609Y2550000D02*
X3574536D01*
Y2570743D01*
X3575979Y2578000D01*
Y2687500D01*
X3600000D01*
Y2709020D01*
X3619509Y2712901D01*
X3636048Y2723952D01*
X3647099Y2740491D01*
X3650979Y2760000D01*
X3647099Y2779509D01*
X3636048Y2796048D01*
X3619509Y2807099D01*
X3600000Y2810980D01*
Y2832500D01*
X3465000D01*
Y2687500D01*
X3474020D01*
Y2580013D01*
X3473520Y2577500D01*
X3474464Y2572756D01*
Y2550000D01*
X3320536D01*
Y2668625D01*
X3318411Y2679306D01*
X3312361Y2688361D01*
X3303306Y2694411D01*
X3301088Y2694852D01*
Y2699500D01*
X3298759Y2711205D01*
X3292129Y2721129D01*
X3253320Y2759938D01*
X3253332Y2760000D01*
X3250034Y2776583D01*
X3240640Y2790641D01*
X3231554Y2796712D01*
X3235407Y2809412D01*
X3264851D01*
X3264852Y2809412D01*
X3276558Y2811741D01*
X3286481Y2818371D01*
X3349121Y2881012D01*
X3349122Y2881012D01*
X3355752Y2890936D01*
X3358081Y2902641D01*
X3358081Y2902642D01*
Y2919070D01*
X3507422Y3068412D01*
X3753500D01*
Y3042000D01*
X4072500D01*
Y3156000D01*
X3753500D01*
Y3129588D01*
X3494753D01*
X3483047Y3127259D01*
X3473124Y3120629D01*
X3473123Y3120628D01*
X3305864Y2953369D01*
X3299234Y2943446D01*
X3296905Y2931740D01*
X3296906Y2931739D01*
Y2915311D01*
X3252182Y2870588D01*
X2822937D01*
X2815000Y2880000D01*
Y3070000D01*
X2811420D01*
X2809848Y3070965D01*
X2801983Y3082700D01*
X2803088Y3088254D01*
X2803088Y3088255D01*
Y3206468D01*
X2800759Y3218173D01*
X2810927Y3225815D01*
X2839412Y3197330D01*
Y3140676D01*
X2839360Y3140640D01*
X2829966Y3126583D01*
X2826668Y3110000D01*
X2829966Y3093417D01*
X2839360Y3079359D01*
X2853417Y3069966D01*
X2870000Y3066667D01*
X2886583Y3069966D01*
X2900641Y3079359D01*
X2908399Y3090970D01*
X2920001Y3095000D01*
X2920001Y3095000D01*
X2920001Y3095000D01*
X2989867D01*
X3000491Y3087901D01*
X3020000Y3084021D01*
X3107500D01*
Y3055000D01*
X3252500D01*
Y3069021D01*
X3260000D01*
X3279509Y3072901D01*
X3296048Y3083952D01*
X3307099Y3100491D01*
X3310980Y3120000D01*
X3307099Y3139509D01*
X3296048Y3156048D01*
X3279509Y3167099D01*
X3260000Y3170980D01*
X3252500D01*
Y3190000D01*
X3236218D01*
X3230957Y3202700D01*
X3258258Y3230000D01*
X3335000D01*
Y3350000D01*
X3242500D01*
Y3366912D01*
X3317499D01*
X3317500Y3366912D01*
X3329205Y3369241D01*
X3339129Y3375871D01*
X3542670Y3579412D01*
X3753500D01*
Y3550000D01*
X4072500D01*
Y3664000D01*
X3753500D01*
Y3640588D01*
X3530001D01*
X3530000Y3640588D01*
X3518295Y3638259D01*
X3508371Y3631629D01*
X3304830Y3428088D01*
X3242500D01*
Y3465000D01*
X3110000D01*
Y3575000D01*
Y3655000D01*
Y3745000D01*
X2920000D01*
Y3730588D01*
X2866766D01*
X2866765Y3730588D01*
X2855060Y3728259D01*
X2845136Y3721629D01*
X2845136Y3721628D01*
X2835705Y3712198D01*
X2830000Y3713332D01*
X2813417Y3710034D01*
X2799359Y3700641D01*
X2789966Y3686583D01*
X2786668Y3670000D01*
X2789966Y3653417D01*
X2799359Y3639359D01*
X2813417Y3629966D01*
X2813612Y3616979D01*
X2810097Y3611363D01*
X2803417Y3610034D01*
X2789359Y3600641D01*
X2779966Y3586583D01*
X2776668Y3570000D01*
X2779966Y3553417D01*
X2789359Y3539359D01*
X2803417Y3529966D01*
X2820000Y3526668D01*
X2836582Y3529966D01*
X2841986Y3519078D01*
X2829359Y3510640D01*
X2819966Y3496583D01*
X2816667Y3480000D01*
X2819966Y3463417D01*
X2829359Y3449359D01*
X2843417Y3439966D01*
X2860000Y3436667D01*
X2873265Y3439306D01*
X2881045Y3430461D01*
X2881126Y3430290D01*
X2876107Y3418264D01*
X2870540Y3417157D01*
X2856482Y3407764D01*
X2851264Y3399954D01*
X2835860Y3397398D01*
X2720588Y3512670D01*
Y3770000D01*
X2895000D01*
Y3959999D01*
X2895000Y3960000D01*
X2895000D01*
X2891880Y3972700D01*
X2893332Y3980000D01*
X2890034Y3996583D01*
X2880640Y4010640D01*
X2866583Y4020034D01*
X2850000Y4023332D01*
X2833417Y4020034D01*
X2819359Y4010640D01*
X2809966Y3996583D01*
X2806667Y3980000D01*
X2808120Y3972700D01*
X2798138Y3960000D01*
X2727753D01*
X2722873Y3972700D01*
X2730034Y3983417D01*
X2733332Y4000000D01*
X2733320Y4000062D01*
X2896937Y4163679D01*
X2908641Y4157423D01*
X2906668Y4147500D01*
X2909966Y4130917D01*
X2919359Y4116859D01*
X2933417Y4107466D01*
X2950000Y4104168D01*
X2966583Y4107466D01*
X2980640Y4116859D01*
X2980676Y4116912D01*
X3163499D01*
X3163500Y4116912D01*
X3175205Y4119241D01*
X3185129Y4125871D01*
X3399312Y4340055D01*
X3413053Y4334363D01*
X3436000Y4331342D01*
X3458947Y4334363D01*
X3480329Y4343220D01*
X3498691Y4357309D01*
X3512780Y4375671D01*
X3521637Y4397053D01*
X3524658Y4420000D01*
X3521637Y4442947D01*
X3512780Y4464329D01*
X3498691Y4482691D01*
X3480329Y4496780D01*
X3458947Y4505637D01*
X3446096Y4507329D01*
X3441545Y4520738D01*
X3518306Y4597500D01*
X3518671Y4597220D01*
X3540053Y4588363D01*
X3563000Y4585342D01*
X3585947Y4588363D01*
X3607329Y4597220D01*
X3625691Y4611309D01*
X3639780Y4629671D01*
X3648637Y4651053D01*
X3651658Y4674000D01*
X3648637Y4696947D01*
X3639780Y4718329D01*
X3625691Y4736691D01*
X3607329Y4750780D01*
X3585947Y4759637D01*
X3563000Y4762658D01*
X3540053Y4759637D01*
X3518671Y4750780D01*
X3500309Y4736691D01*
X3486220Y4718329D01*
X3477363Y4696947D01*
X3474342Y4674000D01*
X3477363Y4651053D01*
X3479700Y4645409D01*
X3304879Y4470588D01*
X3130001D01*
X3130000Y4470588D01*
X3118295Y4468259D01*
X3108371Y4461629D01*
X3108371Y4461628D01*
X2690062Y4043320D01*
X2690000Y4043332D01*
X2673417Y4040034D01*
X2659359Y4030640D01*
X2649966Y4016583D01*
X2646668Y4000000D01*
X2649966Y3983417D01*
X2657127Y3972700D01*
X2652247Y3960000D01*
X2485000D01*
Y3770000D01*
X2579412D01*
Y3470001D01*
X2579412Y3470000D01*
X2581741Y3458295D01*
X2571573Y3450652D01*
X2484614Y3537611D01*
X2488763Y3551423D01*
X2500640Y3559359D01*
X2510034Y3573417D01*
X2513332Y3590000D01*
X2510034Y3606583D01*
X2500640Y3620640D01*
X2495804Y3623872D01*
Y3624921D01*
X2493476Y3636626D01*
X2486845Y3646550D01*
X2375128Y3758267D01*
X2379988Y3770000D01*
X2415000D01*
Y3841729D01*
X2418349Y3846741D01*
X2422230Y3866250D01*
Y3987500D01*
X2440000D01*
Y4132500D01*
X2410980D01*
Y4150000D01*
X2407099Y4169509D01*
X2396048Y4186048D01*
X2379509Y4197099D01*
X2360000Y4200980D01*
X2340491Y4197099D01*
X2323952Y4186048D01*
X2312901Y4169509D01*
X2309021Y4150000D01*
Y4132500D01*
X2305000D01*
Y3987500D01*
X2320270D01*
Y3871285D01*
X2319020Y3865000D01*
X2322901Y3845491D01*
X2325000Y3842350D01*
Y3790588D01*
X2265244D01*
X2138088Y3917744D01*
Y4139379D01*
X2401628Y4402919D01*
X2401629Y4402920D01*
X2408259Y4412843D01*
X2408453Y4413815D01*
X2421318Y4413394D01*
X2421363Y4413053D01*
X2430220Y4391671D01*
X2444309Y4373309D01*
X2462671Y4359220D01*
X2484053Y4350363D01*
X2507000Y4347342D01*
X2529947Y4350363D01*
X2551329Y4359220D01*
X2569691Y4373309D01*
X2583780Y4391671D01*
X2592637Y4413053D01*
X2595659Y4436000D01*
X2592637Y4458947D01*
X2583780Y4480329D01*
X2569691Y4498691D01*
X2551329Y4512780D01*
X2529947Y4521637D01*
X2507000Y4524658D01*
X2484053Y4521637D01*
X2462671Y4512780D01*
X2444309Y4498691D01*
X2430220Y4480329D01*
X2423288Y4463594D01*
X2410588Y4466121D01*
Y4607528D01*
X2424329Y4613220D01*
X2442691Y4627309D01*
X2456780Y4645671D01*
X2465637Y4667053D01*
X2468659Y4690000D01*
X2465637Y4712947D01*
X2456780Y4734329D01*
X2442691Y4752691D01*
X2424329Y4766780D01*
X2402947Y4775637D01*
X2380000Y4778658D01*
X2357053Y4775637D01*
X2335671Y4766780D01*
X2317309Y4752691D01*
X2303220Y4734329D01*
X2294363Y4712947D01*
X2291342Y4690000D01*
X2294363Y4667053D01*
X2303220Y4645671D01*
X2317309Y4627309D01*
X2335671Y4613220D01*
X2349412Y4607528D01*
Y4466121D01*
X2336712Y4463594D01*
X2329780Y4480329D01*
X2315691Y4498691D01*
X2297329Y4512780D01*
X2275947Y4521637D01*
X2253000Y4524658D01*
X2230053Y4521637D01*
X2208671Y4512780D01*
X2190309Y4498691D01*
X2176220Y4480329D01*
X2167363Y4458947D01*
X2164342Y4436000D01*
X2167363Y4413053D01*
X2176220Y4391671D01*
X2190309Y4373309D01*
X2208671Y4359220D01*
X2230053Y4350363D01*
X2242904Y4348671D01*
X2247456Y4335262D01*
X2085871Y4173677D01*
X2079241Y4163754D01*
X2076912Y4152049D01*
X2076912Y4152047D01*
Y3905075D01*
X2076912Y3905074D01*
X2079241Y3893369D01*
X2085871Y3883445D01*
X2211616Y3757700D01*
X2206356Y3745000D01*
X2148892D01*
X2142009Y3749599D01*
X2122500Y3753480D01*
X2002500D01*
Y3795000D01*
X1717500D01*
Y3780979D01*
X1710000D01*
X1690491Y3777099D01*
X1673952Y3766048D01*
X1662901Y3749509D01*
X1662351Y3746746D01*
X1650198Y3743060D01*
X1590588Y3802670D01*
Y4378451D01*
X1588259Y4390157D01*
X1581629Y4400080D01*
X1581628Y4400081D01*
X1336300Y4645410D01*
X1338637Y4651053D01*
X1341658Y4674000D01*
X1338637Y4696947D01*
X1329780Y4718329D01*
X1315691Y4736691D01*
X1297329Y4750780D01*
X1275947Y4759637D01*
X1253000Y4762658D01*
X1230053Y4759637D01*
X1208671Y4750780D01*
X1190309Y4736691D01*
X1176220Y4718329D01*
X1167363Y4696947D01*
X1164342Y4674000D01*
X1167363Y4651053D01*
X1176220Y4629671D01*
X1190309Y4611309D01*
X1208671Y4597220D01*
X1230053Y4588363D01*
X1253000Y4585342D01*
X1275947Y4588363D01*
X1297329Y4597220D01*
X1297694Y4597500D01*
X1374455Y4520738D01*
X1369904Y4507329D01*
X1357053Y4505637D01*
X1335671Y4496780D01*
X1317309Y4482691D01*
X1303220Y4464329D01*
X1294363Y4442947D01*
X1291342Y4420000D01*
X1294363Y4397053D01*
X1303220Y4375671D01*
X1317309Y4357309D01*
X1335671Y4343220D01*
X1357053Y4334363D01*
X1380000Y4331342D01*
X1402947Y4334363D01*
X1424329Y4343220D01*
X1442691Y4357309D01*
X1456780Y4375671D01*
X1465637Y4397053D01*
X1467329Y4409904D01*
X1480738Y4414456D01*
X1529412Y4365782D01*
Y3790001D01*
X1529412Y3790000D01*
X1531741Y3778295D01*
X1538371Y3768371D01*
X1708370Y3598372D01*
X1708371Y3598371D01*
X1718294Y3591741D01*
X1730000Y3589412D01*
X2030000D01*
Y3570588D01*
X1612670D01*
X1495588Y3687670D01*
Y4081000D01*
X1493259Y4092706D01*
X1486629Y4102629D01*
X1205946Y4383312D01*
X1211637Y4397053D01*
X1214658Y4420000D01*
X1211637Y4442947D01*
X1202780Y4464329D01*
X1188691Y4482691D01*
X1170329Y4496780D01*
X1148947Y4505637D01*
X1126000Y4508658D01*
X1103053Y4505637D01*
X1081671Y4496780D01*
X1063309Y4482691D01*
X1049220Y4464329D01*
X1040363Y4442947D01*
X1037342Y4420000D01*
X1040363Y4397053D01*
X1049220Y4375671D01*
X1063309Y4357309D01*
X1081671Y4343220D01*
X1103053Y4334363D01*
X1126000Y4331342D01*
X1148947Y4334363D01*
X1162688Y4340055D01*
X1434412Y4068330D01*
Y3675001D01*
X1434412Y3675000D01*
X1436741Y3663295D01*
X1443371Y3653371D01*
X1578371Y3518371D01*
X1588295Y3511741D01*
X1600000Y3509412D01*
X1600001Y3509412D01*
X2030000D01*
Y3391646D01*
X1083437D01*
X1030000Y3445083D01*
Y3512500D01*
X930000D01*
Y3445083D01*
X874063Y3389146D01*
X849240D01*
X840000Y3397500D01*
Y3512500D01*
X835882D01*
Y3614250D01*
X832389Y3631808D01*
X829729Y3635789D01*
Y3665500D01*
X825849Y3685009D01*
X816490Y3699016D01*
X819490Y3708069D01*
X822115Y3711716D01*
X829250D01*
X839882Y3713831D01*
X848896Y3719854D01*
X850822Y3722736D01*
X851451Y3722861D01*
X866336Y3732807D01*
X891233Y3757704D01*
X902966Y3752844D01*
Y3739500D01*
X905081Y3728868D01*
X911104Y3719854D01*
X920118Y3713831D01*
X930750Y3711716D01*
X1033259D01*
X1035500Y3711270D01*
X1037741Y3711716D01*
X1058250D01*
X1068882Y3713831D01*
X1077896Y3719854D01*
X1083919Y3728868D01*
X1086034Y3739500D01*
Y3740688D01*
X1100767Y3755421D01*
X1112500Y3750560D01*
Y3655000D01*
X1247500D01*
Y3674413D01*
X1280000D01*
Y3645000D01*
X1400000D01*
Y3765000D01*
X1280000D01*
Y3735588D01*
X1247500D01*
Y3775000D01*
X1247500Y3775000D01*
Y3785001D01*
X1247500D01*
X1247500Y3787700D01*
Y3900000D01*
X1252500D01*
Y3919020D01*
X1268965D01*
X1270515Y3918456D01*
X1280000Y3908061D01*
Y3795000D01*
X1400000D01*
Y3915000D01*
X1390980D01*
Y3930000D01*
X1387099Y3949509D01*
X1376048Y3966048D01*
X1359509Y3977099D01*
X1340000Y3980980D01*
X1331813Y3979351D01*
X1317198Y3989010D01*
X1317099Y3989509D01*
X1306048Y4006048D01*
X1289509Y4017099D01*
X1270000Y4020980D01*
X1252500D01*
Y4035000D01*
X1107500D01*
Y4003229D01*
X995501D01*
X983205Y4000783D01*
X930751D01*
X920118Y3998669D01*
X911105Y3992646D01*
X905082Y3983632D01*
X902967Y3973000D01*
Y3959656D01*
X891234Y3954795D01*
X883336Y3962693D01*
X868451Y3972639D01*
X856638Y3974989D01*
X854919Y3983633D01*
X848896Y3992646D01*
X839882Y3998669D01*
X829250Y4000784D01*
X701750D01*
X691118Y3998669D01*
X686011Y3995257D01*
X622500D01*
Y4015000D01*
X477500D01*
Y3880000D01*
X622500D01*
Y3903494D01*
X692815D01*
X701750Y3901716D01*
X767752D01*
X769500Y3901369D01*
X792495D01*
X796057Y3897807D01*
X810942Y3887861D01*
X828501Y3884368D01*
X831888D01*
X835619Y3880638D01*
Y3831862D01*
X814888Y3811132D01*
X769500D01*
X767752Y3810784D01*
X701750D01*
X691118Y3808669D01*
X682104Y3802646D01*
X676081Y3793632D01*
X673966Y3783000D01*
Y3775010D01*
X662233Y3770149D01*
X642467Y3789915D01*
X625928Y3800966D01*
X606419Y3804847D01*
X492249D01*
X370000Y3927096D01*
Y3975000D01*
X250000D01*
Y3855000D01*
X297904D01*
X435084Y3717819D01*
X451623Y3706768D01*
X471132Y3702888D01*
X585303D01*
X645489Y3642702D01*
X662028Y3631651D01*
X681537Y3627770D01*
X727770D01*
Y3625500D01*
X731651Y3605991D01*
X742702Y3589452D01*
X744119Y3588505D01*
Y3512500D01*
X740000D01*
Y3479749D01*
X417140D01*
X399582Y3476256D01*
X396007Y3473867D01*
X329640D01*
Y3393867D01*
Y3328867D01*
Y3263867D01*
Y3198867D01*
X504640D01*
Y3275854D01*
X730761D01*
X740000Y3267500D01*
X740000Y3263153D01*
Y3152500D01*
X840000D01*
Y3263153D01*
X840000Y3267500D01*
X849240Y3275854D01*
X885732D01*
X914917Y3246669D01*
X916915Y3236624D01*
X924208Y3225708D01*
X930000Y3219917D01*
Y3152500D01*
X1030000D01*
Y3212416D01*
X1095937Y3278354D01*
X2030000D01*
Y3250588D01*
X1975754D01*
X1964048Y3248259D01*
X1954125Y3241629D01*
X1845871Y3133375D01*
X1839241Y3123451D01*
X1836912Y3111746D01*
X1836912Y3111745D01*
Y3068255D01*
X1836912Y3068254D01*
X1839241Y3056548D01*
X1845871Y3046625D01*
X1986847Y2905649D01*
X1982666Y2891869D01*
X1973413Y2890028D01*
X1959355Y2880635D01*
X1949962Y2866577D01*
X1946663Y2849994D01*
X1949962Y2833412D01*
X1951240Y2831498D01*
X1816278Y2696536D01*
X1787375D01*
X1776694Y2694411D01*
X1767639Y2688361D01*
X1761589Y2679306D01*
X1759464Y2668625D01*
Y2550000D01*
X1732536D01*
Y2668625D01*
X1730411Y2679306D01*
X1724361Y2688361D01*
X1715306Y2694411D01*
X1704625Y2696536D01*
X1660375D01*
X1649694Y2694411D01*
X1640639Y2688361D01*
X1634589Y2679306D01*
X1632464Y2668625D01*
Y2550000D01*
X20391D01*
Y4979609D01*
X4729609D01*
Y2550000D01*
D02*
G37*
G36*
X3188446Y2796712D02*
X3179359Y2790641D01*
X3170861Y2777923D01*
X3168514Y2776250D01*
X3156399Y2773475D01*
X3146582Y2780034D01*
X3130000Y2783333D01*
X3113417Y2780034D01*
X3099359Y2770641D01*
X3089966Y2756583D01*
X3086667Y2740000D01*
X3089966Y2723417D01*
X3099359Y2709360D01*
X3105402Y2705322D01*
X3104782Y2690461D01*
X3101639Y2688361D01*
X3095589Y2679306D01*
X3093464Y2668625D01*
Y2550000D01*
X3066536D01*
Y2668625D01*
X3064411Y2679306D01*
X3058361Y2688361D01*
X3049849Y2694049D01*
X3048955Y2696033D01*
X3046376Y2707943D01*
X3050034Y2713417D01*
X3053332Y2730000D01*
X3050034Y2746583D01*
X3040641Y2760640D01*
X3026583Y2770034D01*
X3010000Y2773332D01*
X2993417Y2770034D01*
X2979360Y2760640D01*
X2969966Y2746583D01*
X2966668Y2730000D01*
X2969966Y2713417D01*
X2976016Y2704363D01*
X2974675Y2688445D01*
X2974639Y2688361D01*
X2968589Y2679306D01*
X2966464Y2668625D01*
Y2550000D01*
X2939536D01*
Y2668625D01*
X2937411Y2679306D01*
X2931361Y2688361D01*
X2927107Y2691203D01*
X2926032Y2692878D01*
X2923483Y2704737D01*
X2923749Y2707073D01*
X2929659Y2715918D01*
X2932957Y2732500D01*
X2929659Y2749083D01*
X2920265Y2763141D01*
X2906208Y2772534D01*
X2889625Y2775833D01*
X2873042Y2772534D01*
X2858984Y2763141D01*
X2849591Y2749083D01*
X2846293Y2732500D01*
X2849591Y2715918D01*
X2855472Y2707117D01*
X2855706Y2704682D01*
X2852859Y2691849D01*
X2847639Y2688361D01*
X2841589Y2679306D01*
X2839464Y2668625D01*
Y2550000D01*
X2812536D01*
Y2668625D01*
X2810411Y2679306D01*
X2804361Y2688361D01*
X2795306Y2694411D01*
X2784625Y2696536D01*
X2740375D01*
X2729694Y2694411D01*
X2720639Y2688361D01*
X2714589Y2679306D01*
X2712464Y2668625D01*
Y2550000D01*
X2494536D01*
Y2643769D01*
X2494980Y2646000D01*
X2494536Y2648231D01*
Y2668625D01*
X2492411Y2679306D01*
X2486361Y2688361D01*
X2477306Y2694411D01*
X2475351Y2694800D01*
X2476602Y2707500D01*
X2490000D01*
Y2709020D01*
X2530000D01*
X2549509Y2712901D01*
X2566048Y2723952D01*
X2577099Y2740491D01*
X2580980Y2760000D01*
X2577099Y2779509D01*
X2566048Y2796048D01*
X2565054Y2796712D01*
X2568906Y2809412D01*
X3184593D01*
X3188446Y2796712D01*
D02*
G37*
G36*
X2054048Y2841741D02*
X2065754Y2839412D01*
X2065755Y2839412D01*
X2355000D01*
Y2707500D01*
X2371521D01*
Y2667500D01*
X2375401Y2647991D01*
X2386452Y2631452D01*
X2394464Y2623441D01*
Y2550000D01*
X2240536D01*
Y2668625D01*
X2238411Y2679306D01*
X2232361Y2688361D01*
X2231172Y2689155D01*
X2233328Y2699995D01*
X2230030Y2716577D01*
X2220636Y2730635D01*
X2206578Y2740029D01*
X2204475Y2740447D01*
X2197866Y2754711D01*
X2200305Y2766973D01*
X2197007Y2783556D01*
X2187613Y2797613D01*
X2173555Y2807007D01*
X2156973Y2810305D01*
X2140390Y2807007D01*
X2126332Y2797613D01*
X2116939Y2783556D01*
X2113640Y2766973D01*
X2113653Y2766911D01*
X2095966Y2749224D01*
X2089336Y2739300D01*
X2087007Y2727595D01*
X2087007Y2727594D01*
Y2713265D01*
X2070278Y2696536D01*
X2047754D01*
X2042494Y2709236D01*
X2066845Y2733588D01*
X2073476Y2743511D01*
X2073719Y2744735D01*
X2080640Y2749360D01*
X2090034Y2763417D01*
X2093332Y2780000D01*
X2090034Y2796583D01*
X2080640Y2810641D01*
X2066583Y2820034D01*
X2050000Y2823332D01*
X2036817Y2820710D01*
X2029022Y2829683D01*
X2028420Y2831003D01*
X2030030Y2833412D01*
X2031870Y2842665D01*
X2039403Y2846172D01*
X2045740Y2847292D01*
X2054048Y2841741D01*
D02*
G37*
G36*
X4729609Y320391D02*
X20391D01*
Y2200000D01*
X1629801D01*
X1636589Y2187300D01*
X1634589Y2184306D01*
X1632464Y2173625D01*
Y1991375D01*
X1634589Y1980694D01*
X1640639Y1971639D01*
X1649694Y1965589D01*
X1660375Y1963464D01*
X1698246D01*
X1703506Y1950764D01*
X1278371Y1525629D01*
X1271741Y1515705D01*
X1269412Y1504000D01*
X1269412Y1503999D01*
Y1179378D01*
X1265246Y1178549D01*
X1256976Y1173024D01*
X1251451Y1164754D01*
X1249510Y1155000D01*
Y1140000D01*
X1251451Y1130246D01*
X1256626Y1122500D01*
X1251451Y1114754D01*
X1249510Y1105000D01*
Y1090000D01*
X1251451Y1080246D01*
X1256976Y1071976D01*
X1265246Y1066451D01*
X1275000Y1064510D01*
X1325000D01*
X1334754Y1066451D01*
X1339187Y1069412D01*
X1339999D01*
X1340000Y1069412D01*
X1351705Y1071741D01*
X1361629Y1078371D01*
X1749212Y1465955D01*
X1761912Y1460694D01*
Y1193255D01*
X1761912Y1193254D01*
X1764241Y1181549D01*
X1770871Y1171625D01*
X1891625Y1050871D01*
X1901549Y1044241D01*
X1913254Y1041912D01*
X1913255Y1041912D01*
X2093833D01*
X2104412Y1030000D01*
Y1000000D01*
X2104792Y998092D01*
X2094569Y985392D01*
X1945000D01*
X1937197Y983840D01*
X1930581Y979419D01*
X1930580Y979419D01*
X1780581Y829419D01*
X1776161Y822804D01*
X1774608Y815000D01*
Y490000D01*
X1776161Y482196D01*
X1780000Y476450D01*
Y470000D01*
X1793030D01*
X1795000Y469608D01*
X2095000D01*
X2096970Y470000D01*
X2120000D01*
Y810000D01*
X2115392D01*
Y886553D01*
X2124730Y895892D01*
X2126082Y896161D01*
X2127751Y897276D01*
X2129607Y898045D01*
X2131130Y899062D01*
X2133945Y899622D01*
X2135000Y899412D01*
X2282500D01*
X2294205Y901741D01*
X2300000Y905612D01*
X2305795Y901741D01*
X2317500Y899412D01*
X2465000D01*
X2466055Y899622D01*
X2468871Y899062D01*
X2471982Y896983D01*
X2474062Y893871D01*
X2475192Y888192D01*
Y771808D01*
X2474062Y766130D01*
X2470825Y761284D01*
X2470056Y759429D01*
X2468940Y757759D01*
X2468549Y755789D01*
X2467780Y753933D01*
Y751924D01*
X2467388Y749955D01*
Y486161D01*
X2468940Y478357D01*
X2473361Y471741D01*
X2479976Y467321D01*
X2487780Y465769D01*
X2807780D01*
X2815584Y467321D01*
X2819594Y470000D01*
X2820000D01*
Y470272D01*
X2822199Y471741D01*
X2826620Y478357D01*
X2828172Y486161D01*
Y786160D01*
X2827545Y789314D01*
X2827159Y792508D01*
X2826773Y793193D01*
X2826620Y793964D01*
X2824832Y796640D01*
X2823254Y799441D01*
X2820000Y803233D01*
Y810000D01*
X2814192D01*
X2665474Y983281D01*
X2664856Y983765D01*
X2664419Y984419D01*
X2661744Y986207D01*
X2659214Y988192D01*
X2658457Y988403D01*
X2657804Y988840D01*
X2654650Y989467D01*
X2651551Y990333D01*
X2650770Y990239D01*
X2650000Y990392D01*
X2503473D01*
X2495588Y1000000D01*
Y1030000D01*
X2493259Y1041705D01*
X2486629Y1051629D01*
X2476705Y1058259D01*
X2465000Y1060588D01*
X2214111D01*
X2210490Y1065000D01*
Y1080000D01*
X2208549Y1089754D01*
X2203374Y1097500D01*
X2208549Y1105246D01*
X2210490Y1115000D01*
Y1130000D01*
X2208549Y1139754D01*
X2203374Y1147500D01*
X2208549Y1155246D01*
X2210490Y1165000D01*
Y1180000D01*
X2208549Y1189754D01*
X2203024Y1198024D01*
X2194754Y1203549D01*
X2185000Y1205490D01*
X2135000D01*
X2125246Y1203549D01*
X2116976Y1198024D01*
X2111451Y1189754D01*
X2109510Y1180000D01*
Y1165000D01*
X2098931Y1153088D01*
X2085244D01*
X2015065Y1223267D01*
X2019925Y1235000D01*
X2097500D01*
Y1264413D01*
X2232914D01*
X2232969Y1264389D01*
X2242351Y1251712D01*
X2242011Y1250000D01*
Y1200000D01*
X2243951Y1190246D01*
X2249476Y1181976D01*
X2257746Y1176451D01*
X2267500Y1174510D01*
X2282500D01*
X2292254Y1176451D01*
X2300524Y1181976D01*
X2306049Y1190246D01*
X2307990Y1200000D01*
Y1250000D01*
X2306049Y1259754D01*
X2305588Y1260445D01*
Y1283283D01*
X2305588Y1283284D01*
X2303259Y1294990D01*
X2296629Y1304913D01*
X2296628Y1304914D01*
X2284913Y1316629D01*
X2274990Y1323259D01*
X2263284Y1325588D01*
X2263283Y1325588D01*
X2097500D01*
Y1355000D01*
X1983088D01*
Y1408284D01*
X1980759Y1419990D01*
X1974129Y1429913D01*
X1974128Y1429914D01*
X1957413Y1446629D01*
X1947490Y1453259D01*
X1937500Y1455247D01*
Y1485000D01*
X1859925D01*
X1855065Y1496733D01*
X2021629Y1663297D01*
X2024661Y1667836D01*
X2039296Y1668687D01*
X2039331Y1668672D01*
X2041871Y1664871D01*
X2409412Y1297330D01*
Y1204378D01*
X2405246Y1203549D01*
X2396976Y1198024D01*
X2391451Y1189754D01*
X2389510Y1180000D01*
Y1165000D01*
X2391451Y1155246D01*
X2396626Y1147500D01*
X2391451Y1139754D01*
X2389510Y1130000D01*
Y1115000D01*
X2391451Y1105246D01*
X2396976Y1096976D01*
X2405246Y1091451D01*
X2415000Y1089510D01*
X2465000D01*
X2474754Y1091451D01*
X2475445Y1091912D01*
X2568283D01*
X2568284Y1091912D01*
X2579990Y1094241D01*
X2589913Y1100871D01*
X2601628Y1112586D01*
X2601629Y1112587D01*
X2608259Y1122510D01*
X2610588Y1134216D01*
X2610588Y1134217D01*
Y1439999D01*
X2610588Y1440000D01*
X2608259Y1451705D01*
X2601629Y1461629D01*
X2601628Y1461629D01*
X2221088Y1842170D01*
Y1965147D01*
X2223306Y1965589D01*
X2232361Y1971639D01*
X2238411Y1980694D01*
X2240536Y1991375D01*
Y2173625D01*
X2238411Y2184306D01*
X2236411Y2187300D01*
X2243199Y2200000D01*
X2391801D01*
X2398589Y2187300D01*
X2396589Y2184306D01*
X2394464Y2173625D01*
Y2087244D01*
X2393520Y2082500D01*
X2394020Y2079987D01*
Y1960000D01*
X2377500D01*
Y1825000D01*
X2522500D01*
Y1829020D01*
X2540000D01*
X2559509Y1832901D01*
X2576048Y1843952D01*
X2587099Y1860491D01*
X2590980Y1880000D01*
X2587099Y1899509D01*
X2576048Y1916048D01*
X2559509Y1927099D01*
X2540000Y1930980D01*
X2522500D01*
Y1960000D01*
X2495980D01*
Y2082000D01*
X2494536Y2089257D01*
Y2173625D01*
X2492411Y2184306D01*
X2490411Y2187300D01*
X2497199Y2200000D01*
X2709801D01*
X2716589Y2187300D01*
X2714589Y2184306D01*
X2712464Y2173625D01*
Y1991375D01*
X2714589Y1980694D01*
X2720639Y1971639D01*
X2729694Y1965589D01*
X2740375Y1963464D01*
X2784625D01*
X2795306Y1965589D01*
X2804361Y1971639D01*
X2810411Y1980694D01*
X2812536Y1991375D01*
Y2173625D01*
X2810411Y2184306D01*
X2808411Y2187300D01*
X2815199Y2200000D01*
X2836801D01*
X2843589Y2187300D01*
X2841589Y2184306D01*
X2839464Y2173625D01*
Y1991375D01*
X2841589Y1980694D01*
X2847639Y1971639D01*
X2848564Y1971021D01*
X2847500Y1968454D01*
Y1951546D01*
X2853970Y1935926D01*
X2859412Y1930484D01*
Y1604957D01*
X2840871Y1586416D01*
X2834241Y1576493D01*
X2831912Y1564787D01*
X2831912Y1564786D01*
Y1162576D01*
X2831912Y1162575D01*
X2834241Y1150870D01*
X2840871Y1140946D01*
X2965946Y1015872D01*
X2965946Y1015871D01*
X2975869Y1009241D01*
X2987575Y1006912D01*
X3193833D01*
X3204412Y995000D01*
Y965000D01*
X3196363Y955192D01*
X3035583D01*
X3027780Y953640D01*
X3021164Y949219D01*
X3021164Y949219D01*
X2881945Y810000D01*
X2870000D01*
Y797477D01*
X2866744Y792604D01*
X2865192Y784800D01*
Y484800D01*
X2866744Y476997D01*
X2870000Y472123D01*
Y470000D01*
X2871734D01*
X2877780Y465960D01*
X2885584Y464408D01*
X3185583D01*
X3193387Y465960D01*
X3199433Y470000D01*
X3210000D01*
Y810000D01*
X3205975D01*
Y856353D01*
X3214030Y864408D01*
X3230861D01*
X3232831Y864800D01*
X3233051D01*
X3235000Y864412D01*
X3382500D01*
X3394205Y866741D01*
X3400000Y870612D01*
X3405795Y866741D01*
X3417500Y864412D01*
X3565000D01*
X3566055Y864622D01*
X3569604Y863916D01*
X3570701Y863102D01*
X3573136Y862490D01*
X3575457Y861528D01*
X3576960D01*
X3578417Y861162D01*
X3589608Y860602D01*
Y490000D01*
X3590000Y488030D01*
Y470000D01*
X3608030D01*
X3610000Y469608D01*
X3930000D01*
X3937804Y471160D01*
X3944419Y475581D01*
X3948840Y482196D01*
X3950392Y490000D01*
Y790000D01*
X3948840Y797804D01*
X3944419Y804419D01*
X3944419Y804420D01*
X3794419Y954419D01*
X3787804Y958840D01*
X3780000Y960392D01*
X3599370D01*
X3595588Y965000D01*
Y995000D01*
X3593259Y1006705D01*
X3586629Y1016629D01*
X3576705Y1023259D01*
X3565000Y1025588D01*
X3314111D01*
X3310490Y1030000D01*
Y1045000D01*
X3308549Y1054754D01*
X3303374Y1062500D01*
X3308549Y1070246D01*
X3310490Y1080000D01*
Y1095000D01*
X3308549Y1104754D01*
X3303374Y1112500D01*
X3308549Y1120246D01*
X3310490Y1130000D01*
Y1145000D01*
X3308549Y1154754D01*
X3303024Y1163024D01*
X3294754Y1168549D01*
X3285000Y1170490D01*
X3235000D01*
X3225246Y1168549D01*
X3216976Y1163024D01*
X3211451Y1154754D01*
X3209510Y1145000D01*
Y1130001D01*
X3198931Y1118088D01*
X3087670D01*
X3038088Y1167670D01*
Y1186020D01*
X3047068Y1195000D01*
X3077500Y1195000D01*
X3090200Y1195000D01*
X3217500D01*
Y1224412D01*
X3341912D01*
Y1192502D01*
X3341912Y1192500D01*
X3342011Y1192005D01*
Y1165000D01*
X3343951Y1155246D01*
X3349476Y1146976D01*
X3357746Y1141451D01*
X3367500Y1139511D01*
X3382500D01*
X3392254Y1141451D01*
X3400524Y1146976D01*
X3406049Y1155246D01*
X3407990Y1165000D01*
Y1215000D01*
X3406049Y1224754D01*
X3403088Y1229187D01*
Y1241078D01*
X3403088Y1241079D01*
X3400759Y1252784D01*
X3394129Y1262708D01*
X3394128Y1262708D01*
X3380208Y1276629D01*
X3370284Y1283259D01*
X3358579Y1285588D01*
X3358578Y1285588D01*
X3217500D01*
Y1315000D01*
X3090200D01*
X3082500Y1315000D01*
X3069800Y1315000D01*
X2942500D01*
Y1195000D01*
X2976912D01*
Y1155001D01*
X2976912Y1155000D01*
X2979241Y1143295D01*
X2985871Y1133371D01*
X3039421Y1079821D01*
X3034561Y1068088D01*
X3000245D01*
X2893088Y1175245D01*
Y1552117D01*
X2911629Y1570659D01*
X2918259Y1580582D01*
X2920588Y1592287D01*
Y1930484D01*
X2926030Y1935926D01*
X2932500Y1951546D01*
Y1968454D01*
X2931219Y1971544D01*
X2931361Y1971639D01*
X2937411Y1980694D01*
X2939536Y1991375D01*
Y2173625D01*
X2937411Y2184306D01*
X2935411Y2187300D01*
X2942199Y2200000D01*
X2963801D01*
X2970589Y2187300D01*
X2968589Y2184306D01*
X2966464Y2173625D01*
Y1991375D01*
X2968589Y1980694D01*
X2974639Y1971639D01*
X2981102Y1967320D01*
X2981869Y1954473D01*
X2973970Y1946574D01*
X2967500Y1930954D01*
Y1914046D01*
X2973970Y1898426D01*
X2985926Y1886470D01*
X3001546Y1880000D01*
X3018454D01*
X3034074Y1886470D01*
X3046030Y1898426D01*
X3052500Y1914046D01*
Y1930954D01*
X3046030Y1946574D01*
X3043838Y1948766D01*
Y1964501D01*
X3049306Y1965589D01*
X3058361Y1971639D01*
X3064411Y1980694D01*
X3066536Y1991375D01*
Y2173625D01*
X3064411Y2184306D01*
X3062411Y2187300D01*
X3069199Y2200000D01*
X3090801D01*
X3097589Y2187300D01*
X3095589Y2184306D01*
X3093464Y2173625D01*
Y1991375D01*
X3095589Y1980694D01*
X3101639Y1971639D01*
X3110694Y1965589D01*
X3112912Y1965147D01*
Y1603499D01*
X3112912Y1603498D01*
X3115241Y1591792D01*
X3121871Y1581869D01*
X3509412Y1194328D01*
Y1169378D01*
X3505246Y1168549D01*
X3496976Y1163024D01*
X3491451Y1154754D01*
X3489510Y1145000D01*
Y1130000D01*
X3491451Y1120246D01*
X3496626Y1112500D01*
X3491451Y1104754D01*
X3489510Y1095000D01*
Y1080000D01*
X3491451Y1070246D01*
X3496976Y1061976D01*
X3505246Y1056451D01*
X3515000Y1054510D01*
X3565000D01*
X3574754Y1056451D01*
X3575445Y1056912D01*
X3650783D01*
X3650784Y1056912D01*
X3662490Y1059241D01*
X3672413Y1065871D01*
X3684128Y1077586D01*
X3684129Y1077587D01*
X3690759Y1087510D01*
X3693088Y1099216D01*
X3693088Y1099217D01*
Y1227499D01*
X3693088Y1227500D01*
X3691935Y1233298D01*
X3699200Y1247692D01*
X3699509Y1247754D01*
X3716048Y1258805D01*
X3727099Y1275344D01*
X3729517Y1287500D01*
X3745000D01*
Y1432500D01*
X3729105D01*
Y1522359D01*
X3729729Y1525500D01*
X3728284Y1532768D01*
Y1589250D01*
X3726169Y1599883D01*
X3720146Y1608896D01*
X3711133Y1614919D01*
X3700500Y1617034D01*
X3657000D01*
X3646368Y1614919D01*
X3637354Y1608896D01*
X3631331Y1599883D01*
X3629216Y1589250D01*
Y1535286D01*
X3627145Y1524875D01*
Y1432500D01*
X3610000D01*
Y1339851D01*
X3598267Y1334991D01*
X3288088Y1645170D01*
Y1916957D01*
X3292129Y1920998D01*
X3298759Y1930921D01*
X3301088Y1942627D01*
X3301088Y1942628D01*
Y1965147D01*
X3303306Y1965589D01*
X3312361Y1971639D01*
X3318411Y1980694D01*
X3320536Y1991375D01*
Y2173625D01*
X3318411Y2184306D01*
X3316411Y2187300D01*
X3323199Y2200000D01*
X3471801D01*
X3478589Y2187300D01*
X3476589Y2184306D01*
X3474464Y2173625D01*
Y2089257D01*
X3473020Y2082000D01*
Y1982500D01*
X3455000D01*
Y1909596D01*
X3438952Y1893548D01*
X3427901Y1877009D01*
X3424215Y1858480D01*
X3362500D01*
X3342991Y1854599D01*
X3326452Y1843548D01*
X3315401Y1827009D01*
X3311520Y1807500D01*
X3315401Y1787991D01*
X3326452Y1771452D01*
X3342991Y1760401D01*
X3362500Y1756520D01*
X3445710D01*
X3465219Y1760401D01*
X3481758Y1771452D01*
X3511048Y1800742D01*
X3522099Y1817280D01*
X3525879Y1836283D01*
X3527096Y1837500D01*
X3590000D01*
Y1859020D01*
X3610000D01*
Y1837500D01*
X3627146D01*
Y1755126D01*
X3629217Y1744714D01*
Y1690751D01*
X3631332Y1680118D01*
X3637354Y1671105D01*
X3646368Y1665082D01*
X3657001Y1662967D01*
X3700501D01*
X3711133Y1665082D01*
X3720147Y1671105D01*
X3726170Y1680118D01*
X3728284Y1690751D01*
Y1747232D01*
X3729730Y1754501D01*
X3729105Y1757644D01*
Y1837500D01*
X3745000D01*
Y1982500D01*
X3610000D01*
Y1960980D01*
X3590000D01*
Y1982500D01*
X3574980D01*
Y2079988D01*
X3575479Y2082500D01*
X3574536Y2087243D01*
Y2173625D01*
X3572411Y2184306D01*
X3570411Y2187300D01*
X3577199Y2200000D01*
X4729609D01*
Y320391D01*
D02*
G37*
G36*
X1921912Y1242575D02*
X1921912Y1242574D01*
X1924241Y1230869D01*
X1930871Y1220945D01*
X2036995Y1114821D01*
X2032135Y1103088D01*
X1925924D01*
X1823088Y1205924D01*
Y1365000D01*
X1921912D01*
Y1242575D01*
D02*
G37*
G36*
X3930000Y790000D02*
Y490000D01*
X3610000D01*
Y880000D01*
X3579435Y881528D01*
X3576827Y883271D01*
X3565200Y885584D01*
X3498326D01*
X3417270Y889637D01*
X3413088Y895000D01*
Y925000D01*
X3420812Y934412D01*
X3565000D01*
X3576705Y936741D01*
X3581583Y940000D01*
X3780000D01*
X3930000Y790000D01*
D02*
G37*
G36*
X2285000Y920584D02*
X2134800D01*
X2123173Y918271D01*
X2118278Y915000D01*
X2115000D01*
X2095000Y895000D01*
Y490000D01*
X1795000D01*
Y815000D01*
X1945000Y965000D01*
X2285000D01*
Y920584D01*
D02*
G37*
G36*
X2807780Y786160D02*
Y486161D01*
X2487780D01*
Y749955D01*
X2493271Y758173D01*
X2495584Y769800D01*
Y890200D01*
X2493271Y901827D01*
X2486684Y911684D01*
X2476827Y918271D01*
X2465200Y920584D01*
X2320816D01*
X2313088Y930000D01*
Y960000D01*
X2320812Y969412D01*
X2465000D01*
X2467955Y970000D01*
X2650000D01*
X2807780Y786160D01*
D02*
G37*
G36*
X3235000Y934412D02*
X3375583D01*
Y885584D01*
X3234800D01*
X3230861Y884800D01*
X3205583D01*
X3185583Y864800D01*
Y484800D01*
X2885584D01*
Y784800D01*
X3035583Y934800D01*
X3233052D01*
X3235000Y934412D01*
D02*
G37*
%LPC*%
G36*
X4400000Y4870822D02*
X4366674Y4867540D01*
X4334629Y4857819D01*
X4305096Y4842033D01*
X4279210Y4820790D01*
X4257967Y4794904D01*
X4242181Y4765371D01*
X4232460Y4733326D01*
X4229178Y4700000D01*
X4232460Y4666674D01*
X4242181Y4634629D01*
X4257967Y4605096D01*
X4279210Y4579210D01*
X4305096Y4557966D01*
X4334629Y4542181D01*
X4366674Y4532460D01*
X4400000Y4529178D01*
X4433326Y4532460D01*
X4465371Y4542181D01*
X4494904Y4557966D01*
X4520790Y4579210D01*
X4542034Y4605096D01*
X4557819Y4634629D01*
X4567540Y4666674D01*
X4570822Y4700000D01*
X4567540Y4733326D01*
X4557819Y4765371D01*
X4542034Y4794904D01*
X4520790Y4820790D01*
X4494904Y4842033D01*
X4465371Y4857819D01*
X4433326Y4867540D01*
X4400000Y4870822D01*
D02*
G37*
G36*
X300000D02*
X266674Y4867540D01*
X234629Y4857819D01*
X205096Y4842033D01*
X179210Y4820790D01*
X157966Y4794904D01*
X142181Y4765371D01*
X132460Y4733326D01*
X129178Y4700000D01*
X132460Y4666674D01*
X142181Y4634629D01*
X157966Y4605096D01*
X179210Y4579210D01*
X205096Y4557966D01*
X234629Y4542181D01*
X266674Y4532460D01*
X300000Y4529178D01*
X333326Y4532460D01*
X365371Y4542181D01*
X394904Y4557966D01*
X420790Y4579210D01*
X442033Y4605096D01*
X457819Y4634629D01*
X467540Y4666674D01*
X470822Y4700000D01*
X467540Y4733326D01*
X457819Y4765371D01*
X442033Y4794904D01*
X420790Y4820790D01*
X394904Y4842033D01*
X365371Y4857819D01*
X333326Y4867540D01*
X300000Y4870822D01*
D02*
G37*
G36*
X2774000Y4608341D02*
X2748547Y4604991D01*
X2724829Y4595166D01*
X2704462Y4579538D01*
X2688834Y4559171D01*
X2679010Y4535453D01*
X2675659Y4510000D01*
X2679010Y4484548D01*
X2688834Y4460830D01*
X2704462Y4440462D01*
X2724829Y4424834D01*
X2748547Y4415010D01*
X2774000Y4411659D01*
X2799453Y4415010D01*
X2823171Y4424834D01*
X2843538Y4440462D01*
X2859166Y4460830D01*
X2868990Y4484548D01*
X2872341Y4510000D01*
X2868990Y4535453D01*
X2859166Y4559171D01*
X2843538Y4579538D01*
X2823171Y4595166D01*
X2799453Y4604991D01*
X2774000Y4608341D01*
D02*
G37*
G36*
X3957000Y4592341D02*
X3931547Y4588991D01*
X3907829Y4579166D01*
X3887462Y4563538D01*
X3871834Y4543171D01*
X3862010Y4519453D01*
X3858659Y4494000D01*
X3862010Y4468548D01*
X3871834Y4444830D01*
X3887462Y4424462D01*
X3907829Y4408834D01*
X3931547Y4399010D01*
X3957000Y4395659D01*
X3982453Y4399010D01*
X4006171Y4408834D01*
X4026538Y4424462D01*
X4042166Y4444830D01*
X4051990Y4468548D01*
X4055341Y4494000D01*
X4051990Y4519453D01*
X4042166Y4543171D01*
X4026538Y4563538D01*
X4006171Y4579166D01*
X3982453Y4588991D01*
X3957000Y4592341D01*
D02*
G37*
G36*
X1647000D02*
X1621547Y4588991D01*
X1597829Y4579166D01*
X1577462Y4563538D01*
X1561834Y4543171D01*
X1552010Y4519453D01*
X1548659Y4494000D01*
X1552010Y4468548D01*
X1561834Y4444830D01*
X1577462Y4424462D01*
X1597829Y4408834D01*
X1621547Y4399010D01*
X1647000Y4395659D01*
X1672453Y4399010D01*
X1696171Y4408834D01*
X1716538Y4424462D01*
X1732166Y4444830D01*
X1741990Y4468548D01*
X1745341Y4494000D01*
X1741990Y4519453D01*
X1732166Y4543171D01*
X1716538Y4563538D01*
X1696171Y4579166D01*
X1672453Y4588991D01*
X1647000Y4592341D01*
D02*
G37*
G36*
X3690000Y4508658D02*
X3667053Y4505637D01*
X3645671Y4496780D01*
X3627309Y4482691D01*
X3613220Y4464329D01*
X3604363Y4442947D01*
X3601342Y4420000D01*
X3604363Y4397053D01*
X3613220Y4375671D01*
X3627309Y4357309D01*
X3645671Y4343220D01*
X3667053Y4334363D01*
X3690000Y4331342D01*
X3712947Y4334363D01*
X3734329Y4343220D01*
X3752691Y4357309D01*
X3766780Y4375671D01*
X3775637Y4397053D01*
X3778658Y4420000D01*
X3775637Y4442947D01*
X3766780Y4464329D01*
X3752691Y4482691D01*
X3734329Y4496780D01*
X3712947Y4505637D01*
X3690000Y4508658D01*
D02*
G37*
G36*
X445000Y4337500D02*
X325000D01*
Y4264926D01*
X324020Y4260000D01*
Y4252906D01*
X273952Y4202837D01*
X262901Y4186298D01*
X259020Y4166789D01*
Y4125000D01*
X250000D01*
Y4005000D01*
X370000D01*
Y4125000D01*
X360979D01*
Y4145673D01*
X411048Y4195741D01*
X415564Y4202500D01*
X445000D01*
Y4337500D01*
D02*
G37*
G36*
X4479500Y3537000D02*
X4160500D01*
Y3423000D01*
X4479500D01*
Y3537000D01*
D02*
G37*
G36*
X4072500D02*
X3753500D01*
Y3423000D01*
X4072500D01*
Y3537000D01*
D02*
G37*
G36*
Y3410000D02*
X3753500D01*
Y3296000D01*
X4072500D01*
Y3410000D01*
D02*
G37*
G36*
X3617500Y3355000D02*
X3482500D01*
Y3350000D01*
X3365000D01*
Y3230000D01*
X3485000D01*
Y3235000D01*
X3604713D01*
X3616667Y3230000D01*
X3619966Y3213417D01*
X3629360Y3199359D01*
X3643417Y3189966D01*
X3660000Y3186667D01*
X3676583Y3189966D01*
X3690641Y3199359D01*
X3690676Y3199412D01*
X3753500D01*
Y3169000D01*
X4072500D01*
Y3283000D01*
X3753500D01*
Y3260588D01*
X3690676D01*
X3690641Y3260640D01*
X3676583Y3270034D01*
X3660000Y3273332D01*
X3643417Y3270034D01*
X3630200Y3261202D01*
X3625796Y3262176D01*
X3617500Y3265751D01*
Y3355000D01*
D02*
G37*
G36*
X4479500Y3156000D02*
X4160500D01*
Y3042000D01*
X4479500D01*
Y3049020D01*
X4480000D01*
X4499509Y3052901D01*
X4516048Y3063952D01*
X4527099Y3080491D01*
X4530980Y3100000D01*
X4527099Y3119509D01*
X4516048Y3136048D01*
X4499509Y3147099D01*
X4480000Y3150979D01*
X4479500D01*
Y3156000D01*
D02*
G37*
G36*
X1328454Y2172500D02*
X1311546D01*
X1295926Y2166030D01*
X1290484Y2160588D01*
X960001D01*
X960000Y2160588D01*
X948295Y2158259D01*
X938371Y2151629D01*
X938370Y2151628D01*
X596923Y1810181D01*
X593928Y1811910D01*
X571572Y1817900D01*
X548428D01*
X526072Y1811910D01*
X506028Y1800338D01*
X489662Y1783972D01*
X478090Y1763928D01*
X472100Y1741572D01*
Y1718428D01*
X478090Y1696072D01*
X489662Y1676028D01*
X506028Y1659663D01*
X526072Y1648090D01*
X548428Y1642100D01*
X571572D01*
X593928Y1648090D01*
X613972Y1659663D01*
X630337Y1676028D01*
X641910Y1696072D01*
X647900Y1718428D01*
Y1741572D01*
X641910Y1763928D01*
X640181Y1766923D01*
X972670Y2099412D01*
X1290484D01*
X1295926Y2093970D01*
X1311546Y2087500D01*
X1328454D01*
X1344074Y2093970D01*
X1356030Y2105926D01*
X1362500Y2121546D01*
Y2138454D01*
X1356030Y2154074D01*
X1344074Y2166030D01*
X1328454Y2172500D01*
D02*
G37*
G36*
X498836Y2094500D02*
X473164D01*
X448366Y2087855D01*
X426134Y2075019D01*
X407980Y2056866D01*
X395144Y2034634D01*
X388500Y2009836D01*
Y1984164D01*
X395144Y1959366D01*
X407980Y1937134D01*
X426134Y1918981D01*
X448366Y1906145D01*
X473164Y1899500D01*
X498836D01*
X523633Y1906145D01*
X545866Y1918981D01*
X564019Y1937134D01*
X576855Y1959366D01*
X583500Y1984164D01*
Y2009836D01*
X576855Y2034634D01*
X564019Y2056866D01*
X545866Y2075019D01*
X523633Y2087855D01*
X498836Y2094500D01*
D02*
G37*
G36*
X3890500Y1846034D02*
X3847000D01*
X3836368Y1843919D01*
X3827354Y1837896D01*
X3821331Y1828882D01*
X3819216Y1818250D01*
Y1690750D01*
X3821331Y1680118D01*
X3827354Y1671104D01*
X3836368Y1665081D01*
X3847000Y1662966D01*
X3890500D01*
X3901133Y1665081D01*
X3910146Y1671104D01*
X3916169Y1680118D01*
X3918284Y1690750D01*
Y1818250D01*
X3916169Y1828882D01*
X3910146Y1837896D01*
X3901133Y1843919D01*
X3890500Y1846034D01*
D02*
G37*
G36*
X317572Y1690900D02*
X294428D01*
X272072Y1684910D01*
X252028Y1673338D01*
X235662Y1656972D01*
X224090Y1636928D01*
X218100Y1614572D01*
Y1591428D01*
X224090Y1569072D01*
X235662Y1549028D01*
X252028Y1532663D01*
X272072Y1521090D01*
X294428Y1515100D01*
X317572D01*
X339928Y1521090D01*
X359972Y1532663D01*
X376337Y1549028D01*
X387910Y1569072D01*
X393900Y1591428D01*
Y1614572D01*
X387910Y1636928D01*
X376337Y1656972D01*
X359972Y1673338D01*
X339928Y1684910D01*
X317572Y1690900D01*
D02*
G37*
G36*
X3890500Y1617034D02*
X3847000D01*
X3836368Y1614919D01*
X3827354Y1608896D01*
X3821331Y1599883D01*
X3819216Y1589250D01*
Y1461750D01*
X3821331Y1451118D01*
X3827354Y1442104D01*
X3836368Y1436081D01*
X3847000Y1433966D01*
X3890500D01*
X3901133Y1436081D01*
X3910146Y1442104D01*
X3916169Y1451118D01*
X3918284Y1461750D01*
Y1589250D01*
X3916169Y1599883D01*
X3910146Y1608896D01*
X3901133Y1614919D01*
X3890500Y1617034D01*
D02*
G37*
G36*
X4710000Y1740000D02*
X4370000D01*
Y1400000D01*
X4710000D01*
Y1740000D01*
D02*
G37*
G36*
X571572Y1563900D02*
X548428D01*
X526072Y1557910D01*
X506028Y1546338D01*
X489662Y1529972D01*
X478090Y1509928D01*
X472100Y1487572D01*
Y1464428D01*
X478090Y1442072D01*
X489662Y1422028D01*
X506028Y1405663D01*
X526072Y1394090D01*
X548428Y1388100D01*
X571572D01*
X593928Y1394090D01*
X613972Y1405663D01*
X630337Y1422028D01*
X641910Y1442072D01*
X647900Y1464428D01*
Y1487572D01*
X641910Y1509928D01*
X630337Y1529972D01*
X613972Y1546338D01*
X593928Y1557910D01*
X571572Y1563900D01*
D02*
G37*
G36*
X1217500Y1415000D02*
X1082500D01*
Y1295000D01*
X1111912D01*
Y1248958D01*
X1109241Y1244959D01*
X1108593Y1241702D01*
X1103951Y1234754D01*
X1102010Y1225000D01*
Y1175000D01*
X1103951Y1165246D01*
X1109476Y1156976D01*
X1117746Y1151451D01*
X1127500Y1149511D01*
X1142500D01*
X1152254Y1151451D01*
X1160524Y1156976D01*
X1166049Y1165246D01*
X1167990Y1175000D01*
Y1202006D01*
X1168088Y1202500D01*
Y1222550D01*
X1170759Y1226548D01*
X1173088Y1238254D01*
X1173088Y1238255D01*
Y1295000D01*
X1217500D01*
Y1415000D01*
D02*
G37*
G36*
X1138454Y2012500D02*
X1121546D01*
X1105926Y2006030D01*
X1093970Y1994074D01*
X1087500Y1978454D01*
Y1970758D01*
X738371Y1621629D01*
X731741Y1611705D01*
X729412Y1600000D01*
X729412Y1599999D01*
Y1061717D01*
X729412Y1061716D01*
X731741Y1050010D01*
X738371Y1040087D01*
X752586Y1025872D01*
X752587Y1025871D01*
X762510Y1019241D01*
X774216Y1016912D01*
X953833D01*
X964412Y1005000D01*
Y975000D01*
X960630Y970392D01*
X800000D01*
X792196Y968840D01*
X785581Y964419D01*
X785580Y964418D01*
X641161Y820000D01*
X640000D01*
Y818839D01*
X635581Y814419D01*
X631160Y807804D01*
X629608Y800000D01*
Y500000D01*
X631160Y492196D01*
X635581Y485581D01*
X640000Y482628D01*
Y480000D01*
X648030D01*
X650000Y479608D01*
X950000D01*
X951970Y480000D01*
X980000D01*
Y820000D01*
X970392D01*
Y871376D01*
X980043Y878913D01*
X983295Y876741D01*
X995000Y874412D01*
X1142500D01*
X1154205Y876741D01*
X1160000Y880612D01*
X1165795Y876741D01*
X1177500Y874412D01*
X1325000D01*
X1326055Y874622D01*
X1328870Y874062D01*
X1330393Y873045D01*
X1332249Y872276D01*
X1333919Y871160D01*
X1335888Y870769D01*
X1337744Y870000D01*
X1338816D01*
Y500000D01*
X1340000Y494049D01*
Y480000D01*
X1357238D01*
X1359208Y479608D01*
X1679208D01*
X1687012Y481160D01*
X1693628Y485581D01*
X1698048Y492196D01*
X1699600Y500000D01*
Y800000D01*
X1698048Y807804D01*
X1693628Y814419D01*
X1693627Y814420D01*
X1543628Y964419D01*
X1537012Y968840D01*
X1529209Y970392D01*
X1359370D01*
X1355588Y975000D01*
Y1005000D01*
X1353259Y1016705D01*
X1346629Y1026629D01*
X1336705Y1033259D01*
X1325000Y1035588D01*
X1074111D01*
X1070490Y1040000D01*
Y1055000D01*
X1068549Y1064754D01*
X1063374Y1072500D01*
X1068549Y1080246D01*
X1070490Y1090000D01*
Y1105000D01*
X1068549Y1114754D01*
X1063374Y1122500D01*
X1068549Y1130246D01*
X1070490Y1140000D01*
Y1155000D01*
X1068549Y1164754D01*
X1063024Y1173024D01*
X1054754Y1178549D01*
X1045000Y1180490D01*
X995000D01*
X985246Y1178549D01*
X983288Y1177241D01*
X970588Y1184030D01*
Y1294529D01*
X972957Y1295000D01*
X1067500D01*
Y1415000D01*
X932500D01*
Y1348241D01*
X930087Y1346629D01*
X930087Y1346628D01*
X918371Y1334913D01*
X911741Y1324989D01*
X909412Y1313284D01*
X909412Y1313283D01*
Y1111717D01*
X909412Y1111716D01*
X911741Y1100010D01*
X917903Y1090788D01*
X917295Y1087921D01*
X912410Y1078088D01*
X790588D01*
Y1587330D01*
X1130758Y1927500D01*
X1138454D01*
X1154074Y1933970D01*
X1166030Y1945926D01*
X1172500Y1961546D01*
Y1978454D01*
X1166030Y1994074D01*
X1154074Y2006030D01*
X1138454Y2012500D01*
D02*
G37*
G36*
X4416744Y770000D02*
X4383257D01*
X4350413Y763467D01*
X4319475Y750652D01*
X4291631Y732048D01*
X4267953Y708369D01*
X4249348Y680525D01*
X4236533Y649587D01*
X4230000Y616743D01*
Y583257D01*
X4236533Y550413D01*
X4249348Y519475D01*
X4267953Y491631D01*
X4291631Y467953D01*
X4319475Y449348D01*
X4350413Y436533D01*
X4383257Y430000D01*
X4416744D01*
X4449587Y436533D01*
X4480525Y449348D01*
X4508369Y467953D01*
X4532048Y491631D01*
X4550652Y519475D01*
X4563467Y550413D01*
X4570000Y583257D01*
Y616743D01*
X4563467Y649587D01*
X4550652Y680525D01*
X4532048Y708369D01*
X4508369Y732048D01*
X4480525Y750652D01*
X4449587Y763467D01*
X4416744Y770000D01*
D02*
G37*
G36*
X316743D02*
X283256D01*
X250413Y763467D01*
X219475Y750652D01*
X191631Y732048D01*
X167952Y708369D01*
X149348Y680525D01*
X136533Y649587D01*
X130000Y616743D01*
Y583257D01*
X136533Y550413D01*
X149348Y519475D01*
X167952Y491631D01*
X191631Y467953D01*
X219475Y449348D01*
X250413Y436533D01*
X283256Y430000D01*
X316743D01*
X349587Y436533D01*
X380525Y449348D01*
X408369Y467953D01*
X432047Y491631D01*
X450652Y519475D01*
X463467Y550413D01*
X470000Y583257D01*
Y616743D01*
X463467Y649587D01*
X450652Y680525D01*
X432047Y708369D01*
X408369Y732048D01*
X380525Y750652D01*
X349587Y763467D01*
X316743Y770000D01*
D02*
G37*
%LPD*%
G36*
X1679208Y800000D02*
Y500000D01*
X1359208D01*
Y890000D01*
X1341722D01*
X1336827Y893271D01*
X1325200Y895584D01*
X1179208D01*
Y944412D01*
X1325000D01*
X1336705Y946741D01*
X1341583Y950000D01*
X1529209D01*
X1679208Y800000D01*
D02*
G37*
G36*
X983295Y946741D02*
X995000Y944412D01*
X1140000D01*
Y900000D01*
X970000D01*
X950000Y880000D01*
Y500000D01*
X650000D01*
Y800000D01*
X800000Y950000D01*
X978417D01*
X983295Y946741D01*
D02*
G37*
D10*
X2290000Y2975000D02*
D03*
X2370000D02*
D03*
X2450000D02*
D03*
X2530000D02*
D03*
X2610000D02*
D03*
X2690000D02*
D03*
X2770000D02*
D03*
X2850000D02*
D03*
X2290000Y3865000D02*
D03*
X2370000D02*
D03*
X2450000D02*
D03*
X2530000D02*
D03*
X2610000D02*
D03*
X2690000D02*
D03*
X2770000D02*
D03*
X2850000D02*
D03*
D11*
X2125000Y3700000D02*
D03*
Y3620000D02*
D03*
Y3540000D02*
D03*
Y3460000D02*
D03*
Y3380000D02*
D03*
Y3300000D02*
D03*
Y3220000D02*
D03*
Y3140000D02*
D03*
X3015000Y3700000D02*
D03*
Y3620000D02*
D03*
Y3540000D02*
D03*
Y3460000D02*
D03*
Y3380000D02*
D03*
Y3300000D02*
D03*
Y3220000D02*
D03*
Y3140000D02*
D03*
D12*
X1340000Y3855000D02*
D03*
Y3705000D02*
D03*
X310000Y4065000D02*
D03*
Y3915000D02*
D03*
D13*
X3275000Y3290000D02*
D03*
X3425000D02*
D03*
D14*
X3550000Y3295000D02*
D03*
Y3425000D02*
D03*
X1180000Y3845000D02*
D03*
Y3715000D02*
D03*
X3150000Y1385000D02*
D03*
Y1255000D02*
D03*
X3010000Y1385000D02*
D03*
Y1255000D02*
D03*
X2030000Y1425000D02*
D03*
Y1295000D02*
D03*
X1870000Y1295000D02*
D03*
Y1425000D02*
D03*
X1150000Y1485000D02*
D03*
Y1355000D02*
D03*
X1000000Y1485000D02*
D03*
Y1355000D02*
D03*
D15*
X2444500Y2082500D02*
D03*
X2317500D02*
D03*
X2190500D02*
D03*
X2063500D02*
D03*
X1936500D02*
D03*
X1809500D02*
D03*
X1682500D02*
D03*
X1555500D02*
D03*
Y2577500D02*
D03*
X1682500D02*
D03*
X1809500D02*
D03*
X1936500D02*
D03*
X2063500D02*
D03*
X2190500D02*
D03*
X2317500D02*
D03*
X2444500D02*
D03*
X3524500Y2082500D02*
D03*
X3397500D02*
D03*
X3270500D02*
D03*
X3143500D02*
D03*
X3016500D02*
D03*
X2889500D02*
D03*
X2762500D02*
D03*
X2635500D02*
D03*
Y2577500D02*
D03*
X2762500D02*
D03*
X2889500D02*
D03*
X3016500D02*
D03*
X3143500D02*
D03*
X3270500D02*
D03*
X3397500D02*
D03*
X3524500D02*
D03*
D16*
X3170000Y3397500D02*
D03*
Y3542500D02*
D03*
X550000Y3947500D02*
D03*
Y4092500D02*
D03*
X2450000Y1747500D02*
D03*
Y1892500D02*
D03*
X1180000Y4112500D02*
D03*
Y3967500D02*
D03*
X3180000Y2977500D02*
D03*
Y3122500D02*
D03*
X1930000Y3872500D02*
D03*
Y3727500D02*
D03*
X1790000Y3872500D02*
D03*
Y3727500D02*
D03*
D17*
X3522500Y1910000D02*
D03*
X3377500D02*
D03*
X2277500Y2780000D02*
D03*
X2422500D02*
D03*
X3822500Y1360000D02*
D03*
X3677500D02*
D03*
X3822500Y1910000D02*
D03*
X3677500D02*
D03*
X3387500Y2760000D02*
D03*
X3532500D02*
D03*
X2227500Y4060000D02*
D03*
X2372500D02*
D03*
D18*
X4540000Y1080000D02*
D03*
X810000Y650000D02*
D03*
X1950000Y640000D02*
D03*
X1510000Y650000D02*
D03*
X3040000Y640000D02*
D03*
X3760000D02*
D03*
X2650000D02*
D03*
D19*
X1160000Y805000D02*
D03*
X3400000Y795000D02*
D03*
X2300000Y830000D02*
D03*
D20*
X1251250Y920000D02*
D03*
X1068750D02*
D03*
X3308750Y910000D02*
D03*
X3491250D02*
D03*
X2208750Y945000D02*
D03*
X2391250D02*
D03*
D21*
X1160000Y990000D02*
D03*
X3400000Y980000D02*
D03*
X2300000Y1015000D02*
D03*
D22*
X1085000Y1200000D02*
D03*
X1135000D02*
D03*
X1185000D02*
D03*
X1235000D02*
D03*
X3475000Y1190000D02*
D03*
X3425000D02*
D03*
X3375000D02*
D03*
X3325000D02*
D03*
X2375000Y1225000D02*
D03*
X2325000D02*
D03*
X2275000D02*
D03*
X2225000D02*
D03*
D23*
X1300000Y1147500D02*
D03*
Y1097500D02*
D03*
Y1047500D02*
D03*
X1020000D02*
D03*
Y1097500D02*
D03*
Y1147500D02*
D03*
X3260000Y1137500D02*
D03*
Y1087500D02*
D03*
Y1037500D02*
D03*
X3540000D02*
D03*
Y1087500D02*
D03*
Y1137500D02*
D03*
X2160000Y1172500D02*
D03*
Y1122500D02*
D03*
Y1072500D02*
D03*
X2440000D02*
D03*
Y1122500D02*
D03*
Y1172500D02*
D03*
D24*
X994501Y3951250D02*
D03*
X994500Y3761250D02*
D03*
X765500D02*
D03*
Y3856250D02*
D03*
Y3951250D02*
D03*
D25*
X3678751Y1754501D02*
D03*
X3868750Y1754500D02*
D03*
Y1525500D02*
D03*
X3773750D02*
D03*
X3678750D02*
D03*
D26*
X149640Y3183867D02*
D03*
Y3423867D02*
D03*
D27*
X394640Y2983867D02*
D03*
Y3623867D02*
D03*
D28*
X417140Y3173867D02*
D03*
Y3238867D02*
D03*
Y3303867D02*
D03*
Y3368867D02*
D03*
Y3433867D02*
D03*
D29*
X385000Y4270000D02*
D03*
X255000D02*
D03*
D30*
X4320000Y3099000D02*
D03*
Y3226000D02*
D03*
Y3353000D02*
D03*
Y3480000D02*
D03*
Y3607000D02*
D03*
X3913000D02*
D03*
Y3480000D02*
D03*
Y3353000D02*
D03*
Y3226000D02*
D03*
Y3099000D02*
D03*
D31*
X790000Y3455000D02*
D03*
X980000D02*
D03*
Y3210000D02*
D03*
X885000D02*
D03*
X790000D02*
D03*
D32*
X4540000Y1570000D02*
D03*
D33*
X2353678Y3625289D02*
X2772500Y3206468D01*
X2320000Y3673235D02*
X2353678Y3639557D01*
X2320000Y3673235D02*
Y3680000D01*
X2353678Y3625289D02*
Y3639557D01*
X2335593Y3290754D02*
X2339757Y3286590D01*
X2360836D01*
X2686215Y3138098D02*
X2716757Y3107556D01*
X2239765Y3520235D02*
X2665000Y3095000D01*
X2239765Y3520235D02*
Y3660000D01*
X2665000Y3050000D02*
Y3095000D01*
X2716757Y3103802D02*
Y3107556D01*
X2450000Y3430000D02*
X2686215Y3193785D01*
Y3138098D02*
Y3193785D01*
X2772500Y3088254D02*
Y3206468D01*
X2872486Y3288525D02*
Y3317515D01*
X2610000Y3470000D02*
X2870000Y3210000D01*
X2690000Y3500000D02*
X2872486Y3317515D01*
Y3288525D02*
X2898803Y3262208D01*
X2610000Y3470000D02*
Y3865000D01*
X2870000Y3110000D02*
Y3210000D01*
X2898803Y3255443D02*
Y3262208D01*
X2910000Y3417426D02*
X2927574Y3435000D01*
X2910000Y3406765D02*
Y3417426D01*
X2690000Y3500000D02*
Y3865000D01*
X2887123Y3377123D02*
Y3383888D01*
X2910000Y3406765D01*
X2360836Y3286590D02*
X2585000Y3062426D01*
X2529884Y2892616D02*
Y2974884D01*
X2530000Y2975000D01*
X2529768Y2892500D02*
X2529884Y2892616D01*
X2905000Y3525000D02*
X3000000D01*
X3015000Y3540000D01*
Y3220000D02*
X3205000D01*
X2288939Y2976061D02*
Y3173021D01*
X2770000Y2975000D02*
Y3085754D01*
X2927574Y3435000D02*
X2940000D01*
X2290000Y3865000D02*
Y3915000D01*
X2246716Y3958285D02*
X2290000Y3915000D01*
X2246715Y3958285D02*
X2246716D01*
X2455217Y3965217D02*
X2460000Y3970000D01*
X2455217Y3870217D02*
Y3965217D01*
X2866765Y3700000D02*
X3015000D01*
Y3380000D02*
X3152500D01*
X1600000Y3540000D02*
X2125000D01*
X1730000Y3620000D02*
X2125000D01*
X2870000D02*
X3015000D01*
X2850000Y3865000D02*
Y3980000D01*
X2025000Y3090000D02*
X2075000Y3140000D01*
X2125000D01*
X2850000Y2945000D02*
X2865000Y2930000D01*
X2850000Y2945000D02*
Y2975000D01*
X1975754Y3220000D02*
X2125000D01*
X2288939Y2976061D02*
X2290000Y2975000D01*
X2690000D02*
Y3025000D01*
X2665000Y3050000D02*
X2690000Y3025000D01*
X2585000Y3050000D02*
Y3062426D01*
Y3050000D02*
X2610000Y3025000D01*
Y2975000D02*
Y3025000D01*
X2940000Y3435000D02*
X2965000Y3460000D01*
X3015000D01*
X2450000Y3865000D02*
X2455217Y3870217D01*
X1867500Y3111746D02*
X1975754Y3220000D01*
X1867500Y3068254D02*
Y3111746D01*
Y3068254D02*
X2065754Y2870000D01*
X2474926D01*
X2504926Y2840000D01*
X3264852D01*
X3327493Y2902641D01*
Y2931740D01*
X3494753Y3099000D01*
X3913000D01*
X2865000Y2930000D02*
X2910000D01*
X1920000Y3090000D02*
X2025000D01*
X2820000Y3570000D02*
X2870000Y3620000D01*
X1560000Y3790000D02*
X1730000Y3620000D01*
X1560000Y3790000D02*
Y4378451D01*
X1264451Y4674000D02*
X1560000Y4378451D01*
X1253000Y4674000D02*
X1264451D01*
X1465000Y3675000D02*
X1600000Y3540000D01*
X1465000Y3675000D02*
Y4081000D01*
X1126000Y4420000D02*
X1465000Y4081000D01*
X3152500Y3380000D02*
X3170000Y3397500D01*
X2836765Y3670000D02*
X2866765Y3700000D01*
X2830000Y3670000D02*
X2836765D01*
X2227500Y3977500D02*
Y4065000D01*
Y3977500D02*
X2246715Y3958285D01*
X2770000Y3085754D02*
X2772500Y3088254D01*
X2281706Y3180253D02*
Y3235521D01*
Y3180253D02*
X2288939Y3173021D01*
X3205000Y3220000D02*
X3275000Y3290000D01*
X2860000Y3480000D02*
X2905000Y3525000D01*
X2465217Y3594783D02*
X2470000Y3590000D01*
X2330137Y3760000D02*
X2465217Y3624921D01*
X2252574Y3760000D02*
X2330137D01*
X2107500Y3905074D02*
X2252574Y3760000D01*
X2107500Y4152049D02*
X2380000Y4424549D01*
Y4690000D01*
X2107500Y3905074D02*
Y4152049D01*
X2465217Y3594783D02*
Y3624921D01*
X1930000Y3872500D02*
Y3940000D01*
X1790000Y3872500D02*
Y3950000D01*
X2222500Y4060000D02*
X2227500Y4065000D01*
X2160000Y4060000D02*
X2222500D01*
X930000Y1480000D02*
X995000D01*
X2030000Y1425000D02*
X2035000Y1430000D01*
X2100000D01*
X1870000Y1230000D02*
Y1265000D01*
X1792500Y1193254D02*
Y1477426D01*
X1913254Y1072500D02*
X2160000D01*
X1792500Y1193254D02*
X1913254Y1072500D01*
X3010000Y1385000D02*
Y1440000D01*
X3150000Y1385000D02*
Y1450000D01*
X3822500Y1360000D02*
X3830000Y1352500D01*
Y1280000D02*
Y1352500D01*
X3257500Y1632500D02*
Y1929627D01*
Y1632500D02*
X3662500Y1227500D01*
Y1099216D02*
Y1227500D01*
X3143500Y1603498D02*
X3540000Y1206998D01*
X3143500Y1603498D02*
Y2082500D01*
X3540000Y1037500D02*
X3541250Y1036250D01*
X3626661D01*
X3650784Y1087500D02*
X3662500Y1099216D01*
X3540000Y1087500D02*
X3650784D01*
X3626661Y1036250D02*
X3627911Y1035000D01*
X3270500Y1942627D02*
Y2082500D01*
X3367500Y1900000D02*
X3377500Y1910000D01*
X3257500Y1929627D02*
X3270500Y1942627D01*
X3310000Y1900000D02*
X3367500D01*
X2063500Y1686500D02*
Y2082500D01*
Y1686500D02*
X2440000Y1310000D01*
Y1172500D02*
Y1310000D01*
Y1072500D02*
X2441250Y1071250D01*
X2668750D01*
X2670000Y1070000D01*
X2580000Y1134216D02*
Y1440000D01*
X2440000Y1122500D02*
X2568284D01*
X2580000Y1134216D01*
X2190500Y1829500D02*
X2580000Y1440000D01*
X2190500Y1829500D02*
Y2082500D01*
X2450000Y1670000D02*
Y1747500D01*
X1550000Y1950000D02*
X1552750Y1952750D01*
Y2079750D01*
X1555500Y2082500D01*
X1550000Y2700000D02*
X1552750Y2697250D01*
Y2580250D02*
Y2697250D01*
X880000Y3140000D02*
Y3205000D01*
X498067Y3171933D02*
X500000Y3170000D01*
X419074Y3171933D02*
X498067D01*
X550000Y4092500D02*
Y4170000D01*
X3550000Y3425000D02*
X3555000Y3420000D01*
X3630000D01*
X3425000Y3290000D02*
X3545000D01*
X3550000Y3295000D01*
X3150000Y1255000D02*
X3358579D01*
X3372500Y1241079D01*
X3325000Y1190000D02*
Y1192716D01*
X3294783Y1195217D02*
X3322500D01*
X3290000Y1200000D02*
X3294783Y1195217D01*
X3322500D02*
X3325000Y1192716D01*
X3007500Y1155000D02*
Y1252500D01*
X3010000Y1255000D01*
X3075000Y1087500D02*
X3260000D01*
X3007500Y1155000D02*
X3075000Y1087500D01*
X940000Y1313284D02*
X951716Y1325000D01*
X970000D02*
X1000000Y1355000D01*
X951716Y1325000D02*
X970000D01*
X940000Y1111716D02*
Y1313284D01*
X951716Y1100000D02*
X1017500D01*
X940000Y1111716D02*
X951716Y1100000D01*
X995000Y1480000D02*
X1000000Y1485000D01*
X1017500Y1100000D02*
X1020000Y1097500D01*
X1150000Y1485000D02*
Y1550000D01*
X1300000Y1147500D02*
Y1504000D01*
X1809500Y2013500D01*
X1142500Y1238254D02*
Y1347500D01*
X1150000Y1355000D01*
X1137500Y1233254D02*
X1142500Y1238254D01*
X1137500Y1202500D02*
Y1233254D01*
X1135000Y1200000D02*
X1137500Y1202500D01*
X1087500Y1257500D02*
X1090000Y1260000D01*
X1087500Y1202500D02*
Y1257500D01*
X1085000Y1200000D02*
X1087500Y1202500D01*
X1210000Y1250000D02*
X1232500Y1227500D01*
X1210000Y1243235D02*
Y1250000D01*
X1232500Y1202500D02*
Y1227500D01*
X1192500Y1225735D02*
X1210000Y1243235D01*
X1192500Y1225000D02*
Y1225735D01*
X1185000Y1217500D02*
X1192500Y1225000D01*
X1185000Y1200000D02*
Y1217500D01*
X1232500Y1202500D02*
X1235000Y1200000D01*
X2655000Y2050000D02*
X2690000D01*
X2635500Y2069500D02*
Y2082500D01*
Y2069500D02*
X2655000Y2050000D01*
X2337000Y2022500D02*
X2370000D01*
X2337000Y2010000D02*
Y2022500D01*
X1936500Y1696500D02*
Y2082500D01*
X2337000Y2597000D02*
Y2682735D01*
X2317500Y2577500D02*
X2337000Y2597000D01*
Y2682735D02*
X2344948Y2690683D01*
X2317500Y2029500D02*
Y2082500D01*
X1552750Y2580250D02*
X1555500Y2577500D01*
X1809500Y2013500D02*
Y2082500D01*
X1936500Y2646500D02*
X2045217Y2755216D01*
X1936500Y2577500D02*
Y2646500D01*
X2063500D02*
X2117595Y2700595D01*
X2063500Y2577500D02*
Y2646500D01*
X1809500D02*
X1985212Y2822212D01*
X1809500Y2577500D02*
Y2646500D01*
X2190248Y2577752D02*
X2190500Y2577500D01*
X2190248Y2577752D02*
Y2699742D01*
X2189996Y2699995D02*
X2190248Y2699742D01*
X1985212Y2845211D02*
X1989996Y2849994D01*
X1985212Y2822212D02*
Y2845211D01*
X2117595Y2727595D02*
X2156973Y2766973D01*
X2117595Y2700595D02*
Y2727595D01*
X2045217Y2775217D02*
X2050000Y2780000D01*
X2045217Y2755216D02*
Y2775217D01*
X2317500Y2029500D02*
X2337000Y2010000D01*
X2344948Y2690683D02*
Y2697448D01*
X1340000Y1100000D02*
X1936500Y1696500D01*
X1302500Y1100000D02*
X1340000D01*
X1300000Y1097500D02*
X1302500Y1100000D01*
X2000000Y1684926D02*
Y1860000D01*
X1792500Y1477426D02*
X2000000Y1684926D01*
X1952500Y1242574D02*
X2072574Y1122500D01*
X1952500Y1242574D02*
Y1408284D01*
X2072574Y1122500D02*
X2160000D01*
X2889750Y1960250D02*
Y2082250D01*
X2889500Y2082500D02*
X2889750Y2082250D01*
Y1960250D02*
X2890000Y1960000D01*
Y1592287D02*
Y1960000D01*
X2862500Y1564787D02*
X2890000Y1592287D01*
X774216Y1047500D02*
X1020000D01*
X760000Y1061716D02*
Y1600000D01*
Y1061716D02*
X774216Y1047500D01*
X760000Y1600000D02*
X1130000Y1970000D01*
X3170000Y3542500D02*
X3172500Y3540000D01*
X3250000D01*
X3910000Y3610000D02*
X3913000Y3607000D01*
X3530000Y3610000D02*
X3910000D01*
X3317500Y3397500D02*
X3530000Y3610000D01*
X3170000Y3397500D02*
X3317500D01*
X3822500Y1910000D02*
X3832500Y1900000D01*
X3890000D01*
X3771875Y1441875D02*
Y1523625D01*
X3773750Y1525500D01*
X3770000Y1440000D02*
X3771875Y1441875D01*
X3397500Y2020187D02*
Y2082500D01*
X3342500Y2000000D02*
X3343187Y2000687D01*
X3378000D02*
X3397500Y2020187D01*
X3343187Y2000687D02*
X3378000D01*
Y2650000D02*
X3397500Y2630500D01*
X3013250Y2580750D02*
Y2726750D01*
X3010000Y2730000D02*
X3013250Y2726750D01*
X2889562Y2577562D02*
Y2732438D01*
X2889625Y2732500D01*
X3270500Y2577500D02*
Y2699500D01*
X3210000Y2760000D02*
X3270500Y2699500D01*
X2641031Y2583031D02*
Y2709402D01*
X2635500Y2577500D02*
X2641031Y2583031D01*
X3143500Y2577500D02*
Y2719735D01*
X3130000Y2733235D02*
X3143500Y2719735D01*
X3342500Y2650000D02*
X3378000D01*
X3397500Y2577500D02*
Y2630500D01*
X3013250Y2580750D02*
X3016500Y2577500D01*
X2889500D02*
X2889562Y2577562D01*
X3010000Y1922500D02*
X3013250Y1925750D01*
Y2079250D01*
X3016500Y2082500D01*
X3540000Y1137500D02*
Y1206998D01*
X3130000Y2733235D02*
Y2740000D01*
X2641031Y2709402D02*
X2645814Y2714185D01*
X2862500Y1162575D02*
Y1564787D01*
Y1162575D02*
X2987575Y1037500D01*
X3387500Y2760000D02*
X3420000Y2792500D01*
Y2830000D01*
X3182500Y2980000D02*
X3260000D01*
X1180000Y4112500D02*
Y4190000D01*
X1190000Y3705000D02*
X1340000D01*
X1180000Y3715000D02*
X1190000Y3705000D01*
X1297500Y1050000D02*
X1300000Y1047500D01*
X1233438Y1082064D02*
X1265502Y1050000D01*
X1228655Y1115411D02*
X1233438Y1110628D01*
Y1082064D02*
Y1110628D01*
X1265502Y1050000D02*
X1297500D01*
X746500Y3837250D02*
X765500Y3856250D01*
X656765Y3820000D02*
X674015Y3837250D01*
X746500D01*
X650000Y3820000D02*
X656765D01*
X250000Y4275000D02*
X255000Y4270000D01*
X250000Y4275000D02*
Y4340000D01*
X3427497Y1239624D02*
X3444065D01*
X3427123Y1228823D02*
Y1239998D01*
X2322500Y1155000D02*
X2375000Y1207500D01*
X3317549Y4440000D02*
X3551549Y4674000D01*
X3563000D01*
X3130000Y4440000D02*
X3317549D01*
X2270000Y2690000D02*
Y2772500D01*
X2277500Y2780000D01*
X3467500Y1215000D02*
Y1216189D01*
Y1215000D02*
X3475000Y1207500D01*
X417140Y3173867D02*
X419074Y3171933D01*
X3444065Y1239624D02*
X3467500Y1216189D01*
X3427123Y1239998D02*
X3427497Y1239624D01*
X2227500Y1190503D02*
X2268003Y1150000D01*
X960000Y2130000D02*
X1320000D01*
X560000Y1730000D02*
X960000Y2130000D01*
X2950000Y4147500D02*
X3163500D01*
X3436000Y4420000D01*
X880000Y3205000D02*
X885000Y3210000D01*
X2268003Y1150000D02*
X2320000D01*
X2690000Y4000000D02*
X3130000Y4440000D01*
X1870000Y1425000D02*
X1935784D01*
X1952500Y1408284D01*
X2030000Y1295000D02*
X2263284D01*
X2275000Y1283284D01*
Y1225000D02*
Y1283284D01*
X2987575Y1037500D02*
X3260000D01*
X2320000Y1150000D02*
X2340735D01*
X2360735Y1170000D01*
X2367500D01*
X2322500Y1155000D02*
Y1222500D01*
X2320000Y1150000D02*
Y1152500D01*
X2322500Y1155000D01*
X3372500Y1192500D02*
X3375000Y1190000D01*
X3372500Y1192500D02*
Y1241079D01*
X3427123Y1228823D02*
X3427497Y1228449D01*
X3425000Y1190000D02*
X3427497Y1192497D01*
Y1228449D01*
X3475000Y1190000D02*
Y1207500D01*
X3180000Y2977500D02*
X3182500Y2980000D01*
X2227500Y1190503D02*
Y1222500D01*
X2225000Y1225000D02*
X2227500Y1222500D01*
X2375000Y1207500D02*
Y1225000D01*
X2322500Y1222500D02*
X2325000Y1225000D01*
X4326000Y3220000D02*
X4620000D01*
X4320000Y3226000D02*
X4326000Y3220000D01*
X4320000Y3353000D02*
X4327000Y3360000D01*
X4600000D01*
X4320000Y3607000D02*
X4323000Y3610000D01*
X4610000D01*
X3909000Y3230000D02*
X3913000Y3226000D01*
X3660000Y3230000D02*
X3909000D01*
D34*
X1069500Y3358000D02*
X2052999D01*
X1004500Y3234500D02*
X1082000Y3312000D01*
X2113000D02*
X2125000Y3300000D01*
X1082000Y3312000D02*
X2113000D01*
X980000Y3447500D02*
X1069500Y3358000D01*
X2052999D02*
X2063000Y3368000D01*
X2113000D01*
X2125000Y3380000D01*
X997000Y3234500D02*
X1004500D01*
X980000Y3217500D02*
X997000Y3234500D01*
X899669Y3309500D02*
X948000Y3261169D01*
X422773Y3309500D02*
X899669D01*
X948000Y3249500D02*
Y3261169D01*
Y3249500D02*
X980000Y3217500D01*
Y3210000D02*
Y3217500D01*
X417140Y3303867D02*
X422773Y3309500D01*
X498309Y3356867D02*
X499676Y3355500D01*
X888000D01*
X424140Y3361867D02*
X481871D01*
X417140Y3368867D02*
X424140Y3361867D01*
X486871Y3356867D02*
X498309D01*
X481871Y3361867D02*
X486871Y3356867D01*
X888000Y3355500D02*
X980000Y3447500D01*
Y3455000D01*
D35*
X2122500Y3702500D02*
X2125000Y3700000D01*
X3020000Y3135000D02*
X3167500D01*
X3182500Y3120000D01*
X2371250Y3866250D02*
Y4058750D01*
X2372500Y4060000D01*
X2360000Y4072500D02*
X2372500Y4060000D01*
X3015000Y3140000D02*
X3020000Y3135000D01*
X2370000Y3865000D02*
X2371250Y3866250D01*
X1960000Y3702500D02*
X2122500D01*
X1935000Y3727500D02*
X1960000Y3702500D01*
X3680000Y1294853D02*
Y1357500D01*
X3505000Y1887500D02*
Y1892500D01*
X3522500Y1910000D01*
X3362500Y1807500D02*
X3445710D01*
X3475000Y1857500D02*
X3505000Y1887500D01*
X3677500Y1360000D02*
X3680000Y1357500D01*
X2445000Y1897500D02*
Y2082000D01*
X2422500Y2667500D02*
X2444000Y2646000D01*
X2444500Y2082500D02*
X2445000Y2082000D01*
X2422500Y2667500D02*
Y2780000D01*
X2445000Y1897500D02*
X2462500Y1880000D01*
X2540000D01*
X3445710Y1807500D02*
X3475000Y1836790D01*
Y1857500D01*
X3522500Y1910000D02*
X3524000Y1911500D01*
Y2082000D01*
X3524500Y2082500D01*
X3522500Y1910000D02*
X3677500D01*
X3678125Y1755126D02*
Y1909375D01*
Y1755126D02*
X3678751Y1754501D01*
X3677500Y1910000D02*
X3678125Y1909375D01*
X3677500Y1360000D02*
X3678125Y1360625D01*
Y1524875D01*
X3678750Y1525500D01*
X3525000Y2752500D02*
X3532500Y2760000D01*
X3525000Y2578000D02*
Y2752500D01*
X3524500Y2577500D02*
X3525000Y2578000D01*
X3532500Y2760000D02*
X3600000D01*
X4320000Y3099000D02*
X4321000Y3100000D01*
X4480000D01*
X3182500Y3120000D02*
X3260000D01*
X1340000Y3855000D02*
Y3930000D01*
X1182500Y3970000D02*
X1270000D01*
X1180000Y3967500D02*
X1182500Y3970000D01*
X1164750Y3952250D02*
X1180000Y3967500D01*
X994501Y3951250D02*
X995501Y3952250D01*
X1164750D01*
X1710000Y3730000D02*
X1787500D01*
X1790000Y3727500D01*
X1935000D01*
X1930000D02*
X1935000D01*
X375000Y4260000D02*
X385000Y4270000D01*
X375000Y4231789D02*
Y4260000D01*
X310000Y4166789D02*
X375000Y4231789D01*
X310000Y4065000D02*
Y4166789D01*
X2440000Y2760000D02*
X2530000D01*
X2422500Y2777500D02*
X2440000Y2760000D01*
X2360000Y4072500D02*
Y4150000D01*
X606419Y3753867D02*
X681537Y3678750D01*
X310000Y3915000D02*
X471132Y3753867D01*
X1035500Y3762250D02*
X1123250Y3850000D01*
X1150000D01*
X471132Y3753867D02*
X606419D01*
X681537Y3678750D02*
X765500D01*
X778750Y3625500D02*
Y3665500D01*
D36*
X2422500Y877500D02*
X2430000Y870000D01*
X2370000Y877500D02*
X2422500D01*
D37*
X551875Y3949375D02*
X767375D01*
X550000Y3947500D02*
X551875Y3949375D01*
X767375D02*
X769500Y3947250D01*
X765500Y3761250D02*
X769500Y3765250D01*
Y3947250D02*
X811500D01*
X417140Y3433867D02*
X776368D01*
X811500Y3947250D02*
X828501Y3930250D01*
X833893Y3765250D02*
X881500Y3812857D01*
X790000Y3447500D02*
Y3614250D01*
X776368Y3433867D02*
X790000Y3447500D01*
X769500Y3765250D02*
X833893D01*
X828501Y3930250D02*
X850893D01*
X881500Y3899643D01*
Y3812857D02*
Y3899643D01*
X765500Y3678750D02*
Y3761250D01*
Y3678750D02*
X778750Y3665500D01*
Y3625500D02*
X790000Y3614250D01*
D38*
X4400000Y4700000D02*
D03*
X300000Y600000D02*
D03*
X4400000D02*
D03*
X300000Y4700000D02*
D03*
D39*
X149640Y2973867D02*
D03*
Y3633867D02*
D03*
D40*
X3817000Y4674000D02*
D03*
X2634000Y4690000D02*
D03*
X1507000Y4674000D02*
D03*
D41*
X3690000Y4420000D02*
D03*
X3563000Y4674000D02*
D03*
X3436000Y4420000D02*
D03*
X560000Y1730000D02*
D03*
X306000Y1603000D02*
D03*
X560000Y1476000D02*
D03*
X2507000Y4436000D02*
D03*
X2380000Y4690000D02*
D03*
X2253000Y4436000D02*
D03*
X1380000Y4420000D02*
D03*
X1253000Y4674000D02*
D03*
X1126000Y4420000D02*
D03*
D42*
X3957000Y4494000D02*
D03*
X486000Y1997000D02*
D03*
X2774000Y4510000D02*
D03*
X1647000Y4494000D02*
D03*
D43*
X306000Y1857000D02*
D03*
D44*
X2320000Y3680000D02*
D03*
X2335593Y3290754D02*
D03*
X2716757Y3103802D02*
D03*
X2450000Y3430000D02*
D03*
X2898803Y3255443D02*
D03*
X2887123Y3377123D02*
D03*
X2239765Y3660000D02*
D03*
X2281706Y3235521D02*
D03*
X2470000Y3590000D02*
D03*
X1930000Y3940000D02*
D03*
X1790000Y3950000D02*
D03*
X2160000Y4060000D02*
D03*
X2830000Y3670000D02*
D03*
X3260000Y770000D02*
D03*
X3330000Y980000D02*
D03*
X3269993Y979998D02*
D03*
X2160000Y790000D02*
D03*
Y860000D02*
D03*
Y1012500D02*
D03*
X2460000Y3970000D02*
D03*
X930000Y1480000D02*
D03*
X2100000Y1430000D02*
D03*
X1870000Y1230000D02*
D03*
X3010000Y1440000D02*
D03*
X3150000Y1450000D02*
D03*
X3830000Y1280000D02*
D03*
X3680000Y1294853D02*
D03*
X3627911Y1035000D02*
D03*
X3310000Y1900000D02*
D03*
X3362500Y1807500D02*
D03*
X2670000Y1070000D02*
D03*
X2870000Y3110000D02*
D03*
X2450000Y1670000D02*
D03*
X1550000Y1950000D02*
D03*
X2850000Y3980000D02*
D03*
X1550000Y2700000D02*
D03*
X880000Y3140000D02*
D03*
X500000Y3170000D02*
D03*
X550000Y4170000D02*
D03*
X3320000Y840000D02*
D03*
X3460000Y830000D02*
D03*
X3530000D02*
D03*
X3540000Y760000D02*
D03*
X3520000Y980000D02*
D03*
X3460000D02*
D03*
X1110000Y990000D02*
D03*
X1040000D02*
D03*
X1310000D02*
D03*
X1290000Y830000D02*
D03*
X1220000Y840000D02*
D03*
X1110000D02*
D03*
X1030000D02*
D03*
X1309997Y769998D02*
D03*
X3630000Y3420000D02*
D03*
X3290000Y1200000D02*
D03*
X1150000Y1550000D02*
D03*
X1090000Y1260000D02*
D03*
X1210000Y1250000D02*
D03*
X2690000Y2050000D02*
D03*
X2370000Y2022500D02*
D03*
X2540000Y1880000D02*
D03*
X2890000Y1960000D02*
D03*
X2000000Y1860000D02*
D03*
X1130000Y1970000D02*
D03*
X3250000Y3540000D02*
D03*
X4100000Y1800000D02*
D03*
X3890000Y1900000D02*
D03*
X3770000Y1440000D02*
D03*
X3342500Y2000000D02*
D03*
X3010000Y1922500D02*
D03*
X3420000Y2830000D02*
D03*
X3600000Y2760000D02*
D03*
X3342500Y2650000D02*
D03*
X4480000Y3100000D02*
D03*
X3260000Y2980000D02*
D03*
Y3120000D02*
D03*
X1340000Y3930000D02*
D03*
X1270000Y3970000D02*
D03*
X1180000Y4190000D02*
D03*
X1710000Y3730000D02*
D03*
X1260000Y990000D02*
D03*
X2430000Y1012500D02*
D03*
X2250000D02*
D03*
X3260000Y840000D02*
D03*
X2250000Y870000D02*
D03*
X2360000D02*
D03*
X2430000D02*
D03*
Y800000D02*
D03*
X1020000Y770000D02*
D03*
X1228655Y1115411D02*
D03*
X650000Y3820000D02*
D03*
X4440000Y990000D02*
D03*
X4540000Y1170000D02*
D03*
X4640000D02*
D03*
X4440000D02*
D03*
X4540000Y990000D02*
D03*
X4640000D02*
D03*
Y1080000D02*
D03*
X4440000D02*
D03*
X4540000D02*
D03*
X4550000Y1570000D02*
D03*
X250000Y4340000D02*
D03*
X2330000Y1012500D02*
D03*
X2270000Y2690000D02*
D03*
X2530000Y2760000D02*
D03*
X2529768Y2892500D02*
D03*
X2360000Y4150000D02*
D03*
X3429993Y1239998D02*
D03*
X2645814Y2714185D02*
D03*
X2344948Y2697448D02*
D03*
X2189996Y2699995D02*
D03*
X2950000Y4147500D02*
D03*
X2910000Y2930000D02*
D03*
X3010000Y2730000D02*
D03*
X1320000Y2130000D02*
D03*
X2889625Y2732500D02*
D03*
X3210000Y2760000D02*
D03*
X3130000Y2740000D02*
D03*
X2156973Y2766973D02*
D03*
X2367500Y1170000D02*
D03*
X1989996Y2849994D02*
D03*
X2690000Y4000000D02*
D03*
X4620000Y3220000D02*
D03*
X4600000Y3360000D02*
D03*
X4610000Y3610000D02*
D03*
X2860000Y3480000D02*
D03*
X2820000Y3570000D02*
D03*
X3660000Y3230000D02*
D03*
X1920000Y3090000D02*
D03*
X2050000Y2780000D02*
D03*
X4450000Y1470000D02*
D03*
Y1570000D02*
D03*
Y1670000D02*
D03*
X4550000D02*
D03*
Y1470000D02*
D03*
X4650000D02*
D03*
Y1570000D02*
D03*
Y1670000D02*
D03*
%TF.MD5,4244060cfe2450a470e43531f8ad693d*%
M02*
