%TF.GenerationSoftware,Altium Limited,Altium Designer,22.10.1 (41)*%
G04 Layer_Color=0*
%FSLAX45Y45*%
%MOMM*%
%TF.SameCoordinates,087233EE-98F5-4CDC-9370-A7D44EC71BE6*%
%TF.FilePolarity,Positive*%
%TF.FileFunction,Plated,1,4,PTH,Drill*%
%TF.Part,Single*%
G01*
G75*
%TA.AperFunction,ComponentDrill*%
%ADD89O,1.20000X0.50000*%
%ADD90C,0.85000*%
%ADD91C,0.85000*%
%TA.AperFunction,ViaDrill,NotFilled*%
%ADD92C,0.20000*%
D89*
X149640Y2973867D02*
D03*
Y3633867D02*
D03*
D90*
X3817000Y4674000D02*
D03*
X3690000Y4420000D02*
D03*
X3563000Y4674000D02*
D03*
X3436000Y4420000D02*
D03*
X2634000Y4690000D02*
D03*
X2507000Y4436000D02*
D03*
X2380000Y4690000D02*
D03*
X2253000Y4436000D02*
D03*
X1507000Y4674000D02*
D03*
X1380000Y4420000D02*
D03*
X1253000Y4674000D02*
D03*
X1126000Y4420000D02*
D03*
D91*
X306000Y1857000D02*
D03*
X560000Y1730000D02*
D03*
X306000Y1603000D02*
D03*
X560000Y1476000D02*
D03*
D92*
X3680000Y1260000D02*
D03*
X3810000D02*
D03*
X3630000Y3420000D02*
D03*
X3290000Y1200000D02*
D03*
X3150000Y1470000D02*
D03*
X910000Y1480000D02*
D03*
X1150000Y1550000D02*
D03*
X1090000Y1260000D02*
D03*
X1210000Y1250000D02*
D03*
X2690000Y2050000D02*
D03*
X2370000Y2022500D02*
D03*
X2540000Y1880000D02*
D03*
X2890000Y1960000D02*
D03*
X2000000Y1860000D02*
D03*
X1130000Y1970000D02*
D03*
X3250000Y3540000D02*
D03*
X4100000Y1800000D02*
D03*
X3890000Y1900000D02*
D03*
X3770000Y1440000D02*
D03*
X3300000Y1930000D02*
D03*
X3342500Y2000000D02*
D03*
X3270000Y1850000D02*
D03*
X3010000Y1922500D02*
D03*
X3420000Y2830000D02*
D03*
X3600000Y2760000D02*
D03*
X3342500Y2650000D02*
D03*
X4480000Y3100000D02*
D03*
X3260000Y2980000D02*
D03*
Y3120000D02*
D03*
X1340000Y3930000D02*
D03*
X1270000Y3970000D02*
D03*
X1180000Y4190000D02*
D03*
X1710000Y3730000D02*
D03*
X3470000Y980000D02*
D03*
X3550000D02*
D03*
X3350000D02*
D03*
X3280000D02*
D03*
X1220000Y990000D02*
D03*
X2430000Y1012500D02*
D03*
X2150000D02*
D03*
X2250000D02*
D03*
X3270000Y830000D02*
D03*
X3530000Y760000D02*
D03*
Y830000D02*
D03*
X3450000D02*
D03*
X3360000D02*
D03*
X3270000Y760000D02*
D03*
X1230000Y840000D02*
D03*
X2250000Y870000D02*
D03*
X2360000D02*
D03*
X2430000D02*
D03*
Y800000D02*
D03*
X2160000D02*
D03*
X1100000Y840000D02*
D03*
X1020000Y770000D02*
D03*
Y840000D02*
D03*
X1300000D02*
D03*
Y770000D02*
D03*
X1228655Y1115411D02*
D03*
X650000Y3820000D02*
D03*
X4440000Y990000D02*
D03*
X4540000Y1170000D02*
D03*
X4640000D02*
D03*
X4440000D02*
D03*
X4540000Y990000D02*
D03*
X4640000D02*
D03*
Y1080000D02*
D03*
X4440000D02*
D03*
X4540000D02*
D03*
X4550000Y1570000D02*
D03*
X250000Y4340000D02*
D03*
X3653006Y1095234D02*
D03*
X2160000Y870000D02*
D03*
X2330000Y1012500D02*
D03*
X1020000Y990000D02*
D03*
X1100000D02*
D03*
X1290000D02*
D03*
X2270000Y2690000D02*
D03*
X2530000Y2760000D02*
D03*
X2529768Y2892500D02*
D03*
X2360000Y4150000D02*
D03*
X3429993Y1239998D02*
D03*
X550000Y4260000D02*
D03*
X2645814Y2714185D02*
D03*
X2344948Y2697448D02*
D03*
X2189996Y2699995D02*
D03*
X2580000Y1160000D02*
D03*
X2950000Y4147500D02*
D03*
X2850000Y4030000D02*
D03*
X1780000Y4072500D02*
D03*
X2100030Y4107500D02*
D03*
X1870000Y4010000D02*
D03*
X880000Y3120000D02*
D03*
X3010000Y1470000D02*
D03*
X2450000Y1620000D02*
D03*
X2420000Y3420000D02*
D03*
X2720000Y3110000D02*
D03*
X2910000Y2930000D02*
D03*
X3010000Y2730000D02*
D03*
X1320000Y2130000D02*
D03*
X2889625Y2732500D02*
D03*
X1560000Y1900000D02*
D03*
X3210000Y2760000D02*
D03*
X3130000Y2740000D02*
D03*
X2156973Y2766973D02*
D03*
X2367500Y1170000D02*
D03*
X1870000Y1190000D02*
D03*
X570000Y3170000D02*
D03*
X1989996Y2849994D02*
D03*
X2470000Y3980000D02*
D03*
X1550000Y2820000D02*
D03*
X2300000Y3250000D02*
D03*
X2690000Y4000000D02*
D03*
X2340000Y3730000D02*
D03*
X4620000Y3220000D02*
D03*
X4600000Y3360000D02*
D03*
X4610000Y3610000D02*
D03*
X2870000Y3210000D02*
D03*
X2950000Y3040000D02*
D03*
X2830000Y3670000D02*
D03*
X2860000Y3480000D02*
D03*
X2820000Y3570000D02*
D03*
X3660000Y3230000D02*
D03*
X1920000Y3090000D02*
D03*
X2050000Y2780000D02*
D03*
X2880000Y3370000D02*
D03*
X4450000Y1470000D02*
D03*
Y1570000D02*
D03*
Y1670000D02*
D03*
X4550000D02*
D03*
Y1470000D02*
D03*
X4650000D02*
D03*
Y1570000D02*
D03*
Y1670000D02*
D03*
%TF.MD5,177c62148546df8ab377dad88d8c5f64*%
M02*
