%TF.GenerationSoftware,Altium Limited,Altium Designer,22.10.1 (41)*%
G04 Layer_Color=128*
%FSLAX45Y45*%
%MOMM*%
%TF.SameCoordinates,5B9C486D-D5A6-494F-ABD5-4A95DA49E213*%
%TF.FilePolarity,Positive*%
%TF.FileFunction,Paste,Bot*%
%TF.Part,Single*%
G01*
G75*
%TA.AperFunction,SMDPad,CuDef*%
%ADD14R,1.05000X0.95000*%
%ADD52R,1.50822X1.40574*%
%ADD53R,1.62000X0.60000*%
G36*
X4284000Y1497000D02*
Y1343000D01*
X4427000D01*
Y1497000D01*
X4284000D01*
D02*
G37*
G36*
X4513000D02*
Y1343000D01*
X4656000D01*
Y1497000D01*
X4513000D01*
D02*
G37*
G36*
X4284000Y1737000D02*
Y1583000D01*
X4427000D01*
Y1737000D01*
X4284000D01*
D02*
G37*
G36*
X4513000D02*
Y1583000D01*
X4656000D01*
Y1737000D01*
X4513000D01*
D02*
G37*
D14*
X2350000Y1002500D02*
D03*
Y857500D02*
D03*
X3290000Y837500D02*
D03*
Y982500D02*
D03*
X1110000Y857500D02*
D03*
Y1002500D02*
D03*
D52*
X3760000Y1012624D02*
D03*
Y827376D02*
D03*
X3510000Y1012624D02*
D03*
Y827376D02*
D03*
X3060000Y1012624D02*
D03*
Y827376D02*
D03*
X4000000Y1012624D02*
D03*
Y827376D02*
D03*
X2790000Y1012624D02*
D03*
Y827376D02*
D03*
X2550000Y1012624D02*
D03*
Y827376D02*
D03*
X2100000Y1002624D02*
D03*
Y817376D02*
D03*
X1830000Y1002624D02*
D03*
Y817376D02*
D03*
X1330000Y1002624D02*
D03*
Y817376D02*
D03*
X930000Y1012624D02*
D03*
Y827376D02*
D03*
X1560000Y1002624D02*
D03*
Y817376D02*
D03*
X720000Y1012624D02*
D03*
Y827376D02*
D03*
D53*
X4099000Y1603500D02*
D03*
Y1476500D02*
D03*
Y1349500D02*
D03*
Y1730500D02*
D03*
%TF.MD5,20df5e04134eaa52029ce2edfd94f0d0*%
M02*
