%TF.GenerationSoftware,Altium Limited,Altium Designer,22.10.1 (41)*%
G04 Layer_Color=8421504*
%FSLAX45Y45*%
%MOMM*%
%TF.SameCoordinates,79C1CFBE-EB9A-408B-862A-4DB21413197E*%
%TF.FilePolarity,Positive*%
%TF.FileFunction,Paste,Top*%
%TF.Part,Single*%
G01*
G75*
%TA.AperFunction,SMDPad,CuDef*%
%ADD10R,0.50000X1.50000*%
%ADD11R,1.50000X0.50000*%
%ADD12R,0.80000X0.80000*%
%ADD13R,0.80000X0.80000*%
%ADD14R,0.95000X0.80000*%
G04:AMPARAMS|DCode=15|XSize=1.97mm|YSize=0.59mm|CornerRadius=0.07375mm|HoleSize=0mm|Usage=FLASHONLY|Rotation=270.000|XOffset=0mm|YOffset=0mm|HoleType=Round|Shape=RoundedRectangle|*
%AMROUNDEDRECTD15*
21,1,1.97000,0.44250,0,0,270.0*
21,1,1.82250,0.59000,0,0,270.0*
1,1,0.14750,-0.22125,-0.91125*
1,1,0.14750,-0.22125,0.91125*
1,1,0.14750,0.22125,0.91125*
1,1,0.14750,0.22125,-0.91125*
%
%ADD15ROUNDEDRECTD15*%
%ADD16R,1.05000X0.95000*%
%ADD17R,0.95000X1.05000*%
%ADD18R,3.00000X3.00000*%
%TA.AperFunction,SMDPad,SMDef*%
G04:AMPARAMS|DCode=22|XSize=0.25mm|YSize=0.6mm|CornerRadius=0.05mm|HoleSize=0mm|Usage=FLASHONLY|Rotation=0.000|XOffset=0mm|YOffset=0mm|HoleType=Round|Shape=RoundedRectangle|*
%AMROUNDEDRECTD22*
21,1,0.25000,0.50000,0,0,0.0*
21,1,0.15000,0.60000,0,0,0.0*
1,1,0.10000,0.07500,-0.25000*
1,1,0.10000,-0.07500,-0.25000*
1,1,0.10000,-0.07500,0.25000*
1,1,0.10000,0.07500,0.25000*
%
%ADD22ROUNDEDRECTD22*%
G04:AMPARAMS|DCode=23|XSize=0.6mm|YSize=0.25mm|CornerRadius=0.05mm|HoleSize=0mm|Usage=FLASHONLY|Rotation=0.000|XOffset=0mm|YOffset=0mm|HoleType=Round|Shape=RoundedRectangle|*
%AMROUNDEDRECTD23*
21,1,0.60000,0.15000,0,0,0.0*
21,1,0.50000,0.25000,0,0,0.0*
1,1,0.10000,0.25000,-0.07500*
1,1,0.10000,-0.25000,-0.07500*
1,1,0.10000,-0.25000,0.07500*
1,1,0.10000,0.25000,0.07500*
%
%ADD23ROUNDEDRECTD23*%
%TA.AperFunction,SMDPad,CuDef*%
G04:AMPARAMS|DCode=24|XSize=1.42mm|YSize=0.58mm|CornerRadius=0.0725mm|HoleSize=0mm|Usage=FLASHONLY|Rotation=0.000|XOffset=0mm|YOffset=0mm|HoleType=Round|Shape=RoundedRectangle|*
%AMROUNDEDRECTD24*
21,1,1.42000,0.43500,0,0,0.0*
21,1,1.27500,0.58000,0,0,0.0*
1,1,0.14500,0.63750,-0.21750*
1,1,0.14500,-0.63750,-0.21750*
1,1,0.14500,-0.63750,0.21750*
1,1,0.14500,0.63750,0.21750*
%
%ADD24ROUNDEDRECTD24*%
G04:AMPARAMS|DCode=25|XSize=1.42mm|YSize=0.58mm|CornerRadius=0.0725mm|HoleSize=0mm|Usage=FLASHONLY|Rotation=90.000|XOffset=0mm|YOffset=0mm|HoleType=Round|Shape=RoundedRectangle|*
%AMROUNDEDRECTD25*
21,1,1.42000,0.43500,0,0,90.0*
21,1,1.27500,0.58000,0,0,90.0*
1,1,0.14500,0.21750,0.63750*
1,1,0.14500,0.21750,-0.63750*
1,1,0.14500,-0.21750,-0.63750*
1,1,0.14500,-0.21750,0.63750*
%
%ADD25ROUNDEDRECTD25*%
%ADD26R,1.90000X1.90000*%
%ADD27R,1.40000X1.60000*%
%ADD28R,1.35000X0.40000*%
%ADD29R,0.80000X0.95000*%
%ADD30R,2.79000X0.74000*%
%ADD31R,0.60000X0.75000*%
%ADD32R,3.00000X3.00000*%
G36*
X2285332Y1034239D02*
X2286739Y1032832D01*
X2287500Y1030994D01*
X2287500Y1030000D01*
X2287500Y1030000D01*
X2287500Y1000000D01*
X2287500Y999005D01*
X2286739Y997168D01*
X2285332Y995761D01*
X2283495Y995000D01*
X2165000D01*
Y1002500D01*
X2135000Y1002500D01*
X2134005D01*
X2132168Y1003261D01*
X2130761Y1004668D01*
X2130000Y1006506D01*
Y1007500D01*
Y1022500D01*
Y1023494D01*
X2130761Y1025332D01*
X2132168Y1026738D01*
X2134005Y1027500D01*
X2135000D01*
X2135000Y1027500D01*
X2165000Y1027500D01*
Y1035000D01*
X2282500Y1035000D01*
X2283495Y1035000D01*
X2285332Y1034239D01*
D02*
G37*
G36*
X1145332Y1009239D02*
X1146739Y1007832D01*
X1147500Y1005994D01*
X1147500Y1005000D01*
X1147500Y1005000D01*
X1147500Y975000D01*
X1147500Y974005D01*
X1146739Y972168D01*
X1145332Y970761D01*
X1143495Y970000D01*
X1025000D01*
Y977500D01*
X995000Y977500D01*
X994005D01*
X992168Y978261D01*
X990761Y979668D01*
X990000Y981506D01*
Y982500D01*
Y997500D01*
Y998494D01*
X990761Y1000332D01*
X992168Y1001738D01*
X994005Y1002500D01*
X995000D01*
X995000Y1002500D01*
X1025000Y1002500D01*
Y1010000D01*
X1142500Y1010000D01*
X1143495Y1010000D01*
X1145332Y1009239D01*
D02*
G37*
G36*
X1295000Y1002503D02*
X1325000Y1002503D01*
X1325994D01*
X1327832Y1001742D01*
X1329239Y1000335D01*
X1330000Y998497D01*
Y997503D01*
X1330000D01*
X1330000Y982503D01*
Y981509D01*
X1329238Y979671D01*
X1327832Y978265D01*
X1325994Y977504D01*
X1325000D01*
Y977503D01*
X1295000D01*
Y970003D01*
X1177500D01*
X1176505Y970003D01*
X1174667Y970764D01*
X1173261Y972171D01*
X1172500Y974008D01*
X1172500Y975003D01*
Y975003D01*
Y1005003D01*
X1172500Y1005998D01*
X1173261Y1007835D01*
X1174667Y1009242D01*
X1176505Y1010003D01*
X1177500D01*
X1177500Y1010003D01*
X1295000D01*
Y1002503D01*
D02*
G37*
G36*
X2285335Y964237D02*
X2286741Y962831D01*
X2287502Y960993D01*
X2287502Y959998D01*
X2287502D01*
X2287502Y929998D01*
X2287502Y929004D01*
X2286741Y927166D01*
X2285335Y925759D01*
X2283497Y924998D01*
X2165002D01*
Y932499D01*
X2134008D01*
X2132170Y933260D01*
X2130763Y934666D01*
X2130002Y936504D01*
Y937499D01*
Y952498D01*
Y953493D01*
X2130764Y955330D01*
X2132170Y956737D01*
X2134008Y957498D01*
X2135002D01*
X2135002Y957498D01*
X2165002Y957498D01*
Y964998D01*
X2282502D01*
X2283497Y964999D01*
X2285335Y964237D01*
D02*
G37*
G36*
X1295000Y932502D02*
X1325000Y932501D01*
X1325994D01*
X1327832Y931740D01*
X1329239Y930334D01*
X1330000Y928496D01*
Y927501D01*
X1330000Y927502D01*
X1330000Y912502D01*
Y911507D01*
X1329238Y909670D01*
X1327832Y908263D01*
X1325994Y907502D01*
X1325000D01*
X1295000Y907502D01*
Y900002D01*
X1177500Y900002D01*
X1176505Y900001D01*
X1174667Y900762D01*
X1173261Y902169D01*
X1172500Y904007D01*
X1172500Y905001D01*
Y905002D01*
Y935001D01*
X1172500Y935996D01*
X1173261Y937834D01*
X1174667Y939240D01*
X1176505Y940001D01*
X1177500D01*
X1177500Y940002D01*
X1295000D01*
Y932502D01*
D02*
G37*
G36*
X1145335Y939237D02*
X1146741Y937831D01*
X1147502Y935993D01*
X1147502Y934998D01*
X1147502D01*
X1147502Y904998D01*
X1147502Y904004D01*
X1146741Y902166D01*
X1145335Y900759D01*
X1143497Y899998D01*
X1025002D01*
Y907499D01*
X994008D01*
X992170Y908260D01*
X990763Y909666D01*
X990002Y911504D01*
Y912499D01*
Y927498D01*
Y928493D01*
X990764Y930330D01*
X992170Y931737D01*
X994008Y932498D01*
X995002D01*
X995002Y932498D01*
X1025002Y932499D01*
Y939998D01*
X1142502D01*
X1143497Y939999D01*
X1145335Y939237D01*
D02*
G37*
G36*
X2285332Y894239D02*
X2286739Y892832D01*
X2287500Y890994D01*
X2287500Y890000D01*
X2287500Y890000D01*
X2287500Y860000D01*
X2287500Y859005D01*
X2286739Y857168D01*
X2285332Y855761D01*
X2283495Y855000D01*
X2165000D01*
Y862500D01*
X2135000Y862500D01*
X2134005D01*
X2132168Y863261D01*
X2130761Y864668D01*
X2130000Y866506D01*
Y867500D01*
Y882500D01*
Y883494D01*
X2130761Y885332D01*
X2132168Y886738D01*
X2134005Y887500D01*
X2135000D01*
X2135000Y887500D01*
X2165000Y887500D01*
Y895000D01*
X2282500Y895000D01*
X2283495Y895000D01*
X2285332Y894239D01*
D02*
G37*
G36*
X1145332Y869239D02*
X1146739Y867832D01*
X1147500Y865994D01*
X1147500Y865000D01*
X1147500Y865000D01*
X1147500Y835000D01*
X1147500Y834005D01*
X1146739Y832168D01*
X1145332Y830761D01*
X1143495Y830000D01*
X1025000D01*
Y837500D01*
X995000Y837500D01*
X994005D01*
X992168Y838261D01*
X990761Y839668D01*
X990000Y841506D01*
Y842500D01*
Y857500D01*
Y858494D01*
X990761Y860332D01*
X992168Y861738D01*
X994005Y862500D01*
X995000D01*
X995000Y862500D01*
X1025000Y862500D01*
Y870000D01*
X1142500Y870000D01*
X1143495Y870000D01*
X1145332Y869239D01*
D02*
G37*
G36*
X1295000Y862500D02*
X1325000Y862500D01*
X1325994D01*
X1327832Y861738D01*
X1329239Y860332D01*
X1330000Y858494D01*
Y857500D01*
X1330000Y857500D01*
X1330000Y842500D01*
Y841506D01*
X1329238Y839668D01*
X1327832Y838261D01*
X1325994Y837500D01*
X1325000D01*
X1295000Y837500D01*
Y830000D01*
X1177500D01*
X1176505Y830000D01*
X1174667Y830761D01*
X1173261Y832168D01*
X1172500Y834005D01*
X1172500Y835000D01*
Y865000D01*
X1172500Y865994D01*
X1173261Y867832D01*
X1174667Y869239D01*
X1176505Y870000D01*
X1177500D01*
X1177500Y870000D01*
X1295000D01*
Y862500D01*
D02*
G37*
G36*
X2285332Y834239D02*
X2286739Y832832D01*
X2287500Y830995D01*
Y830000D01*
Y770000D01*
Y769005D01*
X2286739Y767168D01*
X2285332Y765761D01*
X2283494Y765000D01*
X2266505D01*
X2264668Y765761D01*
X2263261Y767168D01*
X2262500Y769005D01*
Y770000D01*
Y830000D01*
Y830995D01*
X2263261Y832832D01*
X2264668Y834239D01*
X2266505Y835000D01*
X2283494D01*
X2285332Y834239D01*
D02*
G37*
G36*
X2235332D02*
X2236739Y832832D01*
X2237500Y830995D01*
Y830000D01*
Y770000D01*
Y769005D01*
X2236739Y767168D01*
X2235332Y765761D01*
X2233494Y765000D01*
X2216505D01*
X2214668Y765761D01*
X2213261Y767168D01*
X2212500Y769005D01*
Y770000D01*
Y830000D01*
Y830995D01*
X2213261Y832832D01*
X2214668Y834239D01*
X2216505Y835000D01*
X2233494D01*
X2235332Y834239D01*
D02*
G37*
G36*
X1245332Y809239D02*
X1246739Y807832D01*
X1247500Y805995D01*
Y805000D01*
Y745000D01*
Y744005D01*
X1246739Y742168D01*
X1245332Y740761D01*
X1243494Y740000D01*
X1226505D01*
X1224668Y740761D01*
X1223261Y742168D01*
X1222500Y744005D01*
Y745000D01*
Y805000D01*
Y805995D01*
X1223261Y807832D01*
X1224668Y809239D01*
X1226505Y810000D01*
X1243494D01*
X1245332Y809239D01*
D02*
G37*
G36*
X1195332D02*
X1196739Y807832D01*
X1197500Y805995D01*
Y805000D01*
Y745000D01*
Y744005D01*
X1196739Y742168D01*
X1195332Y740761D01*
X1193494Y740000D01*
X1176505D01*
X1174668Y740761D01*
X1173261Y742168D01*
X1172500Y744005D01*
Y745000D01*
Y805000D01*
Y805995D01*
X1173261Y807832D01*
X1174668Y809239D01*
X1176505Y810000D01*
X1193494D01*
X1195332Y809239D01*
D02*
G37*
G36*
X1145332D02*
X1146739Y807832D01*
X1147500Y805995D01*
Y805000D01*
Y745000D01*
Y744005D01*
X1146739Y742168D01*
X1145332Y740761D01*
X1143494Y740000D01*
X1126505D01*
X1124668Y740761D01*
X1123261Y742168D01*
X1122500Y744005D01*
Y745000D01*
Y805000D01*
Y805995D01*
X1123261Y807832D01*
X1124668Y809239D01*
X1126505Y810000D01*
X1143494D01*
X1145332Y809239D01*
D02*
G37*
G36*
X1095332D02*
X1096739Y807832D01*
X1097500Y805995D01*
Y805000D01*
Y745000D01*
Y744005D01*
X1096739Y742168D01*
X1095332Y740761D01*
X1093494Y740000D01*
X1076505D01*
X1074668Y740761D01*
X1073261Y742168D01*
X1072500Y744005D01*
Y745000D01*
Y805000D01*
Y805995D01*
X1073261Y807832D01*
X1074668Y809239D01*
X1076505Y810000D01*
X1093494D01*
X1095332Y809239D01*
D02*
G37*
G36*
X3385332Y999239D02*
X3386739Y997832D01*
X3387500Y995994D01*
X3387500Y995000D01*
X3387500Y995000D01*
X3387500Y965000D01*
X3387500Y964005D01*
X3386739Y962168D01*
X3385332Y960761D01*
X3383495Y960000D01*
X3265000D01*
Y967500D01*
X3235000Y967500D01*
X3234005D01*
X3232168Y968261D01*
X3230761Y969668D01*
X3230000Y971506D01*
Y972500D01*
Y987500D01*
Y988494D01*
X3230761Y990332D01*
X3232168Y991738D01*
X3234005Y992500D01*
X3235000D01*
X3235000Y992500D01*
X3265000Y992500D01*
Y1000000D01*
X3382500Y1000000D01*
X3383495Y1000000D01*
X3385332Y999239D01*
D02*
G37*
G36*
X2435000Y1027503D02*
X2465000Y1027503D01*
X2465994D01*
X2467832Y1026742D01*
X2469239Y1025335D01*
X2470000Y1023497D01*
Y1022503D01*
X2470000D01*
X2470000Y1007503D01*
Y1006509D01*
X2469238Y1004671D01*
X2467832Y1003265D01*
X2465994Y1002503D01*
X2465000D01*
Y1002503D01*
X2435000D01*
Y995003D01*
X2317500D01*
X2316505Y995003D01*
X2314667Y995764D01*
X2313261Y997171D01*
X2312500Y999008D01*
X2312500Y1000003D01*
Y1000003D01*
Y1030003D01*
X2312500Y1030998D01*
X2313261Y1032835D01*
X2314667Y1034242D01*
X2316505Y1035003D01*
X2317500D01*
X2317500Y1035003D01*
X2435000D01*
Y1027503D01*
D02*
G37*
G36*
X3535000Y992503D02*
X3565000Y992503D01*
X3565994D01*
X3567832Y991742D01*
X3569239Y990335D01*
X3570000Y988497D01*
Y987503D01*
X3570000D01*
X3570000Y972503D01*
Y971509D01*
X3569238Y969671D01*
X3567832Y968265D01*
X3565994Y967504D01*
X3565000D01*
Y967503D01*
X3535000D01*
Y960003D01*
X3417500D01*
X3416505Y960003D01*
X3414668Y960764D01*
X3413261Y962171D01*
X3412500Y964008D01*
X3412500Y965003D01*
Y965003D01*
Y995003D01*
X3412500Y995998D01*
X3413261Y997835D01*
X3414668Y999242D01*
X3416505Y1000003D01*
X3417500D01*
X3417500Y1000003D01*
X3535000D01*
Y992503D01*
D02*
G37*
G36*
X2435000Y957502D02*
X2465000Y957501D01*
X2465994D01*
X2467832Y956740D01*
X2469239Y955334D01*
X2470000Y953496D01*
Y952501D01*
X2470000Y952502D01*
X2470000Y937502D01*
Y936507D01*
X2469238Y934669D01*
X2467832Y933263D01*
X2465994Y932502D01*
X2465000D01*
X2435000Y932502D01*
Y925002D01*
X2317500Y925001D01*
X2316505Y925001D01*
X2314667Y925762D01*
X2313261Y927169D01*
X2312500Y929007D01*
X2312500Y930001D01*
Y930002D01*
Y960001D01*
X2312500Y960996D01*
X2313261Y962834D01*
X2314667Y964240D01*
X2316505Y965001D01*
X2317500D01*
X2317500Y965002D01*
X2435000D01*
Y957502D01*
D02*
G37*
G36*
X3535000Y922502D02*
X3565000Y922501D01*
X3565994D01*
X3567832Y921740D01*
X3569239Y920334D01*
X3570000Y918496D01*
Y917501D01*
X3570000Y917502D01*
X3570000Y902502D01*
Y901507D01*
X3569238Y899670D01*
X3567832Y898263D01*
X3565994Y897502D01*
X3565000D01*
X3535000Y897502D01*
Y890002D01*
X3417500Y890002D01*
X3416505Y890001D01*
X3414668Y890763D01*
X3413261Y892169D01*
X3412500Y894007D01*
X3412500Y895002D01*
Y895002D01*
Y925001D01*
X3412500Y925996D01*
X3413261Y927834D01*
X3414668Y929240D01*
X3416505Y930001D01*
X3417500D01*
X3417500Y930002D01*
X3535000D01*
Y922502D01*
D02*
G37*
G36*
X3385335Y929237D02*
X3386741Y927831D01*
X3387502Y925993D01*
X3387502Y924998D01*
X3387502D01*
X3387502Y894998D01*
X3387502Y894004D01*
X3386741Y892166D01*
X3385335Y890759D01*
X3383497Y889998D01*
X3265002D01*
Y897499D01*
X3234008D01*
X3232170Y898260D01*
X3230763Y899666D01*
X3230002Y901504D01*
Y902499D01*
Y917498D01*
Y918493D01*
X3230764Y920330D01*
X3232170Y921737D01*
X3234008Y922498D01*
X3235002D01*
X3235002Y922498D01*
X3265002Y922499D01*
Y929998D01*
X3382502D01*
X3383497Y929999D01*
X3385335Y929237D01*
D02*
G37*
G36*
X3385332Y859239D02*
X3386739Y857832D01*
X3387500Y855994D01*
X3387500Y855000D01*
X3387500Y855000D01*
X3387500Y825000D01*
X3387500Y824005D01*
X3386739Y822168D01*
X3385332Y820761D01*
X3383495Y820000D01*
X3265000D01*
Y827500D01*
X3235000Y827500D01*
X3234005D01*
X3232168Y828261D01*
X3230761Y829668D01*
X3230000Y831506D01*
Y832500D01*
Y847500D01*
Y848494D01*
X3230761Y850332D01*
X3232168Y851738D01*
X3234005Y852500D01*
X3235000D01*
X3235000Y852500D01*
X3265000Y852500D01*
Y860000D01*
X3382500Y860000D01*
X3383495Y860000D01*
X3385332Y859239D01*
D02*
G37*
G36*
X2435000Y887500D02*
X2465000Y887500D01*
X2465994D01*
X2467832Y886738D01*
X2469239Y885332D01*
X2470000Y883494D01*
Y882500D01*
X2470000Y882500D01*
X2470000Y867500D01*
Y866506D01*
X2469238Y864668D01*
X2467832Y863261D01*
X2465994Y862500D01*
X2465000D01*
X2435000Y862500D01*
Y855000D01*
X2317500D01*
X2316505Y855000D01*
X2314667Y855761D01*
X2313261Y857168D01*
X2312500Y859005D01*
X2312500Y860000D01*
Y890000D01*
X2312500Y890994D01*
X2313261Y892832D01*
X2314667Y894239D01*
X2316505Y895000D01*
X2317500D01*
X2317500Y895000D01*
X2435000D01*
Y887500D01*
D02*
G37*
G36*
X3535000Y852500D02*
X3565000Y852500D01*
X3565994D01*
X3567832Y851738D01*
X3569239Y850332D01*
X3570000Y848494D01*
Y847500D01*
X3570000Y847500D01*
X3570000Y832500D01*
Y831506D01*
X3569238Y829668D01*
X3567832Y828261D01*
X3565994Y827500D01*
X3565000D01*
X3535000Y827500D01*
Y820000D01*
X3417500D01*
X3416505Y820000D01*
X3414668Y820761D01*
X3413261Y822168D01*
X3412500Y824005D01*
X3412500Y825000D01*
Y855000D01*
X3412500Y855994D01*
X3413261Y857832D01*
X3414668Y859239D01*
X3416505Y860000D01*
X3417500D01*
X3417500Y860000D01*
X3535000D01*
Y852500D01*
D02*
G37*
G36*
X2385332Y834239D02*
X2386739Y832832D01*
X2387500Y830995D01*
Y830000D01*
Y770000D01*
Y769005D01*
X2386739Y767168D01*
X2385332Y765761D01*
X2383494Y765000D01*
X2366505D01*
X2364668Y765761D01*
X2363261Y767168D01*
X2362500Y769005D01*
Y770000D01*
Y830000D01*
Y830995D01*
X2363261Y832832D01*
X2364668Y834239D01*
X2366505Y835000D01*
X2383494D01*
X2385332Y834239D01*
D02*
G37*
G36*
X2335332D02*
X2336739Y832832D01*
X2337500Y830995D01*
Y830000D01*
Y770000D01*
Y769005D01*
X2336739Y767168D01*
X2335332Y765761D01*
X2333494Y765000D01*
X2316505D01*
X2314668Y765761D01*
X2313261Y767168D01*
X2312500Y769005D01*
Y770000D01*
Y830000D01*
Y830995D01*
X2313261Y832832D01*
X2314668Y834239D01*
X2316505Y835000D01*
X2333494D01*
X2335332Y834239D01*
D02*
G37*
G36*
X3485332Y799239D02*
X3486739Y797832D01*
X3487500Y795995D01*
Y795000D01*
Y735000D01*
Y734005D01*
X3486739Y732168D01*
X3485332Y730761D01*
X3483494Y730000D01*
X3466505D01*
X3464668Y730761D01*
X3463261Y732168D01*
X3462500Y734005D01*
Y735000D01*
Y795000D01*
Y795995D01*
X3463261Y797832D01*
X3464668Y799239D01*
X3466505Y800000D01*
X3483494D01*
X3485332Y799239D01*
D02*
G37*
G36*
X3435332D02*
X3436739Y797832D01*
X3437500Y795995D01*
Y795000D01*
Y735000D01*
Y734005D01*
X3436739Y732168D01*
X3435332Y730761D01*
X3433495Y730000D01*
X3416505D01*
X3414668Y730761D01*
X3413261Y732168D01*
X3412500Y734005D01*
Y735000D01*
Y795000D01*
Y795995D01*
X3413261Y797832D01*
X3414668Y799239D01*
X3416505Y800000D01*
X3433495D01*
X3435332Y799239D01*
D02*
G37*
G36*
X3385332D02*
X3386739Y797832D01*
X3387500Y795995D01*
Y795000D01*
Y735000D01*
Y734005D01*
X3386739Y732168D01*
X3385332Y730761D01*
X3383494Y730000D01*
X3366505D01*
X3364668Y730761D01*
X3363261Y732168D01*
X3362500Y734005D01*
Y735000D01*
Y795000D01*
Y795995D01*
X3363261Y797832D01*
X3364668Y799239D01*
X3366505Y800000D01*
X3383494D01*
X3385332Y799239D01*
D02*
G37*
G36*
X3335332D02*
X3336739Y797832D01*
X3337500Y795995D01*
Y795000D01*
Y735000D01*
Y734005D01*
X3336739Y732168D01*
X3335332Y730761D01*
X3333494Y730000D01*
X3316505D01*
X3314668Y730761D01*
X3313261Y732168D01*
X3312500Y734005D01*
Y735000D01*
Y795000D01*
Y795995D01*
X3313261Y797832D01*
X3314668Y799239D01*
X3316505Y800000D01*
X3333494D01*
X3335332Y799239D01*
D02*
G37*
D10*
X2290000Y2975000D02*
D03*
X2370000D02*
D03*
X2450000D02*
D03*
X2530000D02*
D03*
X2610000D02*
D03*
X2690000D02*
D03*
X2770000D02*
D03*
X2850000D02*
D03*
X2290000Y3865000D02*
D03*
X2370000D02*
D03*
X2450000D02*
D03*
X2530000D02*
D03*
X2610000D02*
D03*
X2690000D02*
D03*
X2770000D02*
D03*
X2850000D02*
D03*
D11*
X2125000Y3700000D02*
D03*
Y3620000D02*
D03*
Y3540000D02*
D03*
Y3460000D02*
D03*
Y3380000D02*
D03*
Y3300000D02*
D03*
Y3220000D02*
D03*
Y3140000D02*
D03*
X3015000Y3700000D02*
D03*
Y3620000D02*
D03*
Y3540000D02*
D03*
Y3460000D02*
D03*
Y3380000D02*
D03*
Y3300000D02*
D03*
Y3220000D02*
D03*
Y3140000D02*
D03*
D12*
X1340000Y3855000D02*
D03*
Y3705000D02*
D03*
X310000Y4065000D02*
D03*
Y3915000D02*
D03*
D13*
X3275000Y3290000D02*
D03*
X3425000D02*
D03*
D14*
X3550000Y3295000D02*
D03*
Y3425000D02*
D03*
X1180000Y3845000D02*
D03*
Y3715000D02*
D03*
X3150000Y1385000D02*
D03*
Y1255000D02*
D03*
X3010000Y1385000D02*
D03*
Y1255000D02*
D03*
X2030000Y1425000D02*
D03*
Y1295000D02*
D03*
X1870000Y1295000D02*
D03*
Y1425000D02*
D03*
X1150000Y1485000D02*
D03*
Y1355000D02*
D03*
X1000000Y1485000D02*
D03*
Y1355000D02*
D03*
D15*
X2444500Y2082500D02*
D03*
X2317500D02*
D03*
X2190500D02*
D03*
X2063500D02*
D03*
X1936500D02*
D03*
X1809500D02*
D03*
X1682500D02*
D03*
X1555500D02*
D03*
Y2577500D02*
D03*
X1682500D02*
D03*
X1809500D02*
D03*
X1936500D02*
D03*
X2063500D02*
D03*
X2190500D02*
D03*
X2317500D02*
D03*
X2444500D02*
D03*
X3524500Y2082500D02*
D03*
X3397500D02*
D03*
X3270500D02*
D03*
X3143500D02*
D03*
X3016500D02*
D03*
X2889500D02*
D03*
X2762500D02*
D03*
X2635500D02*
D03*
Y2577500D02*
D03*
X2762500D02*
D03*
X2889500D02*
D03*
X3016500D02*
D03*
X3143500D02*
D03*
X3270500D02*
D03*
X3397500D02*
D03*
X3524500D02*
D03*
D16*
X3170000Y3397500D02*
D03*
Y3542500D02*
D03*
X550000Y3947500D02*
D03*
Y4092500D02*
D03*
X2450000Y1747500D02*
D03*
Y1892500D02*
D03*
X1180000Y4112500D02*
D03*
Y3967500D02*
D03*
X3180000Y2977500D02*
D03*
Y3122500D02*
D03*
X1930000Y3872500D02*
D03*
Y3727500D02*
D03*
X1790000Y3872500D02*
D03*
Y3727500D02*
D03*
D17*
X3522500Y1910000D02*
D03*
X3377500D02*
D03*
X2277500Y2780000D02*
D03*
X2422500D02*
D03*
X3822500Y1360000D02*
D03*
X3677500D02*
D03*
X3822500Y1910000D02*
D03*
X3677500D02*
D03*
X3387500Y2760000D02*
D03*
X3532500D02*
D03*
X2227500Y4060000D02*
D03*
X2372500D02*
D03*
D18*
X4540000Y1080000D02*
D03*
X810000Y650000D02*
D03*
X1950000Y640000D02*
D03*
X1510000Y650000D02*
D03*
X3040000Y640000D02*
D03*
X3760000D02*
D03*
X2650000D02*
D03*
D22*
X1085000Y1200000D02*
D03*
X1135000D02*
D03*
X1185000D02*
D03*
X1235000D02*
D03*
X3475000Y1190000D02*
D03*
X3425000D02*
D03*
X3375000D02*
D03*
X3325000D02*
D03*
X2375000Y1225000D02*
D03*
X2325000D02*
D03*
X2275000D02*
D03*
X2225000D02*
D03*
D23*
X1300000Y1147500D02*
D03*
Y1097500D02*
D03*
Y1047500D02*
D03*
X1020000D02*
D03*
Y1097500D02*
D03*
Y1147500D02*
D03*
X3260000Y1137500D02*
D03*
Y1087500D02*
D03*
Y1037500D02*
D03*
X3540000D02*
D03*
Y1087500D02*
D03*
Y1137500D02*
D03*
X2160000Y1172500D02*
D03*
Y1122500D02*
D03*
Y1072500D02*
D03*
X2440000D02*
D03*
Y1122500D02*
D03*
Y1172500D02*
D03*
D24*
X994501Y3951250D02*
D03*
X994500Y3761250D02*
D03*
X765500D02*
D03*
Y3856250D02*
D03*
Y3951250D02*
D03*
D25*
X3678751Y1754501D02*
D03*
X3868750Y1754500D02*
D03*
Y1525500D02*
D03*
X3773750D02*
D03*
X3678750D02*
D03*
D26*
X149640Y3183867D02*
D03*
Y3423867D02*
D03*
D27*
X394640Y2983867D02*
D03*
Y3623867D02*
D03*
D28*
X417140Y3173867D02*
D03*
Y3238867D02*
D03*
Y3303867D02*
D03*
Y3368867D02*
D03*
Y3433867D02*
D03*
D29*
X385000Y4270000D02*
D03*
X255000D02*
D03*
D30*
X4320000Y3099000D02*
D03*
Y3226000D02*
D03*
Y3353000D02*
D03*
Y3480000D02*
D03*
Y3607000D02*
D03*
X3913000D02*
D03*
Y3480000D02*
D03*
Y3353000D02*
D03*
Y3226000D02*
D03*
Y3099000D02*
D03*
D31*
X790000Y3455000D02*
D03*
X980000D02*
D03*
Y3210000D02*
D03*
X885000D02*
D03*
X790000D02*
D03*
D32*
X4540000Y1570000D02*
D03*
%TF.MD5,ae7fbd6ce1da2c37e185152932c8efc4*%
M02*
