%TF.GenerationSoftware,Altium Limited,Altium Designer,22.10.1 (41)*%
G04 Layer_Physical_Order=3*
G04 Layer_Color=128*
%FSLAX45Y45*%
%MOMM*%
%TF.SameCoordinates,5B9C486D-D5A6-494F-ABD5-4A95DA49E213*%
%TF.FilePolarity,Negative*%
%TF.FileFunction,Copper,L3,Inr,Plane*%
%TF.Part,Single*%
G01*
G75*
%TA.AperFunction,NonConductor*%
%ADD45C,2.50000*%
%ADD46C,1.01600*%
%ADD47C,0.25400*%
%TA.AperFunction,WasherPad*%
%ADD48C,4.01600*%
%TA.AperFunction,ComponentPad*%
%ADD49C,1.86600*%
%ADD50C,2.56600*%
%TA.AperFunction,ViaPad*%
%ADD51C,1.21600*%
D45*
X20000Y2349999D02*
X4770000Y2350000D01*
D46*
X0Y300000D02*
Y5000000D01*
X4750000D01*
Y300000D02*
Y5000000D01*
X0Y300000D02*
X4750000D01*
D47*
X2060000Y4684000D02*
X2077000D01*
X2060000D02*
Y4690000D01*
X1160000Y4674000D02*
X1221000D01*
X1160000D02*
Y4680000D01*
D48*
X4400000Y4700000D02*
D03*
X300000Y600000D02*
D03*
X4400000D02*
D03*
X300000Y4700000D02*
D03*
D49*
X3690000Y4420000D02*
D03*
X3563000Y4674000D02*
D03*
X3436000Y4420000D02*
D03*
X560000Y1730000D02*
D03*
X306000Y1603000D02*
D03*
X560000Y1476000D02*
D03*
X2507000Y4436000D02*
D03*
X2380000Y4690000D02*
D03*
X2253000Y4436000D02*
D03*
X1380000Y4420000D02*
D03*
X1253000Y4674000D02*
D03*
X1126000Y4420000D02*
D03*
D50*
X3957000Y4494000D02*
D03*
X486000Y1997000D02*
D03*
X2774000Y4510000D02*
D03*
X1647000Y4494000D02*
D03*
D51*
X3330000Y980000D02*
D03*
X3269993Y979998D02*
D03*
X2160000Y1012500D02*
D03*
X2283254Y3747500D02*
D03*
X3680000Y1294853D02*
D03*
X3362500Y1807500D02*
D03*
X2287877Y3237877D02*
D03*
X2870000Y3110000D02*
D03*
X2712877Y3102877D02*
D03*
X2882123Y3222123D02*
D03*
X2340000Y3440000D02*
D03*
X2850000Y3980000D02*
D03*
X3520000Y980000D02*
D03*
X3460000D02*
D03*
X1110000Y990000D02*
D03*
X1040000D02*
D03*
X1310000D02*
D03*
X2540000Y1880000D02*
D03*
X2890000Y1960000D02*
D03*
X2000000Y1860000D02*
D03*
X1130000Y1970000D02*
D03*
X3010000Y1922500D02*
D03*
X3600000Y2760000D02*
D03*
X4480000Y3100000D02*
D03*
X3260000Y3120000D02*
D03*
X1340000Y3930000D02*
D03*
X1270000Y3970000D02*
D03*
X1710000Y3730000D02*
D03*
X1260000Y990000D02*
D03*
X2430000Y1012500D02*
D03*
X2250000D02*
D03*
X4550000Y1570000D02*
D03*
X2330000Y1012500D02*
D03*
X2530000Y2760000D02*
D03*
X2529768Y2892500D02*
D03*
X2360000Y4150000D02*
D03*
X2189996Y2699995D02*
D03*
X2950000Y4147500D02*
D03*
X3010000Y2730000D02*
D03*
X1320000Y2130000D02*
D03*
X2889625Y2732500D02*
D03*
X3210000Y2760000D02*
D03*
X3130000Y2740000D02*
D03*
X2156973Y2766973D02*
D03*
X1989996Y2849994D02*
D03*
X2690000Y4000000D02*
D03*
X2830000Y3670000D02*
D03*
X2860000Y3480000D02*
D03*
X2820000Y3570000D02*
D03*
X3660000Y3230000D02*
D03*
X1920000Y3090000D02*
D03*
X2050000Y2780000D02*
D03*
X2880000Y3370000D02*
D03*
X4450000Y1470000D02*
D03*
Y1570000D02*
D03*
Y1670000D02*
D03*
X4550000D02*
D03*
Y1470000D02*
D03*
X4650000D02*
D03*
Y1570000D02*
D03*
Y1670000D02*
D03*
%TF.MD5,9cf74ccd63a8bcf56f4515682f21970a*%
M02*
