%TF.GenerationSoftware,Altium Limited,Altium Designer,22.10.1 (41)*%
G04 Layer_Physical_Order=4*
G04 Layer_Color=16711680*
%FSLAX45Y45*%
%MOMM*%
%TF.SameCoordinates,79C1CFBE-EB9A-408B-862A-4DB21413197E*%
%TF.FilePolarity,Positive*%
%TF.FileFunction,Copper,L4,Bot,Signal*%
%TF.Part,Single*%
G01*
G75*
%TA.AperFunction,SMDPad,CuDef*%
%ADD16R,1.05000X0.95000*%
%TA.AperFunction,Conductor*%
%ADD33C,0.20000*%
%ADD35C,0.60000*%
%TA.AperFunction,WasherPad*%
%ADD38C,3.00000*%
%TA.AperFunction,ComponentPad*%
%ADD39O,1.80000X0.90000*%
%ADD40R,1.35800X1.35800*%
%ADD41C,1.35800*%
%ADD42C,1.55000*%
%ADD43R,1.35800X1.35800*%
%TA.AperFunction,ViaPad*%
%ADD44C,0.45000*%
%TA.AperFunction,SMDPad,CuDef*%
%ADD52R,1.50822X1.40574*%
%ADD53R,1.62000X0.60000*%
%ADD54R,4.58000X4.80000*%
G36*
X4729609Y2510000D02*
X20391D01*
Y4979609D01*
X4729609D01*
Y2510000D01*
D02*
G37*
G36*
X3998000Y1680500D02*
X4094075D01*
X4099000Y1679520D01*
X4100000D01*
X4104925Y1680500D01*
X4199999D01*
X4200000Y1667800D01*
Y900000D01*
X4095411D01*
Y917662D01*
X3904589D01*
Y900000D01*
X3855411D01*
Y917662D01*
X3664589D01*
Y900000D01*
X3605411D01*
Y917662D01*
X3414589D01*
Y900000D01*
X3362500D01*
Y905000D01*
X3217500D01*
Y900000D01*
X3155411D01*
Y917662D01*
X2964589D01*
Y900000D01*
X2885411D01*
Y917662D01*
X2694589D01*
Y900000D01*
X2645411D01*
Y917662D01*
X2454589D01*
Y917662D01*
X2441889Y911077D01*
X2438454Y912500D01*
X2422500D01*
Y925000D01*
X2277500D01*
Y918357D01*
X2264800Y909871D01*
X2258454Y912500D01*
X2241546D01*
X2225926Y906030D01*
X2219896Y900000D01*
X2195411D01*
Y907662D01*
X2004589D01*
Y900000D01*
X1925411D01*
Y907662D01*
X1734589D01*
Y900000D01*
X1655411D01*
Y907662D01*
X1464589D01*
Y900000D01*
X1425411D01*
Y907662D01*
X1234589D01*
Y900000D01*
X1182500D01*
Y925000D01*
X1037500D01*
Y919136D01*
X1025410Y917662D01*
Y917662D01*
X834589D01*
Y900000D01*
X815411D01*
Y917662D01*
X624589D01*
Y900000D01*
X390000D01*
Y1576873D01*
X393900Y1591428D01*
Y1614572D01*
X390000Y1629127D01*
Y1750000D01*
X465633D01*
X472100Y1741572D01*
Y1718428D01*
X478090Y1696072D01*
X489662Y1676028D01*
X506028Y1659663D01*
X526072Y1648090D01*
X548428Y1642100D01*
X571572D01*
X593928Y1648090D01*
X613972Y1659663D01*
X630337Y1676028D01*
X641910Y1696072D01*
X647900Y1718428D01*
Y1741572D01*
X654367Y1750000D01*
X3998000D01*
Y1680500D01*
D02*
G37*
G36*
X4729609Y320391D02*
X20391D01*
Y1270000D01*
X369608D01*
Y900000D01*
X371160Y892196D01*
X375581Y885581D01*
X382196Y881160D01*
X390000Y879608D01*
X624589D01*
X632393Y881160D01*
X639009Y885581D01*
X643429Y892196D01*
X644438Y897270D01*
X795562D01*
X796571Y892196D01*
X800992Y885581D01*
X807607Y881160D01*
X815411Y879608D01*
X834589D01*
X842393Y881160D01*
X849008Y885581D01*
X853429Y892196D01*
X854438Y897270D01*
X1025410D01*
X1026635Y897514D01*
X1027879Y897420D01*
X1039968Y898894D01*
X1042594Y899758D01*
X1043812Y900000D01*
X1045304Y900297D01*
X1046341Y900990D01*
X1047526Y901379D01*
X1049622Y903182D01*
X1051756Y904608D01*
X1162108D01*
Y900000D01*
X1163660Y892196D01*
X1168081Y885581D01*
X1174696Y881160D01*
X1182500Y879608D01*
X1234589D01*
X1242393Y881160D01*
X1249008Y885581D01*
X1250137Y887270D01*
X1409862D01*
X1410991Y885581D01*
X1417607Y881160D01*
X1425411Y879608D01*
X1464589D01*
X1472393Y881160D01*
X1479008Y885581D01*
X1480138Y887270D01*
X1639862D01*
X1640991Y885581D01*
X1647607Y881160D01*
X1655411Y879608D01*
X1734589D01*
X1742393Y881160D01*
X1749008Y885581D01*
X1750137Y887270D01*
X1909862D01*
X1910991Y885581D01*
X1917607Y881160D01*
X1925411Y879608D01*
X2004589D01*
X2012393Y881160D01*
X2019009Y885581D01*
X2020138Y887270D01*
X2179863D01*
X2180992Y885581D01*
X2187607Y881160D01*
X2195411Y879608D01*
X2219896D01*
X2227700Y881160D01*
X2234316Y885581D01*
X2237477Y888742D01*
X2240514Y890000D01*
X2245603Y892108D01*
X2254397D01*
X2256996Y891031D01*
X2258966Y890640D01*
X2260821Y889871D01*
X2262830D01*
X2264800Y889479D01*
X2266770Y889871D01*
X2268778D01*
X2269089Y890000D01*
X2270633Y890640D01*
X2272604Y891031D01*
X2274274Y892148D01*
X2276129Y892916D01*
X2288829Y901402D01*
X2290249Y902821D01*
X2291919Y903938D01*
X2292367Y904608D01*
X2403719D01*
X2408081Y898081D01*
X2414696Y893660D01*
X2422500Y892108D01*
X2434736D01*
X2434951Y892065D01*
X2435726Y891639D01*
X2438830Y891294D01*
X2441889Y890685D01*
X2442755Y890857D01*
X2443633Y890760D01*
X2446632Y891628D01*
X2449693Y892237D01*
X2450427Y892728D01*
X2451276Y892974D01*
X2459562Y897270D01*
X2625562D01*
X2626571Y892196D01*
X2630991Y885581D01*
X2637607Y881160D01*
X2645411Y879608D01*
X2694589D01*
X2702393Y881160D01*
X2709009Y885581D01*
X2711961Y890000D01*
X2713429Y892196D01*
X2714438Y897270D01*
X2865562D01*
X2866571Y892196D01*
X2870991Y885581D01*
X2877607Y881160D01*
X2885411Y879608D01*
X2964589D01*
X2972393Y881160D01*
X2979009Y885581D01*
X2983429Y892196D01*
X2984438Y897270D01*
X3135562D01*
X3136571Y892196D01*
X3140991Y885581D01*
X3147607Y881160D01*
X3155411Y879608D01*
X3217500D01*
X3225304Y881160D01*
X3230464Y884608D01*
X3349536D01*
X3354696Y881160D01*
X3362500Y879608D01*
X3414589D01*
X3422393Y881160D01*
X3429009Y885581D01*
X3433429Y892196D01*
X3434438Y897270D01*
X3585562D01*
X3586571Y892196D01*
X3590992Y885581D01*
X3597607Y881160D01*
X3605411Y879608D01*
X3664589D01*
X3672393Y881160D01*
X3679009Y885581D01*
X3683429Y892196D01*
X3684438Y897270D01*
X3835562D01*
X3836571Y892196D01*
X3840992Y885581D01*
X3847607Y881160D01*
X3855411Y879608D01*
X3904589D01*
X3912393Y881160D01*
X3919008Y885581D01*
X3923429Y892196D01*
X3924438Y897270D01*
X4075562D01*
X4076571Y892196D01*
X4080991Y885581D01*
X4087607Y881160D01*
X4095411Y879608D01*
X4200000D01*
X4207804Y881160D01*
X4214419Y885581D01*
X4218840Y892196D01*
X4220392Y900000D01*
Y1270000D01*
X4729609D01*
Y320391D01*
D02*
G37*
%LPC*%
G36*
X2380000Y4778658D02*
X2357053Y4775637D01*
X2335671Y4766780D01*
X2317309Y4752691D01*
X2303220Y4734329D01*
X2294363Y4712947D01*
X2291342Y4690000D01*
X2294363Y4667053D01*
X2303220Y4645671D01*
X2317309Y4627309D01*
X2335671Y4613220D01*
X2357053Y4604363D01*
X2380000Y4601342D01*
X2402947Y4604363D01*
X2424329Y4613220D01*
X2442691Y4627309D01*
X2456780Y4645671D01*
X2465637Y4667053D01*
X2468659Y4690000D01*
X2465637Y4712947D01*
X2456780Y4734329D01*
X2442691Y4752691D01*
X2424329Y4766780D01*
X2402947Y4775637D01*
X2380000Y4778658D01*
D02*
G37*
G36*
X3563000Y4762658D02*
X3540053Y4759637D01*
X3518671Y4750780D01*
X3500309Y4736691D01*
X3486220Y4718329D01*
X3477363Y4696947D01*
X3474342Y4674000D01*
X3477363Y4651053D01*
X3486220Y4629671D01*
X3500309Y4611309D01*
X3518671Y4597220D01*
X3540053Y4588363D01*
X3563000Y4585342D01*
X3585947Y4588363D01*
X3607329Y4597220D01*
X3625691Y4611309D01*
X3639780Y4629671D01*
X3648637Y4651053D01*
X3651658Y4674000D01*
X3648637Y4696947D01*
X3639780Y4718329D01*
X3625691Y4736691D01*
X3607329Y4750780D01*
X3585947Y4759637D01*
X3563000Y4762658D01*
D02*
G37*
G36*
X1253000D02*
X1230053Y4759637D01*
X1208671Y4750780D01*
X1190309Y4736691D01*
X1176220Y4718329D01*
X1167363Y4696947D01*
X1164342Y4674000D01*
X1167363Y4651053D01*
X1176220Y4629671D01*
X1190309Y4611309D01*
X1208671Y4597220D01*
X1230053Y4588363D01*
X1253000Y4585342D01*
X1275947Y4588363D01*
X1297329Y4597220D01*
X1315691Y4611309D01*
X1329780Y4629671D01*
X1338637Y4651053D01*
X1341658Y4674000D01*
X1338637Y4696947D01*
X1329780Y4718329D01*
X1315691Y4736691D01*
X1297329Y4750780D01*
X1275947Y4759637D01*
X1253000Y4762658D01*
D02*
G37*
G36*
X4400000Y4870822D02*
X4366674Y4867540D01*
X4334629Y4857819D01*
X4305096Y4842033D01*
X4279210Y4820790D01*
X4257967Y4794904D01*
X4242181Y4765371D01*
X4232460Y4733326D01*
X4229178Y4700000D01*
X4232460Y4666674D01*
X4242181Y4634629D01*
X4257967Y4605096D01*
X4279210Y4579210D01*
X4305096Y4557966D01*
X4334629Y4542181D01*
X4366674Y4532460D01*
X4400000Y4529178D01*
X4433326Y4532460D01*
X4465371Y4542181D01*
X4494904Y4557966D01*
X4520790Y4579210D01*
X4542034Y4605096D01*
X4557819Y4634629D01*
X4567540Y4666674D01*
X4570822Y4700000D01*
X4567540Y4733326D01*
X4557819Y4765371D01*
X4542034Y4794904D01*
X4520790Y4820790D01*
X4494904Y4842033D01*
X4465371Y4857819D01*
X4433326Y4867540D01*
X4400000Y4870822D01*
D02*
G37*
G36*
X300000D02*
X266674Y4867540D01*
X234629Y4857819D01*
X205096Y4842033D01*
X179210Y4820790D01*
X157966Y4794904D01*
X142181Y4765371D01*
X132460Y4733326D01*
X129178Y4700000D01*
X132460Y4666674D01*
X142181Y4634629D01*
X157966Y4605096D01*
X179210Y4579210D01*
X205096Y4557966D01*
X234629Y4542181D01*
X266674Y4532460D01*
X300000Y4529178D01*
X333326Y4532460D01*
X365371Y4542181D01*
X394904Y4557966D01*
X420790Y4579210D01*
X442033Y4605096D01*
X457819Y4634629D01*
X467540Y4666674D01*
X470822Y4700000D01*
X467540Y4733326D01*
X457819Y4765371D01*
X442033Y4794904D01*
X420790Y4820790D01*
X394904Y4842033D01*
X365371Y4857819D01*
X333326Y4867540D01*
X300000Y4870822D01*
D02*
G37*
G36*
X2721900Y4777900D02*
X2546100D01*
Y4602100D01*
X2711520D01*
X2711589Y4602100D01*
X2711589D01*
X2713003Y4602100D01*
X2714659Y4597223D01*
X2714659Y4597223D01*
Y4597223D01*
D01*
X2711770Y4585145D01*
X2704462Y4579538D01*
X2688834Y4559171D01*
X2679010Y4535453D01*
X2675659Y4510000D01*
X2679010Y4484548D01*
X2688834Y4460830D01*
X2704462Y4440462D01*
X2724829Y4424834D01*
X2748547Y4415010D01*
X2774000Y4411659D01*
X2799453Y4415010D01*
X2823171Y4424834D01*
X2843538Y4440462D01*
X2859166Y4460830D01*
X2868990Y4484548D01*
X2872341Y4510000D01*
X2868990Y4535453D01*
X2859166Y4559171D01*
X2843538Y4579538D01*
X2823171Y4595166D01*
X2799453Y4604991D01*
X2774000Y4608341D01*
X2748547Y4604991D01*
X2736314Y4599923D01*
X2725502Y4604793D01*
X2725501Y4604793D01*
X2725501Y4604794D01*
D01*
X2721901Y4607699D01*
X2721900Y4611114D01*
Y4777900D01*
D02*
G37*
G36*
X3904900Y4761900D02*
X3729100D01*
Y4586100D01*
X3894520D01*
X3894589Y4586100D01*
X3894589D01*
X3896003Y4586100D01*
X3897659Y4581223D01*
X3897659Y4581224D01*
Y4581223D01*
D01*
X3894769Y4569145D01*
X3887462Y4563538D01*
X3871834Y4543171D01*
X3862010Y4519453D01*
X3858659Y4494000D01*
X3862010Y4468548D01*
X3871834Y4444830D01*
X3887462Y4424462D01*
X3907829Y4408834D01*
X3931547Y4399010D01*
X3957000Y4395659D01*
X3982453Y4399010D01*
X4006171Y4408834D01*
X4026538Y4424462D01*
X4042166Y4444830D01*
X4051990Y4468548D01*
X4055341Y4494000D01*
X4051990Y4519453D01*
X4042166Y4543171D01*
X4026538Y4563538D01*
X4006171Y4579166D01*
X3982453Y4588991D01*
X3957000Y4592341D01*
X3931547Y4588991D01*
X3919314Y4583923D01*
X3908501Y4588793D01*
X3908501Y4588793D01*
X3908501Y4588794D01*
D01*
X3904900Y4591699D01*
X3904900Y4595114D01*
Y4761900D01*
D02*
G37*
G36*
X1594900D02*
X1419100D01*
Y4586100D01*
X1584520D01*
X1584589Y4586100D01*
X1584589D01*
X1586003Y4586100D01*
X1587659Y4581223D01*
X1587659Y4581224D01*
Y4581223D01*
D01*
X1584769Y4569145D01*
X1577462Y4563538D01*
X1561834Y4543171D01*
X1552010Y4519453D01*
X1548659Y4494000D01*
X1552010Y4468548D01*
X1561834Y4444830D01*
X1577462Y4424462D01*
X1597829Y4408834D01*
X1621547Y4399010D01*
X1647000Y4395659D01*
X1672453Y4399010D01*
X1696171Y4408834D01*
X1716538Y4424462D01*
X1732166Y4444830D01*
X1741990Y4468548D01*
X1745341Y4494000D01*
X1741990Y4519453D01*
X1732166Y4543171D01*
X1716538Y4563538D01*
X1696171Y4579166D01*
X1672453Y4588991D01*
X1647000Y4592341D01*
X1621547Y4588991D01*
X1609314Y4583923D01*
X1598502Y4588793D01*
X1598501Y4588793D01*
X1598501Y4588794D01*
D01*
X1594901Y4591699D01*
X1594900Y4595114D01*
Y4761900D01*
D02*
G37*
G36*
X3436000Y4508658D02*
X3413053Y4505637D01*
X3391671Y4496780D01*
X3373309Y4482691D01*
X3359220Y4464329D01*
X3350363Y4442947D01*
X3347342Y4420000D01*
X3350363Y4397053D01*
X3359220Y4375671D01*
X3373309Y4357309D01*
X3391671Y4343220D01*
X3413053Y4334363D01*
X3436000Y4331342D01*
X3458947Y4334363D01*
X3480329Y4343220D01*
X3498691Y4357309D01*
X3512780Y4375671D01*
X3521637Y4397053D01*
X3524658Y4420000D01*
X3521637Y4442947D01*
X3512780Y4464329D01*
X3498691Y4482691D01*
X3480329Y4496780D01*
X3458947Y4505637D01*
X3436000Y4508658D01*
D02*
G37*
G36*
X1126000D02*
X1103053Y4505637D01*
X1081671Y4496780D01*
X1063309Y4482691D01*
X1049220Y4464329D01*
X1040363Y4442947D01*
X1037342Y4420000D01*
X1040363Y4397053D01*
X1049220Y4375671D01*
X1063309Y4357309D01*
X1081671Y4343220D01*
X1103053Y4334363D01*
X1126000Y4331342D01*
X1148947Y4334363D01*
X1170329Y4343220D01*
X1188691Y4357309D01*
X1202780Y4375671D01*
X1211637Y4397053D01*
X1214658Y4420000D01*
X1211637Y4442947D01*
X1202780Y4464329D01*
X1188691Y4482691D01*
X1170329Y4496780D01*
X1148947Y4505637D01*
X1126000Y4508658D01*
D02*
G37*
G36*
X250000Y4383332D02*
X233417Y4380034D01*
X219359Y4370640D01*
X209966Y4356583D01*
X206668Y4340000D01*
X209966Y4323417D01*
X219359Y4309359D01*
X233417Y4299966D01*
X250000Y4296668D01*
X266583Y4299966D01*
X280641Y4309359D01*
X290034Y4323417D01*
X293332Y4340000D01*
X290034Y4356583D01*
X280641Y4370640D01*
X266583Y4380034D01*
X250000Y4383332D01*
D02*
G37*
G36*
X1180000Y4233332D02*
X1163417Y4230034D01*
X1149359Y4220641D01*
X1139966Y4206583D01*
X1136668Y4190000D01*
X1139966Y4173417D01*
X1149359Y4159359D01*
X1163417Y4149966D01*
X1180000Y4146668D01*
X1196583Y4149966D01*
X1210640Y4159359D01*
X1220034Y4173417D01*
X1223332Y4190000D01*
X1220034Y4206583D01*
X1210640Y4220641D01*
X1196583Y4230034D01*
X1180000Y4233332D01*
D02*
G37*
G36*
X550000Y4213332D02*
X533417Y4210034D01*
X519359Y4200641D01*
X509966Y4186583D01*
X506668Y4170000D01*
X509966Y4153417D01*
X519359Y4139360D01*
X533417Y4129966D01*
X550000Y4126668D01*
X566583Y4129966D01*
X580640Y4139360D01*
X590034Y4153417D01*
X593332Y4170000D01*
X590034Y4186583D01*
X580640Y4200641D01*
X566583Y4210034D01*
X550000Y4213332D01*
D02*
G37*
G36*
X2253000Y4524658D02*
X2230053Y4521637D01*
X2208671Y4512780D01*
X2190309Y4498691D01*
X2176220Y4480329D01*
X2167363Y4458947D01*
X2164342Y4436000D01*
X2167363Y4413053D01*
X2176220Y4391671D01*
X2190309Y4373309D01*
X2208671Y4359220D01*
X2222412Y4353528D01*
Y4078377D01*
X2212881Y4070274D01*
X2200544Y4074016D01*
X2200034Y4076583D01*
X2190641Y4090641D01*
X2176583Y4100034D01*
X2160000Y4103332D01*
X2143417Y4100034D01*
X2129359Y4090641D01*
X2119966Y4076583D01*
X2116668Y4060000D01*
X2119966Y4043417D01*
X2129359Y4029359D01*
X2143417Y4019966D01*
X2160000Y4016668D01*
X2176583Y4019966D01*
X2187466Y4027238D01*
X2198158Y4023246D01*
X2200166Y4021612D01*
Y3677234D01*
X2199731Y3676583D01*
X2196432Y3660000D01*
X2199731Y3643417D01*
X2209124Y3629360D01*
X2223182Y3619966D01*
X2239765Y3616668D01*
X2256348Y3619966D01*
X2270405Y3629360D01*
X2278976Y3642186D01*
X2281265Y3643767D01*
X2285258Y3644721D01*
X2293859Y3639007D01*
X2295523Y3624535D01*
X2260077Y3589089D01*
X2253447Y3579165D01*
X2251118Y3567460D01*
X2251118Y3567459D01*
Y3266197D01*
X2251066Y3266162D01*
X2241672Y3252104D01*
X2238374Y3235521D01*
X2241672Y3218938D01*
X2251066Y3204881D01*
X2265123Y3195487D01*
X2272753Y3193969D01*
X2276933Y3180189D01*
X1990058Y2893314D01*
X1989996Y2893327D01*
X1973413Y2890028D01*
X1963288Y2883262D01*
X1950588Y2888633D01*
Y3059324D01*
X1950640Y3059359D01*
X1960034Y3073417D01*
X1963332Y3090000D01*
X1960034Y3106583D01*
X1950640Y3120640D01*
X1936583Y3130034D01*
X1920000Y3133332D01*
X1903417Y3130034D01*
X1889359Y3120640D01*
X1879966Y3106583D01*
X1876668Y3090000D01*
X1879966Y3073417D01*
X1889359Y3059359D01*
X1889412Y3059324D01*
Y2835755D01*
X1889412Y2835754D01*
X1891741Y2824048D01*
X1898371Y2814125D01*
X2096625Y2615871D01*
X2106548Y2609241D01*
X2118254Y2606912D01*
X2118255Y2606912D01*
X3161745D01*
X3161746Y2606912D01*
X3173451Y2609241D01*
X3183375Y2615871D01*
X3373271Y2805767D01*
X3385910Y2804522D01*
X3389359Y2799359D01*
X3403417Y2789966D01*
X3420000Y2786668D01*
X3436583Y2789966D01*
X3450641Y2799359D01*
X3460034Y2813417D01*
X3463332Y2830000D01*
X3460034Y2846583D01*
X3450641Y2860640D01*
X3442831Y2865859D01*
X3440274Y2881263D01*
X3681629Y3122617D01*
X3688259Y3132541D01*
X3690588Y3144246D01*
X3690588Y3144247D01*
Y3199324D01*
X3690641Y3199359D01*
X3700034Y3213417D01*
X3703332Y3230000D01*
X3700034Y3246583D01*
X3690641Y3260640D01*
X3676583Y3270034D01*
X3660000Y3273332D01*
X3643417Y3270034D01*
X3629360Y3260640D01*
X3619966Y3246583D01*
X3616668Y3230000D01*
X3619966Y3213417D01*
X3629360Y3199359D01*
X3629412Y3199324D01*
Y3156916D01*
X3345871Y2873375D01*
X3339241Y2863451D01*
X3337949Y2856961D01*
X3261263Y2780274D01*
X3245859Y2782831D01*
X3240640Y2790641D01*
X3240588Y2790676D01*
Y2904245D01*
X3240588Y2904246D01*
X3238259Y2915951D01*
X3231629Y2925875D01*
X3231628Y2925876D01*
X2934174Y3223330D01*
Y3231882D01*
X2938837Y3238860D01*
X2942135Y3255443D01*
X2938837Y3272026D01*
X2929443Y3286084D01*
X2915386Y3295477D01*
X2898803Y3298775D01*
X2882220Y3295477D01*
X2868162Y3286084D01*
X2858769Y3272026D01*
X2855471Y3255443D01*
X2858769Y3238860D01*
X2868162Y3224803D01*
X2872999Y3221571D01*
Y3210661D01*
X2872998Y3210660D01*
X2875327Y3198954D01*
X2881957Y3189031D01*
X3179412Y2891576D01*
Y2791706D01*
X3173288Y2785675D01*
X3160588Y2790179D01*
Y2859999D01*
X3160588Y2860000D01*
X3158259Y2871705D01*
X3151629Y2881629D01*
X3151628Y2881629D01*
X3029021Y3004237D01*
X3019097Y3010867D01*
X3010724Y3012533D01*
X2913320Y3109938D01*
X2913333Y3110000D01*
X2910034Y3126583D01*
X2900641Y3140640D01*
X2886583Y3150034D01*
X2870000Y3153332D01*
X2853417Y3150034D01*
X2839360Y3140640D01*
X2829966Y3126583D01*
X2826668Y3110000D01*
X2829966Y3093417D01*
X2839360Y3079359D01*
X2853417Y3069966D01*
X2870000Y3066667D01*
X2870062Y3066680D01*
X2975762Y2960980D01*
X2975763Y2960979D01*
X2985686Y2954349D01*
X2994059Y2952683D01*
X3099412Y2847330D01*
Y2770676D01*
X3099359Y2770641D01*
X3089966Y2756583D01*
X3086667Y2740000D01*
X3089966Y2723417D01*
X3099359Y2709360D01*
X3113417Y2699966D01*
X3130000Y2696668D01*
X3146582Y2699966D01*
X3160640Y2709360D01*
X3165974Y2717342D01*
X3180855Y2720840D01*
X3183692Y2718938D01*
X3185337Y2704348D01*
X3149076Y2668088D01*
X2676181D01*
X2672329Y2680788D01*
X2676455Y2683545D01*
X2685848Y2697603D01*
X2689147Y2714185D01*
X2685848Y2730768D01*
X2676455Y2744826D01*
X2662397Y2754219D01*
X2645814Y2757518D01*
X2629232Y2754219D01*
X2615174Y2744826D01*
X2605780Y2730768D01*
X2602482Y2714185D01*
X2605780Y2697603D01*
X2615174Y2683545D01*
X2619300Y2680788D01*
X2615447Y2668088D01*
X2389915D01*
X2383928Y2679288D01*
X2384982Y2680865D01*
X2388280Y2697448D01*
X2384982Y2714030D01*
X2375588Y2728088D01*
X2361530Y2737482D01*
X2344948Y2740780D01*
X2328365Y2737482D01*
X2314307Y2728088D01*
X2312041Y2724697D01*
X2296089Y2723682D01*
X2286583Y2730034D01*
X2282137Y2730918D01*
X2277957Y2744699D01*
X2845599Y3312341D01*
X2847071D01*
X2847072Y3312340D01*
X2858777Y3314669D01*
X2868701Y3321299D01*
X2882176Y3334775D01*
X2887123Y3333791D01*
X2903706Y3337089D01*
X2917764Y3346483D01*
X2927157Y3360541D01*
X2930455Y3377123D01*
X2927157Y3393706D01*
X2917764Y3407764D01*
X2903706Y3417157D01*
X2887123Y3420456D01*
X2870540Y3417157D01*
X2856482Y3407764D01*
X2847089Y3393706D01*
X2845226Y3384340D01*
X2834402Y3373516D01*
X2832931D01*
X2832929Y3373516D01*
X2821224Y3371188D01*
X2811300Y3364557D01*
X2221992Y2775249D01*
X2208826Y2780043D01*
X2208784Y2780526D01*
X2866148Y3437891D01*
X2876583Y3439966D01*
X2890640Y3449359D01*
X2900034Y3463417D01*
X2903332Y3480000D01*
X2900034Y3496583D01*
X2890640Y3510640D01*
X2876583Y3520034D01*
X2860000Y3523332D01*
X2850715Y3521485D01*
X2843078Y3532915D01*
X2843476Y3533511D01*
X2843719Y3534735D01*
X2850640Y3539359D01*
X2860034Y3553417D01*
X2863332Y3570000D01*
X2860034Y3586583D01*
X2850640Y3600641D01*
X2836583Y3610034D01*
X2821919Y3612951D01*
X2817852Y3619334D01*
X2815673Y3625421D01*
X2818529Y3628949D01*
X2830000Y3626668D01*
X2846583Y3629966D01*
X2860640Y3639359D01*
X2870034Y3653417D01*
X2873332Y3670000D01*
X2870034Y3686583D01*
X2860640Y3700641D01*
X2846583Y3710034D01*
X2830000Y3713332D01*
X2813417Y3710034D01*
X2799359Y3700641D01*
X2794735Y3693719D01*
X2793513Y3693476D01*
X2783589Y3686846D01*
X2783589Y3686845D01*
X2495535Y3398791D01*
X2485670Y3406887D01*
X2490034Y3413417D01*
X2493332Y3430000D01*
X2493320Y3430062D01*
X2645724Y3582467D01*
X2654097Y3584133D01*
X2664021Y3590763D01*
X2871628Y3798371D01*
X2871629Y3798371D01*
X2878259Y3808295D01*
X2880588Y3820000D01*
X2880588Y3820001D01*
Y3949324D01*
X2880640Y3949359D01*
X2890034Y3963417D01*
X2893332Y3980000D01*
X2890034Y3996583D01*
X2880640Y4010640D01*
X2866583Y4020034D01*
X2850000Y4023332D01*
X2833417Y4020034D01*
X2819359Y4010640D01*
X2809966Y3996583D01*
X2806667Y3980000D01*
X2809966Y3963417D01*
X2819359Y3949359D01*
X2819412Y3949324D01*
Y3832670D01*
X2629059Y3642317D01*
X2620686Y3640651D01*
X2610763Y3634021D01*
X2610762Y3634020D01*
X2513288Y3536545D01*
X2500588Y3541806D01*
Y3559324D01*
X2500640Y3559359D01*
X2510034Y3573417D01*
X2513332Y3590000D01*
X2510034Y3606583D01*
X2500640Y3620640D01*
X2486583Y3630034D01*
X2470000Y3633332D01*
X2453417Y3630034D01*
X2439359Y3620640D01*
X2429966Y3606583D01*
X2426667Y3590000D01*
X2429966Y3573417D01*
X2439359Y3559359D01*
X2439412Y3559324D01*
Y3536916D01*
X2324027Y3421531D01*
X2312294Y3426391D01*
Y3554790D01*
X2706845Y3949341D01*
X2706845Y3949342D01*
X2713476Y3959265D01*
X2714694Y3965386D01*
X2720640Y3969359D01*
X2730034Y3983417D01*
X2733332Y4000000D01*
X2730034Y4016583D01*
X2720640Y4030640D01*
X2706583Y4040034D01*
X2690000Y4043332D01*
X2673417Y4040034D01*
X2659359Y4030640D01*
X2649966Y4016583D01*
X2646668Y4000000D01*
X2649966Y3983417D01*
X2651745Y3980756D01*
X2371263Y3700274D01*
X2355859Y3702831D01*
X2350640Y3710641D01*
X2336583Y3720034D01*
X2320847Y3723164D01*
X2313841Y3730170D01*
Y3920584D01*
X2510170Y4116912D01*
X2919324D01*
X2919359Y4116859D01*
X2933417Y4107466D01*
X2950000Y4104168D01*
X2966583Y4107466D01*
X2980640Y4116859D01*
X2990034Y4130917D01*
X2993332Y4147500D01*
X2990034Y4164083D01*
X2980640Y4178140D01*
X2966583Y4187534D01*
X2950000Y4190832D01*
X2933417Y4187534D01*
X2919359Y4178140D01*
X2919324Y4178088D01*
X2497501D01*
X2497500Y4178088D01*
X2485795Y4175759D01*
X2475871Y4169129D01*
X2475871Y4169128D01*
X2274041Y3967299D01*
X2261341Y3972560D01*
Y4030337D01*
X2274628Y4043624D01*
X2274629Y4043625D01*
X2281259Y4053548D01*
X2283588Y4065253D01*
Y4353528D01*
X2297329Y4359220D01*
X2315691Y4373309D01*
X2329780Y4391671D01*
X2338637Y4413053D01*
X2341659Y4436000D01*
X2338637Y4458947D01*
X2329780Y4480329D01*
X2315691Y4498691D01*
X2297329Y4512780D01*
X2275947Y4521637D01*
X2253000Y4524658D01*
D02*
G37*
G36*
X2460000Y4013332D02*
X2443417Y4010034D01*
X2429359Y4000640D01*
X2419966Y3986583D01*
X2416668Y3970000D01*
X2419966Y3953417D01*
X2429359Y3939359D01*
X2443417Y3929966D01*
X2460000Y3926668D01*
X2476583Y3929966D01*
X2490640Y3939359D01*
X2500034Y3953417D01*
X2503332Y3970000D01*
X2500034Y3986583D01*
X2490640Y4000640D01*
X2476583Y4010034D01*
X2460000Y4013332D01*
D02*
G37*
G36*
X1790000Y3993332D02*
X1773417Y3990034D01*
X1759359Y3980641D01*
X1749966Y3966583D01*
X1746668Y3950000D01*
X1749966Y3933417D01*
X1759359Y3919359D01*
X1773417Y3909966D01*
X1790000Y3906668D01*
X1806583Y3909966D01*
X1820641Y3919359D01*
X1830034Y3933417D01*
X1833332Y3950000D01*
X1830034Y3966583D01*
X1820641Y3980641D01*
X1806583Y3990034D01*
X1790000Y3993332D01*
D02*
G37*
G36*
X1930000Y3983332D02*
X1913417Y3980034D01*
X1899359Y3970641D01*
X1889966Y3956583D01*
X1886668Y3940000D01*
X1889966Y3923417D01*
X1899359Y3909359D01*
X1913417Y3899966D01*
X1930000Y3896668D01*
X1946583Y3899966D01*
X1960640Y3909359D01*
X1970034Y3923417D01*
X1973332Y3940000D01*
X1970034Y3956583D01*
X1960640Y3970641D01*
X1946583Y3980034D01*
X1930000Y3983332D01*
D02*
G37*
G36*
X650000Y3863332D02*
X633417Y3860034D01*
X619359Y3850641D01*
X609966Y3836583D01*
X606668Y3820000D01*
X609966Y3803417D01*
X619359Y3789359D01*
X633417Y3779966D01*
X650000Y3776668D01*
X666583Y3779966D01*
X680640Y3789359D01*
X690034Y3803417D01*
X693332Y3820000D01*
X690034Y3836583D01*
X680640Y3850641D01*
X666583Y3860034D01*
X650000Y3863332D01*
D02*
G37*
G36*
X194640Y3699428D02*
X104640D01*
X87672Y3697194D01*
X71860Y3690644D01*
X58282Y3680226D01*
X47863Y3666648D01*
X41313Y3650836D01*
X39079Y3633867D01*
X41313Y3616899D01*
X47863Y3601087D01*
X58282Y3587509D01*
X71860Y3577090D01*
X87672Y3570540D01*
X104640Y3568307D01*
X194640D01*
X211608Y3570540D01*
X227420Y3577090D01*
X240998Y3587509D01*
X251417Y3601087D01*
X257967Y3616899D01*
X260201Y3633867D01*
X257967Y3650836D01*
X251417Y3666648D01*
X240998Y3680226D01*
X227420Y3690644D01*
X211608Y3697194D01*
X194640Y3699428D01*
D02*
G37*
G36*
X4610000Y3653332D02*
X4593417Y3650034D01*
X4579359Y3640640D01*
X4569966Y3626583D01*
X4566668Y3610000D01*
X4569966Y3593417D01*
X4579359Y3579359D01*
X4593417Y3569966D01*
X4610000Y3566667D01*
X4626583Y3569966D01*
X4640640Y3579359D01*
X4650034Y3593417D01*
X4653332Y3610000D01*
X4650034Y3626583D01*
X4640640Y3640640D01*
X4626583Y3650034D01*
X4610000Y3653332D01*
D02*
G37*
G36*
X3250000Y3583332D02*
X3233417Y3580034D01*
X3219360Y3570641D01*
X3209966Y3556583D01*
X3206668Y3540000D01*
X3209966Y3523417D01*
X3219360Y3509360D01*
X3233417Y3499966D01*
X3250000Y3496668D01*
X3266583Y3499966D01*
X3280641Y3509360D01*
X3290034Y3523417D01*
X3293333Y3540000D01*
X3290034Y3556583D01*
X3280641Y3570641D01*
X3266583Y3580034D01*
X3250000Y3583332D01*
D02*
G37*
G36*
X3630000Y3463332D02*
X3613417Y3460034D01*
X3599360Y3450641D01*
X3589966Y3436583D01*
X3586668Y3420000D01*
X3589966Y3403417D01*
X3599360Y3389359D01*
X3613417Y3379966D01*
X3630000Y3376668D01*
X3646583Y3379966D01*
X3660641Y3389359D01*
X3670034Y3403417D01*
X3673333Y3420000D01*
X3670034Y3436583D01*
X3660641Y3450641D01*
X3646583Y3460034D01*
X3630000Y3463332D01*
D02*
G37*
G36*
X4600000Y3403332D02*
X4583417Y3400034D01*
X4569359Y3390640D01*
X4559966Y3376583D01*
X4556668Y3360000D01*
X4559966Y3343417D01*
X4569359Y3329359D01*
X4583417Y3319966D01*
X4600000Y3316667D01*
X4616583Y3319966D01*
X4630640Y3329359D01*
X4640034Y3343417D01*
X4643332Y3360000D01*
X4640034Y3376583D01*
X4630640Y3390640D01*
X4616583Y3400034D01*
X4600000Y3403332D01*
D02*
G37*
G36*
X4620000Y3263332D02*
X4603417Y3260034D01*
X4589359Y3250640D01*
X4579966Y3236583D01*
X4576668Y3220000D01*
X4579966Y3203417D01*
X4589359Y3189359D01*
X4603417Y3179966D01*
X4620000Y3176668D01*
X4636583Y3179966D01*
X4650640Y3189359D01*
X4660034Y3203417D01*
X4663332Y3220000D01*
X4660034Y3236583D01*
X4650640Y3250640D01*
X4636583Y3260034D01*
X4620000Y3263332D01*
D02*
G37*
G36*
X500000Y3213332D02*
X483417Y3210034D01*
X469359Y3200641D01*
X459966Y3186583D01*
X456668Y3170000D01*
X459966Y3153417D01*
X469359Y3139359D01*
X483417Y3129966D01*
X500000Y3126668D01*
X516583Y3129966D01*
X530641Y3139359D01*
X540034Y3153417D01*
X543332Y3170000D01*
X540034Y3186583D01*
X530641Y3200641D01*
X516583Y3210034D01*
X500000Y3213332D01*
D02*
G37*
G36*
X880000Y3183332D02*
X863417Y3180034D01*
X849359Y3170641D01*
X839966Y3156583D01*
X836668Y3140000D01*
X839966Y3123417D01*
X849359Y3109360D01*
X863417Y3099966D01*
X880000Y3096668D01*
X896583Y3099966D01*
X910641Y3109360D01*
X920034Y3123417D01*
X923332Y3140000D01*
X920034Y3156583D01*
X910641Y3170641D01*
X896583Y3180034D01*
X880000Y3183332D01*
D02*
G37*
G36*
X3260000Y3023332D02*
X3243417Y3020034D01*
X3229360Y3010640D01*
X3219966Y2996583D01*
X3216668Y2980000D01*
X3219966Y2963417D01*
X3229360Y2949359D01*
X3243417Y2939966D01*
X3260000Y2936667D01*
X3276583Y2939966D01*
X3290641Y2949359D01*
X3300034Y2963417D01*
X3303332Y2980000D01*
X3300034Y2996583D01*
X3290641Y3010640D01*
X3276583Y3020034D01*
X3260000Y3023332D01*
D02*
G37*
G36*
X194640Y3039428D02*
X104640D01*
X87672Y3037194D01*
X71860Y3030644D01*
X58282Y3020225D01*
X47863Y3006648D01*
X41313Y2990836D01*
X39079Y2973867D01*
X41313Y2956899D01*
X47863Y2941087D01*
X58282Y2927509D01*
X71860Y2917090D01*
X87672Y2910540D01*
X104640Y2908306D01*
X194640D01*
X211608Y2910540D01*
X227420Y2917090D01*
X240998Y2927509D01*
X251417Y2941087D01*
X257967Y2956899D01*
X260201Y2973867D01*
X257967Y2990836D01*
X251417Y3006648D01*
X240998Y3020225D01*
X227420Y3030644D01*
X211608Y3037194D01*
X194640Y3039428D01*
D02*
G37*
G36*
X2716757Y3147135D02*
X2700174Y3143836D01*
X2686116Y3134443D01*
X2676723Y3120385D01*
X2673424Y3103802D01*
X2676723Y3087220D01*
X2682289Y3078889D01*
Y3027124D01*
X2682289Y3027123D01*
X2684618Y3015418D01*
X2691248Y3005494D01*
X2914424Y2782319D01*
X2906328Y2772454D01*
X2906208Y2772534D01*
X2889625Y2775833D01*
X2889562Y2775820D01*
X2751254Y2914129D01*
X2741331Y2920759D01*
X2729625Y2923088D01*
X2729624Y2923088D01*
X2560444D01*
X2560409Y2923140D01*
X2546351Y2932534D01*
X2529768Y2935832D01*
X2513186Y2932534D01*
X2499128Y2923140D01*
X2489734Y2909083D01*
X2486436Y2892500D01*
X2489734Y2875917D01*
X2499128Y2861859D01*
X2513186Y2852466D01*
X2529768Y2849168D01*
X2546351Y2852466D01*
X2560409Y2861859D01*
X2560444Y2861912D01*
X2716955D01*
X2846305Y2732563D01*
X2846293Y2732500D01*
X2849591Y2715918D01*
X2858984Y2701860D01*
X2873042Y2692466D01*
X2889625Y2689168D01*
X2906208Y2692466D01*
X2920265Y2701860D01*
X2929659Y2715918D01*
X2932957Y2732500D01*
X2929659Y2749083D01*
X2929579Y2749203D01*
X2939443Y2757299D01*
X2966680Y2730062D01*
X2966668Y2730000D01*
X2969966Y2713417D01*
X2979360Y2699359D01*
X2993417Y2689966D01*
X3010000Y2686667D01*
X3026583Y2689966D01*
X3040641Y2699359D01*
X3050034Y2713417D01*
X3053332Y2730000D01*
X3050034Y2746583D01*
X3040641Y2760640D01*
X3026583Y2770034D01*
X3010000Y2773332D01*
X3009938Y2773320D01*
X2908793Y2874464D01*
X2909036Y2876922D01*
X2913796Y2887422D01*
X2926583Y2889966D01*
X2940641Y2899359D01*
X2950034Y2913417D01*
X2953332Y2930000D01*
X2950034Y2946583D01*
X2940641Y2960641D01*
X2926583Y2970034D01*
X2910000Y2973332D01*
X2893417Y2970034D01*
X2879359Y2960641D01*
X2869966Y2946583D01*
X2867423Y2933796D01*
X2856922Y2929036D01*
X2854464Y2928793D01*
X2743465Y3039793D01*
Y3070534D01*
X2747397Y3073162D01*
X2756791Y3087220D01*
X2760089Y3103802D01*
X2756791Y3120385D01*
X2747397Y3134443D01*
X2733339Y3143836D01*
X2716757Y3147135D01*
D02*
G37*
G36*
X1550000Y2743332D02*
X1533417Y2740034D01*
X1519359Y2730640D01*
X1509966Y2716583D01*
X1506668Y2700000D01*
X1509966Y2683417D01*
X1519359Y2669359D01*
X1533417Y2659966D01*
X1550000Y2656668D01*
X1566583Y2659966D01*
X1580640Y2669359D01*
X1590034Y2683417D01*
X1593332Y2700000D01*
X1590034Y2716583D01*
X1580640Y2730640D01*
X1566583Y2740034D01*
X1550000Y2743332D01*
D02*
G37*
G36*
X3342500Y2693332D02*
X3325917Y2690034D01*
X3311860Y2680641D01*
X3302466Y2666583D01*
X3299168Y2650000D01*
X3302466Y2633417D01*
X3311860Y2619360D01*
X3325917Y2609966D01*
X3342500Y2606668D01*
X3359083Y2609966D01*
X3373141Y2619360D01*
X3382534Y2633417D01*
X3385832Y2650000D01*
X3382534Y2666583D01*
X3373141Y2680641D01*
X3359083Y2690034D01*
X3342500Y2693332D01*
D02*
G37*
G36*
X2458454Y1712500D02*
X2441546D01*
X2425926Y1706030D01*
X2413970Y1694074D01*
X2407500Y1678454D01*
Y1661546D01*
X2413970Y1645926D01*
X2425926Y1633970D01*
X2441546Y1627500D01*
X2458454D01*
X2474074Y1633970D01*
X2486030Y1645926D01*
X2492500Y1661546D01*
Y1678454D01*
X2486030Y1694074D01*
X2474074Y1706030D01*
X2458454Y1712500D01*
D02*
G37*
G36*
X1158454Y1592500D02*
X1141546D01*
X1125926Y1586030D01*
X1113970Y1574074D01*
X1107500Y1558454D01*
Y1541546D01*
X1113970Y1525926D01*
X1125926Y1513970D01*
X1141546Y1507500D01*
X1158454D01*
X1174074Y1513970D01*
X1186030Y1525926D01*
X1192500Y1541546D01*
Y1558454D01*
X1186030Y1574074D01*
X1174074Y1586030D01*
X1158454Y1592500D01*
D02*
G37*
G36*
X938454Y1522500D02*
X921546D01*
X905926Y1516030D01*
X893970Y1504074D01*
X887500Y1488454D01*
Y1471546D01*
X893970Y1455926D01*
X905926Y1443970D01*
X921546Y1437500D01*
X938454D01*
X954074Y1443970D01*
X966030Y1455926D01*
X972500Y1471546D01*
Y1488454D01*
X966030Y1504074D01*
X954074Y1516030D01*
X938454Y1522500D01*
D02*
G37*
G36*
X3158454Y1492500D02*
X3141546D01*
X3125926Y1486030D01*
X3113970Y1474074D01*
X3107500Y1458454D01*
Y1441546D01*
X3113970Y1425926D01*
X3125926Y1413970D01*
X3141546Y1407500D01*
X3158454D01*
X3174074Y1413970D01*
X3186030Y1425926D01*
X3192500Y1441546D01*
Y1458454D01*
X3186030Y1474074D01*
X3174074Y1486030D01*
X3158454Y1492500D01*
D02*
G37*
G36*
X3778454Y1482500D02*
X3761546D01*
X3745926Y1476030D01*
X3733970Y1464074D01*
X3727500Y1448454D01*
Y1431546D01*
X3733970Y1415926D01*
X3745926Y1403970D01*
X3761546Y1397500D01*
X3778454D01*
X3794074Y1403970D01*
X3806030Y1415926D01*
X3812500Y1431546D01*
Y1448454D01*
X3806030Y1464074D01*
X3794074Y1476030D01*
X3778454Y1482500D01*
D02*
G37*
G36*
X3018454D02*
X3001546D01*
X2985926Y1476030D01*
X2973970Y1464074D01*
X2967500Y1448454D01*
Y1431546D01*
X2973970Y1415926D01*
X2985926Y1403970D01*
X3001546Y1397500D01*
X3018454D01*
X3034074Y1403970D01*
X3046030Y1415926D01*
X3052500Y1431546D01*
Y1448454D01*
X3046030Y1464074D01*
X3034074Y1476030D01*
X3018454Y1482500D01*
D02*
G37*
G36*
X571572Y1563900D02*
X548428D01*
X526072Y1557910D01*
X506028Y1546338D01*
X489662Y1529972D01*
X478090Y1509928D01*
X472100Y1487572D01*
Y1464428D01*
X478090Y1442072D01*
X489662Y1422028D01*
X506028Y1405663D01*
X526072Y1394090D01*
X548428Y1388100D01*
X571572D01*
X593928Y1394090D01*
X613972Y1405663D01*
X630337Y1422028D01*
X641910Y1442072D01*
X647900Y1464428D01*
Y1487572D01*
X641910Y1509928D01*
X630337Y1529972D01*
X613972Y1546338D01*
X593928Y1557910D01*
X571572Y1563900D01*
D02*
G37*
G36*
X2108454Y1472500D02*
X2091546D01*
X2075926Y1466030D01*
X2063970Y1454074D01*
X2057500Y1438454D01*
Y1421546D01*
X2063970Y1405926D01*
X2075926Y1393970D01*
X2091546Y1387500D01*
X2108454D01*
X2124074Y1393970D01*
X2136030Y1405926D01*
X2142500Y1421546D01*
Y1438454D01*
X2136030Y1454074D01*
X2124074Y1466030D01*
X2108454Y1472500D01*
D02*
G37*
G36*
X3838454Y1322500D02*
X3821546D01*
X3805926Y1316030D01*
X3793970Y1304074D01*
X3787500Y1288454D01*
Y1271546D01*
X3793970Y1255926D01*
X3805926Y1243970D01*
X3821546Y1237500D01*
X3838454D01*
X3854074Y1243970D01*
X3866030Y1255926D01*
X3872500Y1271546D01*
Y1288454D01*
X3866030Y1304074D01*
X3854074Y1316030D01*
X3838454Y1322500D01*
D02*
G37*
G36*
X1098454Y1302500D02*
X1081546D01*
X1065926Y1296030D01*
X1053970Y1284074D01*
X1047500Y1268454D01*
Y1251546D01*
X1053970Y1235926D01*
X1065926Y1223970D01*
X1081546Y1217500D01*
X1098454D01*
X1114074Y1223970D01*
X1126030Y1235926D01*
X1132500Y1251546D01*
Y1268454D01*
X1126030Y1284074D01*
X1114074Y1296030D01*
X1098454Y1302500D01*
D02*
G37*
G36*
X1218454Y1292500D02*
X1201546D01*
X1185926Y1286030D01*
X1173970Y1274074D01*
X1167500Y1258454D01*
Y1241546D01*
X1173970Y1225926D01*
X1185926Y1213970D01*
X1201546Y1207500D01*
X1218454D01*
X1234074Y1213970D01*
X1246030Y1225926D01*
X1252500Y1241546D01*
Y1258454D01*
X1246030Y1274074D01*
X1234074Y1286030D01*
X1218454Y1292500D01*
D02*
G37*
G36*
X3438447Y1282497D02*
X3421540D01*
X3405919Y1276027D01*
X3393963Y1264072D01*
X3387493Y1248451D01*
Y1231544D01*
X3393963Y1215923D01*
X3405919Y1203968D01*
X3421540Y1197498D01*
X3438447D01*
X3454067Y1203968D01*
X3466023Y1215923D01*
X3472493Y1231544D01*
Y1248451D01*
X3466023Y1264072D01*
X3454067Y1276027D01*
X3438447Y1282497D01*
D02*
G37*
G36*
X1878454Y1272500D02*
X1861546D01*
X1845926Y1266030D01*
X1833970Y1254074D01*
X1827500Y1238454D01*
Y1221546D01*
X1833970Y1205926D01*
X1845926Y1193970D01*
X1861546Y1187500D01*
X1878454D01*
X1894074Y1193970D01*
X1906030Y1205926D01*
X1912500Y1221546D01*
Y1238454D01*
X1906030Y1254074D01*
X1894074Y1266030D01*
X1878454Y1272500D01*
D02*
G37*
G36*
X3298454Y1242500D02*
X3281546D01*
X3265926Y1236030D01*
X3253970Y1224074D01*
X3247500Y1208454D01*
Y1191546D01*
X3253970Y1175926D01*
X3265926Y1163970D01*
X3281546Y1157500D01*
X3298454D01*
X3314074Y1163970D01*
X3326030Y1175926D01*
X3332500Y1191546D01*
Y1208454D01*
X3326030Y1224074D01*
X3314074Y1236030D01*
X3298454Y1242500D01*
D02*
G37*
G36*
X2375954Y1212500D02*
X2359046D01*
X2343426Y1206030D01*
X2331470Y1194074D01*
X2325000Y1178454D01*
Y1161546D01*
X2331470Y1145926D01*
X2343426Y1133970D01*
X2359046Y1127500D01*
X2375954D01*
X2391574Y1133970D01*
X2403530Y1145926D01*
X2410000Y1161546D01*
Y1178454D01*
X2403530Y1194074D01*
X2391574Y1206030D01*
X2375954Y1212500D01*
D02*
G37*
G36*
X1237109Y1157911D02*
X1220201D01*
X1204581Y1151441D01*
X1192625Y1139485D01*
X1186155Y1123865D01*
Y1106958D01*
X1192625Y1091337D01*
X1204581Y1079382D01*
X1220201Y1072911D01*
X1237109D01*
X1252729Y1079382D01*
X1264685Y1091337D01*
X1271155Y1106958D01*
Y1123865D01*
X1264685Y1139485D01*
X1252729Y1151441D01*
X1237109Y1157911D01*
D02*
G37*
G36*
X2678454Y1112500D02*
X2661546D01*
X2645926Y1106030D01*
X2633970Y1094074D01*
X2627500Y1078454D01*
Y1061546D01*
X2633970Y1045926D01*
X2645926Y1033970D01*
X2661546Y1027500D01*
X2678454D01*
X2694074Y1033970D01*
X2706030Y1045926D01*
X2712500Y1061546D01*
Y1078454D01*
X2706030Y1094074D01*
X2694074Y1106030D01*
X2678454Y1112500D01*
D02*
G37*
G36*
X3636365Y1077500D02*
X3619458D01*
X3603837Y1071030D01*
X3591882Y1059074D01*
X3585411Y1043454D01*
Y1026546D01*
X3591882Y1010926D01*
X3603837Y998970D01*
X3619458Y992500D01*
X3636365D01*
X3651985Y998970D01*
X3663941Y1010926D01*
X3670411Y1026546D01*
Y1043454D01*
X3663941Y1059074D01*
X3651985Y1071030D01*
X3636365Y1077500D01*
D02*
G37*
G36*
X4416744Y770000D02*
X4383257D01*
X4350413Y763467D01*
X4319475Y750652D01*
X4291631Y732048D01*
X4267953Y708369D01*
X4249348Y680525D01*
X4236533Y649587D01*
X4230000Y616743D01*
Y583257D01*
X4236533Y550413D01*
X4249348Y519475D01*
X4267953Y491631D01*
X4291631Y467953D01*
X4319475Y449348D01*
X4350413Y436533D01*
X4383257Y430000D01*
X4416744D01*
X4449587Y436533D01*
X4480525Y449348D01*
X4508369Y467953D01*
X4532048Y491631D01*
X4550652Y519475D01*
X4563467Y550413D01*
X4570000Y583257D01*
Y616743D01*
X4563467Y649587D01*
X4550652Y680525D01*
X4532048Y708369D01*
X4508369Y732048D01*
X4480525Y750652D01*
X4449587Y763467D01*
X4416744Y770000D01*
D02*
G37*
G36*
X316743D02*
X283256D01*
X250413Y763467D01*
X219475Y750652D01*
X191631Y732048D01*
X167952Y708369D01*
X149348Y680525D01*
X136533Y649587D01*
X130000Y616743D01*
Y583257D01*
X136533Y550413D01*
X149348Y519475D01*
X167952Y491631D01*
X191631Y467953D01*
X219475Y449348D01*
X250413Y436533D01*
X283256Y430000D01*
X316743D01*
X349587Y436533D01*
X380525Y449348D01*
X408369Y467953D01*
X432047Y491631D01*
X450652Y519475D01*
X463467Y550413D01*
X470000Y583257D01*
Y616743D01*
X463467Y649587D01*
X450652Y680525D01*
X432047Y708369D01*
X408369Y732048D01*
X380525Y750652D01*
X349587Y763467D01*
X316743Y770000D01*
D02*
G37*
%LPD*%
D16*
X2350000Y1002500D02*
D03*
Y857500D02*
D03*
X3290000Y837500D02*
D03*
Y982500D02*
D03*
X1110000Y857500D02*
D03*
Y1002500D02*
D03*
D33*
X2685217Y3995217D02*
X2690000Y4000000D01*
X2685217Y3970970D02*
Y3995217D01*
X2281706Y3567460D02*
X2685217Y3970970D01*
X2283254Y3717500D02*
X2320000Y3680754D01*
Y3680000D02*
Y3680754D01*
X2281706Y3235521D02*
Y3567460D01*
X2283254Y3717500D02*
Y3933254D01*
X2331179Y3295168D02*
X2335593Y3290754D01*
X2330754Y3343679D02*
X2331179Y3343254D01*
X2330754Y3343679D02*
Y3385000D01*
X2331179Y3295168D02*
Y3343254D01*
X2712877Y3027123D02*
Y3099923D01*
X2716757Y3103802D01*
X2450000Y3430000D02*
X2632392Y3612392D01*
X2642392D01*
X2330754Y3385000D02*
X2470000Y3524246D01*
Y3590000D01*
X2903586Y3210660D02*
X3210000Y2904246D01*
X2903586Y3210660D02*
Y3250660D01*
X2898803Y3255443D02*
X2903586Y3250660D01*
X3210000Y2760000D02*
Y2904246D01*
X2832929Y3342928D02*
X2847072D01*
X2189996Y2699995D02*
X2832929Y3342928D01*
X2881267Y3377123D02*
X2887123D01*
X2847072Y3342928D02*
X2881267Y3377123D01*
X2239765Y3660000D02*
Y3666765D01*
X2230754Y3675776D02*
Y4043007D01*
Y3675776D02*
X2239765Y3666765D01*
X2712877Y3027123D02*
X3010000Y2730000D01*
X2642392Y3612392D02*
X2850000Y3820000D01*
Y3980000D01*
X2050000Y2780000D02*
X2815217Y3545217D01*
X1989996Y2849994D02*
X2805218Y3665217D01*
X2815217Y3545217D02*
Y3565217D01*
X2825217Y3665217D02*
X2830000Y3670000D01*
X2815217Y3565217D02*
X2820000Y3570000D01*
X2805218Y3665217D02*
X2825217D01*
X2156973Y2771973D02*
X2860000Y3475000D01*
X2156973Y2766973D02*
Y2771973D01*
X2860000Y3475000D02*
Y3480000D01*
X2253000Y4065253D02*
Y4436000D01*
X2230754Y4043007D02*
X2253000Y4065253D01*
X2283254Y3933254D02*
X2497500Y4147500D01*
X2950000D01*
X2997392Y2982608D02*
X3007392D01*
X2870000Y3110000D02*
X2997392Y2982608D01*
X3007392D02*
X3130000Y2860000D01*
Y2740000D02*
Y2860000D01*
X1162500Y2002500D02*
X1857500D01*
X1130000Y1970000D02*
X1162500Y2002500D01*
X1857500D02*
X2000000Y1860000D01*
X2100000Y1960000D02*
X2890000D01*
X2000000Y1860000D02*
X2100000Y1960000D01*
X2802500Y2130000D02*
X3010000Y1922500D01*
X3660000Y3144246D02*
Y3230000D01*
X3161746Y2637500D02*
X3367500Y2843254D01*
Y2851746D02*
X3660000Y3144246D01*
X2118254Y2637500D02*
X3161746D01*
X3367500Y2843254D02*
Y2851746D01*
X1920000Y2835754D02*
X2118254Y2637500D01*
X1920000Y2835754D02*
Y3090000D01*
X1320000Y2130000D02*
X2802500D01*
X2529768Y2892500D02*
X2729625D01*
X2889625Y2732500D01*
X3551549Y4674000D02*
X3563000D01*
D35*
X2540000Y1880000D02*
X2612500Y1807500D01*
X3362500D01*
X4100000Y1730500D02*
Y1800000D01*
X4099000Y1730500D02*
X4100000D01*
D38*
X4400000Y4700000D02*
D03*
X300000Y600000D02*
D03*
X4400000D02*
D03*
X300000Y4700000D02*
D03*
D39*
X149640Y2973867D02*
D03*
Y3633867D02*
D03*
D40*
X3817000Y4674000D02*
D03*
X2634000Y4690000D02*
D03*
X1507000Y4674000D02*
D03*
D41*
X3690000Y4420000D02*
D03*
X3563000Y4674000D02*
D03*
X3436000Y4420000D02*
D03*
X560000Y1730000D02*
D03*
X306000Y1603000D02*
D03*
X560000Y1476000D02*
D03*
X2507000Y4436000D02*
D03*
X2380000Y4690000D02*
D03*
X2253000Y4436000D02*
D03*
X1380000Y4420000D02*
D03*
X1253000Y4674000D02*
D03*
X1126000Y4420000D02*
D03*
D42*
X3957000Y4494000D02*
D03*
X486000Y1997000D02*
D03*
X2774000Y4510000D02*
D03*
X1647000Y4494000D02*
D03*
D43*
X306000Y1857000D02*
D03*
D44*
X2320000Y3680000D02*
D03*
X2335593Y3290754D02*
D03*
X2716757Y3103802D02*
D03*
X2450000Y3430000D02*
D03*
X2898803Y3255443D02*
D03*
X2887123Y3377123D02*
D03*
X2239765Y3660000D02*
D03*
X2281706Y3235521D02*
D03*
X2470000Y3590000D02*
D03*
X1930000Y3940000D02*
D03*
X1790000Y3950000D02*
D03*
X2160000Y4060000D02*
D03*
X2830000Y3670000D02*
D03*
X3260000Y770000D02*
D03*
X3330000Y980000D02*
D03*
X3269993Y979998D02*
D03*
X2160000Y790000D02*
D03*
Y860000D02*
D03*
Y1012500D02*
D03*
X2460000Y3970000D02*
D03*
X930000Y1480000D02*
D03*
X2100000Y1430000D02*
D03*
X1870000Y1230000D02*
D03*
X3010000Y1440000D02*
D03*
X3150000Y1450000D02*
D03*
X3830000Y1280000D02*
D03*
X3680000Y1294853D02*
D03*
X3627911Y1035000D02*
D03*
X3310000Y1900000D02*
D03*
X3362500Y1807500D02*
D03*
X2670000Y1070000D02*
D03*
X2870000Y3110000D02*
D03*
X2450000Y1670000D02*
D03*
X1550000Y1950000D02*
D03*
X2850000Y3980000D02*
D03*
X1550000Y2700000D02*
D03*
X880000Y3140000D02*
D03*
X500000Y3170000D02*
D03*
X550000Y4170000D02*
D03*
X3320000Y840000D02*
D03*
X3460000Y830000D02*
D03*
X3530000D02*
D03*
X3540000Y760000D02*
D03*
X3520000Y980000D02*
D03*
X3460000D02*
D03*
X1110000Y990000D02*
D03*
X1040000D02*
D03*
X1310000D02*
D03*
X1290000Y830000D02*
D03*
X1220000Y840000D02*
D03*
X1110000D02*
D03*
X1030000D02*
D03*
X1309997Y769998D02*
D03*
X3630000Y3420000D02*
D03*
X3290000Y1200000D02*
D03*
X1150000Y1550000D02*
D03*
X1090000Y1260000D02*
D03*
X1210000Y1250000D02*
D03*
X2690000Y2050000D02*
D03*
X2370000Y2022500D02*
D03*
X2540000Y1880000D02*
D03*
X2890000Y1960000D02*
D03*
X2000000Y1860000D02*
D03*
X1130000Y1970000D02*
D03*
X3250000Y3540000D02*
D03*
X4100000Y1800000D02*
D03*
X3890000Y1900000D02*
D03*
X3770000Y1440000D02*
D03*
X3342500Y2000000D02*
D03*
X3010000Y1922500D02*
D03*
X3420000Y2830000D02*
D03*
X3600000Y2760000D02*
D03*
X3342500Y2650000D02*
D03*
X4480000Y3100000D02*
D03*
X3260000Y2980000D02*
D03*
Y3120000D02*
D03*
X1340000Y3930000D02*
D03*
X1270000Y3970000D02*
D03*
X1180000Y4190000D02*
D03*
X1710000Y3730000D02*
D03*
X1260000Y990000D02*
D03*
X2430000Y1012500D02*
D03*
X2250000D02*
D03*
X3260000Y840000D02*
D03*
X2250000Y870000D02*
D03*
X2360000D02*
D03*
X2430000D02*
D03*
Y800000D02*
D03*
X1020000Y770000D02*
D03*
X1228655Y1115411D02*
D03*
X650000Y3820000D02*
D03*
X4440000Y990000D02*
D03*
X4540000Y1170000D02*
D03*
X4640000D02*
D03*
X4440000D02*
D03*
X4540000Y990000D02*
D03*
X4640000D02*
D03*
Y1080000D02*
D03*
X4440000D02*
D03*
X4540000D02*
D03*
X4550000Y1570000D02*
D03*
X250000Y4340000D02*
D03*
X2330000Y1012500D02*
D03*
X2270000Y2690000D02*
D03*
X2530000Y2760000D02*
D03*
X2529768Y2892500D02*
D03*
X2360000Y4150000D02*
D03*
X3429993Y1239998D02*
D03*
X2645814Y2714185D02*
D03*
X2344948Y2697448D02*
D03*
X2189996Y2699995D02*
D03*
X2950000Y4147500D02*
D03*
X2910000Y2930000D02*
D03*
X3010000Y2730000D02*
D03*
X1320000Y2130000D02*
D03*
X2889625Y2732500D02*
D03*
X3210000Y2760000D02*
D03*
X3130000Y2740000D02*
D03*
X2156973Y2766973D02*
D03*
X2367500Y1170000D02*
D03*
X1989996Y2849994D02*
D03*
X2690000Y4000000D02*
D03*
X4620000Y3220000D02*
D03*
X4600000Y3360000D02*
D03*
X4610000Y3610000D02*
D03*
X2860000Y3480000D02*
D03*
X2820000Y3570000D02*
D03*
X3660000Y3230000D02*
D03*
X1920000Y3090000D02*
D03*
X2050000Y2780000D02*
D03*
X4450000Y1470000D02*
D03*
Y1570000D02*
D03*
Y1670000D02*
D03*
X4550000D02*
D03*
Y1470000D02*
D03*
X4650000D02*
D03*
Y1570000D02*
D03*
Y1670000D02*
D03*
D52*
X3760000Y1012624D02*
D03*
Y827376D02*
D03*
X3510000Y1012624D02*
D03*
Y827376D02*
D03*
X3060000Y1012624D02*
D03*
Y827376D02*
D03*
X4000000Y1012624D02*
D03*
Y827376D02*
D03*
X2790000Y1012624D02*
D03*
Y827376D02*
D03*
X2550000Y1012624D02*
D03*
Y827376D02*
D03*
X2100000Y1002624D02*
D03*
Y817376D02*
D03*
X1830000Y1002624D02*
D03*
Y817376D02*
D03*
X1330000Y1002624D02*
D03*
Y817376D02*
D03*
X930000Y1012624D02*
D03*
Y827376D02*
D03*
X1560000Y1002624D02*
D03*
Y817376D02*
D03*
X720000Y1012624D02*
D03*
Y827376D02*
D03*
D53*
X4099000Y1603500D02*
D03*
Y1476500D02*
D03*
Y1349500D02*
D03*
Y1730500D02*
D03*
D54*
X4470000Y1540000D02*
D03*
%TF.MD5,9744745bb570797d52431283371a3307*%
M02*
