%TF.GenerationSoftware,Altium Limited,Altium Designer,22.10.1 (41)*%
G04 Layer_Color=65535*
%FSLAX45Y45*%
%MOMM*%
%TF.SameCoordinates,79C1CFBE-EB9A-408B-862A-4DB21413197E*%
%TF.FilePolarity,Positive*%
%TF.FileFunction,Legend,Top*%
%TF.Part,Single*%
G01*
G75*
%TA.AperFunction,NonConductor*%
%ADD47C,0.25400*%
%ADD55C,0.20000*%
%ADD56C,0.12700*%
%ADD66C,0.25000*%
D47*
X3090700Y3051700D02*
G03*
X3090700Y3051700I-12700J0D01*
G01*
X125400Y1265368D02*
X192045D01*
X158723D01*
Y1165400D01*
X225368Y1265368D02*
Y1165400D01*
Y1215384D01*
X292013D01*
Y1265368D01*
Y1165400D01*
X325336D02*
Y1265368D01*
X375320D01*
X391981Y1248706D01*
Y1215384D01*
X375320Y1198723D01*
X325336D01*
X358658D02*
X391981Y1165400D01*
X475287Y1265368D02*
X441965D01*
X425303Y1248706D01*
Y1182061D01*
X441965Y1165400D01*
X475287D01*
X491948Y1182061D01*
Y1248706D01*
X475287Y1265368D01*
X525271D02*
Y1165400D01*
X558594Y1198723D01*
X591916Y1165400D01*
Y1265368D01*
X691884D02*
X625239D01*
Y1165400D01*
X691884D01*
X625239Y1215384D02*
X658562D01*
X725207Y1165400D02*
Y1265368D01*
X775191D01*
X791852Y1248706D01*
Y1215384D01*
X775191Y1198723D01*
X725207D01*
X758529D02*
X791852Y1165400D01*
X175368Y4134600D02*
X92061D01*
X75400Y4117939D01*
Y4084616D01*
X92061Y4067955D01*
X175368D01*
X158706Y3967987D02*
X175368Y3984648D01*
Y4017971D01*
X158706Y4034632D01*
X142045D01*
X125384Y4017971D01*
Y3984648D01*
X108722Y3967987D01*
X92061D01*
X75400Y3984648D01*
Y4017971D01*
X92061Y4034632D01*
X175368Y3934664D02*
X75400D01*
Y3884681D01*
X92061Y3868019D01*
X108722D01*
X125384Y3884681D01*
Y3934664D01*
Y3884681D01*
X142045Y3868019D01*
X158706D01*
X175368Y3884681D01*
Y3934664D01*
X4230032Y950000D02*
X4330000D01*
Y999984D01*
X4313339Y1016645D01*
X4296677D01*
X4280016Y999984D01*
Y950000D01*
Y999984D01*
X4263355Y1016645D01*
X4246694D01*
X4230032Y999984D01*
Y950000D01*
X4330000Y1049968D02*
X4263355D01*
X4230032Y1083290D01*
X4263355Y1116613D01*
X4330000D01*
X4280016D01*
Y1049968D01*
X4230032Y1149935D02*
Y1216580D01*
Y1183258D01*
X4330000D01*
X4280016Y1249903D02*
Y1316548D01*
X3665400Y2858723D02*
Y2958690D01*
X3715384D01*
X3732045Y2942029D01*
Y2908706D01*
X3715384Y2892045D01*
X3665400D01*
X3765368Y2925368D02*
Y2858723D01*
Y2892045D01*
X3782029Y2908706D01*
X3798690Y2925368D01*
X3815352D01*
X3881997Y2858723D02*
X3915320D01*
X3931981Y2875384D01*
Y2908706D01*
X3915320Y2925368D01*
X3881997D01*
X3865336Y2908706D01*
Y2875384D01*
X3881997Y2858723D01*
X3998626Y2825400D02*
X4015287D01*
X4031949Y2842061D01*
Y2925368D01*
X3981965D01*
X3965303Y2908706D01*
Y2875384D01*
X3981965Y2858723D01*
X4031949D01*
X4065271Y2925368D02*
Y2858723D01*
Y2892045D01*
X4081933Y2908706D01*
X4098594Y2925368D01*
X4115255D01*
X4181900D02*
X4215223D01*
X4231884Y2908706D01*
Y2858723D01*
X4181900D01*
X4165239Y2875384D01*
X4181900Y2892045D01*
X4231884D01*
X4265207Y2858723D02*
Y2925368D01*
X4281868D01*
X4298529Y2908706D01*
Y2858723D01*
Y2908706D01*
X4315191Y2925368D01*
X4331852Y2908706D01*
Y2858723D01*
X4365175D02*
Y2925368D01*
X4381836D01*
X4398497Y2908706D01*
Y2858723D01*
Y2908706D01*
X4415159Y2925368D01*
X4431820Y2908706D01*
Y2858723D01*
X4515126D02*
X4481804D01*
X4465142Y2875384D01*
Y2908706D01*
X4481804Y2925368D01*
X4515126D01*
X4531787Y2908706D01*
Y2892045D01*
X4465142D01*
X4565110Y2925368D02*
Y2858723D01*
Y2892045D01*
X4581772Y2908706D01*
X4598433Y2925368D01*
X4615094D01*
X212045Y2515400D02*
X145400D01*
X212045Y2582045D01*
Y2598707D01*
X195384Y2615368D01*
X162061D01*
X145400Y2598707D01*
X245368D02*
X262029Y2615368D01*
X295352D01*
X312013Y2598707D01*
Y2532061D01*
X295352Y2515400D01*
X262029D01*
X245368Y2532061D01*
Y2598707D01*
X411981Y2515400D02*
X345336D01*
X411981Y2582045D01*
Y2598707D01*
X395320Y2615368D01*
X361997D01*
X345336Y2598707D01*
X511948Y2515400D02*
X445303D01*
X511948Y2582045D01*
Y2598707D01*
X495287Y2615368D01*
X461965D01*
X445303Y2598707D01*
X125400Y2788690D02*
X192045D01*
X158723D01*
Y2688723D01*
X275352D02*
X242029D01*
X225368Y2705384D01*
Y2738706D01*
X242029Y2755368D01*
X275352D01*
X292013Y2738706D01*
Y2722045D01*
X225368D01*
X325336Y2688723D02*
X358658D01*
X341997D01*
Y2788690D01*
X325336D01*
X458626Y2688723D02*
X425303D01*
X408642Y2705384D01*
Y2738706D01*
X425303Y2755368D01*
X458626D01*
X475287Y2738706D01*
Y2722045D01*
X408642D01*
X525271Y2772029D02*
Y2755368D01*
X508610D01*
X541932D01*
X525271D01*
Y2705384D01*
X541932Y2688723D01*
X591916Y2755368D02*
Y2705384D01*
X608578Y2688723D01*
X658561D01*
Y2755368D01*
X691884Y2655400D02*
Y2755368D01*
X741868D01*
X758529Y2738706D01*
Y2705384D01*
X741868Y2688723D01*
X691884D01*
X791852D02*
X841836D01*
X858497Y2705384D01*
X841836Y2722045D01*
X808513D01*
X791852Y2738706D01*
X808513Y2755368D01*
X858497D01*
X891820D02*
Y2705384D01*
X908481Y2688723D01*
X958465D01*
Y2755368D01*
X1058432Y2788690D02*
Y2688723D01*
X1008449D01*
X991787Y2705384D01*
Y2738706D01*
X1008449Y2755368D01*
X1058432D01*
X4214632Y1475400D02*
X4314600D01*
Y1525384D01*
X4297939Y1542045D01*
X4281277D01*
X4264616Y1525384D01*
Y1475400D01*
Y1525384D01*
X4247955Y1542045D01*
X4231294D01*
X4214632Y1525384D01*
Y1475400D01*
X4314600Y1575368D02*
X4247955D01*
X4214632Y1608690D01*
X4247955Y1642013D01*
X4314600D01*
X4264616D01*
Y1575368D01*
X4214632Y1675335D02*
Y1741981D01*
Y1708658D01*
X4314600D01*
X4264616Y1775303D02*
Y1841948D01*
X4231294Y1808626D02*
X4297939D01*
X3055400Y4455400D02*
Y4555368D01*
X3088723Y4522045D01*
X3122045Y4555368D01*
Y4455400D01*
X3155368Y4538706D02*
X3172029Y4555368D01*
X3205352D01*
X3222013Y4538706D01*
Y4522045D01*
X3205352Y4505384D01*
X3188690D01*
X3205352D01*
X3222013Y4488723D01*
Y4472061D01*
X3205352Y4455400D01*
X3172029D01*
X3155368Y4472061D01*
X1835400Y4465400D02*
Y4565368D01*
X1868722Y4532045D01*
X1902045Y4565368D01*
Y4465400D01*
X2002013D02*
X1935368D01*
X2002013Y4532045D01*
Y4548706D01*
X1985352Y4565368D01*
X1952029D01*
X1935368Y4548706D01*
X755400Y4465400D02*
Y4565368D01*
X788723Y4532045D01*
X822045Y4565368D01*
Y4465400D01*
X855368D02*
X888690D01*
X872029D01*
Y4565368D01*
X855368Y4548706D01*
X3335400Y535400D02*
Y635368D01*
X3368722Y602045D01*
X3402045Y635368D01*
Y535400D01*
X3435368Y618706D02*
X3452029Y635368D01*
X3485352D01*
X3502013Y618706D01*
Y602045D01*
X3485352Y585384D01*
X3468690D01*
X3485352D01*
X3502013Y568723D01*
Y552061D01*
X3485352Y535400D01*
X3452029D01*
X3435368Y552061D01*
X2195400Y555400D02*
Y655368D01*
X2228722Y622045D01*
X2262045Y655368D01*
Y555400D01*
X2362013D02*
X2295368D01*
X2362013Y622045D01*
Y638706D01*
X2345352Y655368D01*
X2312029D01*
X2295368Y638706D01*
X1085400Y545400D02*
Y645368D01*
X1118722Y612045D01*
X1152045Y645368D01*
Y545400D01*
X1185368D02*
X1218690D01*
X1202029D01*
Y645368D01*
X1185368Y628706D01*
D55*
X2556100Y2431600D02*
G03*
X2556100Y2431600I-10000J0D01*
G01*
X3636100D02*
G03*
X3636100Y2431600I-10000J0D01*
G01*
X724900Y4032400D02*
G03*
X724900Y4032400I-10000J0D01*
G01*
X3607600Y1474900D02*
G03*
X3607600Y1474900I-10000J0D01*
G01*
X509640Y3503867D02*
G03*
X509640Y3503867I-10000J0D01*
G01*
X3827000Y4874800D02*
G03*
X3827000Y4874800I-10000J0D01*
G01*
X115200Y1857000D02*
G03*
X115200Y1857000I-10000J0D01*
G01*
X2644000Y4890800D02*
G03*
X2644000Y4890800I-10000J0D01*
G01*
X1517000Y4874800D02*
G03*
X1517000Y4874800I-10000J0D01*
G01*
X1005000Y1197500D02*
Y1215000D01*
X1315000Y1197500D02*
Y1215000D01*
X1285000D02*
X1315000D01*
X1005000D02*
X1035000D01*
X395000Y3905000D02*
Y4075000D01*
X225000Y3905000D02*
Y4075000D01*
X3245000Y1205000D02*
X3275000D01*
X3525000D02*
X3555000D01*
Y1187500D02*
Y1205000D01*
X3245000Y1187500D02*
Y1205000D01*
X2145000Y1240000D02*
X2175000D01*
X2425000D02*
X2455000D01*
Y1222500D02*
Y1240000D01*
X2145000Y1222500D02*
Y1240000D01*
X4082434Y3670500D02*
X4150567D01*
X4082434Y3035500D02*
X4150567D01*
X740000Y3377500D02*
X1030000D01*
X740000Y3287500D02*
X1030000D01*
Y3377500D01*
X740000Y3287500D02*
Y3377500D01*
D56*
X3981500Y4604000D02*
Y4807000D01*
Y4287000D02*
Y4384000D01*
X3274500Y4287000D02*
X3981500D01*
X3274500D02*
Y4807000D01*
X3981500D01*
X173000Y2021500D02*
X376000D01*
X596000D02*
X693000D01*
Y1314500D02*
Y2021500D01*
X173000Y1314500D02*
X693000D01*
X173000D02*
Y2021500D01*
X2798500Y4620000D02*
Y4823000D01*
Y4303000D02*
Y4400000D01*
X2091500Y4303000D02*
X2798500D01*
X2091500D02*
Y4823000D01*
X2798500D01*
X1671500Y4604000D02*
Y4807000D01*
Y4287000D02*
Y4384000D01*
X964500Y4287000D02*
X1671500D01*
X964500D02*
Y4807000D01*
X1671500D01*
D66*
X1441400Y3703800D02*
G03*
X1441400Y3703800I-12500J0D01*
G01*
X3438700Y3378900D02*
G03*
X3438700Y3378900I-12500J0D01*
G01*
X940000Y1147500D02*
G03*
X940000Y1147500I-12500J0D01*
G01*
X322500Y4170000D02*
G03*
X322500Y4170000I-12500J0D01*
G01*
X3180000Y1137500D02*
G03*
X3180000Y1137500I-12500J0D01*
G01*
X2080000Y1172500D02*
G03*
X2080000Y1172500I-12500J0D01*
G01*
X4527000Y3099000D02*
G03*
X4527000Y3099000I-12500J0D01*
G01*
X717500Y3210000D02*
G03*
X717500Y3210000I-12500J0D01*
G01*
%TF.MD5,96854000b14c7e4d11739fc7378f5b62*%
M02*
