%TF.GenerationSoftware,Altium Limited,Altium Designer,22.10.1 (41)*%
G04 Layer_Color=8388736*
%FSLAX45Y45*%
%MOMM*%
%TF.SameCoordinates,79C1CFBE-EB9A-408B-862A-4DB21413197E*%
%TF.FilePolarity,Negative*%
%TF.FileFunction,Soldermask,Top*%
%TF.Part,Single*%
G01*
G75*
%TA.AperFunction,SMDPad,CuDef*%
%ADD12R,0.80000X0.80000*%
%ADD13R,0.80000X0.80000*%
%ADD57R,1.15000X1.05000*%
%TA.AperFunction,WasherPad*%
%ADD60C,3.10000*%
%TA.AperFunction,ComponentPad*%
%ADD61O,1.90000X1.00000*%
%ADD62R,1.45800X1.45800*%
%ADD63C,1.45800*%
%ADD64C,1.65000*%
%ADD65R,1.45800X1.45800*%
%TA.AperFunction,SMDPad,CuDef*%
%ADD67R,0.60000X1.60000*%
%ADD68R,1.60000X0.60000*%
%ADD69R,1.05000X0.90000*%
G04:AMPARAMS|DCode=70|XSize=2.07mm|YSize=0.69mm|CornerRadius=0.12375mm|HoleSize=0mm|Usage=FLASHONLY|Rotation=270.000|XOffset=0mm|YOffset=0mm|HoleType=Round|Shape=RoundedRectangle|*
%AMROUNDEDRECTD70*
21,1,2.07000,0.44250,0,0,270.0*
21,1,1.82250,0.69000,0,0,270.0*
1,1,0.24750,-0.22125,-0.91125*
1,1,0.24750,-0.22125,0.91125*
1,1,0.24750,0.22125,0.91125*
1,1,0.24750,0.22125,-0.91125*
%
%ADD70ROUNDEDRECTD70*%
%ADD71R,1.05000X1.15000*%
%ADD72R,3.10000X3.10000*%
G04:AMPARAMS|DCode=73|XSize=1.52mm|YSize=0.68mm|CornerRadius=0.1225mm|HoleSize=0mm|Usage=FLASHONLY|Rotation=0.000|XOffset=0mm|YOffset=0mm|HoleType=Round|Shape=RoundedRectangle|*
%AMROUNDEDRECTD73*
21,1,1.52000,0.43500,0,0,0.0*
21,1,1.27500,0.68000,0,0,0.0*
1,1,0.24500,0.63750,-0.21750*
1,1,0.24500,-0.63750,-0.21750*
1,1,0.24500,-0.63750,0.21750*
1,1,0.24500,0.63750,0.21750*
%
%ADD73ROUNDEDRECTD73*%
G04:AMPARAMS|DCode=74|XSize=1.52mm|YSize=0.68mm|CornerRadius=0.1225mm|HoleSize=0mm|Usage=FLASHONLY|Rotation=90.000|XOffset=0mm|YOffset=0mm|HoleType=Round|Shape=RoundedRectangle|*
%AMROUNDEDRECTD74*
21,1,1.52000,0.43500,0,0,90.0*
21,1,1.27500,0.68000,0,0,90.0*
1,1,0.24500,0.21750,0.63750*
1,1,0.24500,0.21750,-0.63750*
1,1,0.24500,-0.21750,-0.63750*
1,1,0.24500,-0.21750,0.63750*
%
%ADD74ROUNDEDRECTD74*%
%ADD75R,2.00000X2.00000*%
%ADD76R,1.50000X1.70000*%
%ADD77R,1.45000X0.50000*%
%ADD78R,0.90000X1.05000*%
%ADD79R,2.89000X0.84000*%
%ADD80R,0.70000X0.85000*%
%ADD81R,3.10000X3.10000*%
G36*
X2388164Y1258478D02*
X2390977Y1255664D01*
X2392500Y1251989D01*
Y1250000D01*
Y1200000D01*
Y1198011D01*
X2390977Y1194335D01*
X2388164Y1191522D01*
X2384489Y1190000D01*
X2365511D01*
X2361835Y1191522D01*
X2359022Y1194335D01*
X2357500Y1198011D01*
Y1200000D01*
Y1250000D01*
Y1251989D01*
X2359022Y1255664D01*
X2361835Y1258478D01*
X2365511Y1260000D01*
X2384489D01*
X2388164Y1258478D01*
D02*
G37*
G36*
X2338164D02*
X2340978Y1255664D01*
X2342500Y1251989D01*
Y1250000D01*
Y1200000D01*
Y1198011D01*
X2340978Y1194335D01*
X2338164Y1191522D01*
X2334489Y1190000D01*
X2315511D01*
X2311835Y1191522D01*
X2309022Y1194335D01*
X2307500Y1198011D01*
Y1200000D01*
Y1250000D01*
Y1251989D01*
X2309022Y1255664D01*
X2311835Y1258478D01*
X2315511Y1260000D01*
X2334489D01*
X2338164Y1258478D01*
D02*
G37*
G36*
X2288164D02*
X2290977Y1255664D01*
X2292500Y1251989D01*
Y1250000D01*
Y1200000D01*
Y1198011D01*
X2290977Y1194335D01*
X2288164Y1191522D01*
X2284489Y1190000D01*
X2265511D01*
X2261835Y1191522D01*
X2259022Y1194335D01*
X2257500Y1198011D01*
Y1200000D01*
Y1250000D01*
Y1251989D01*
X2259022Y1255664D01*
X2261835Y1258478D01*
X2265511Y1260000D01*
X2284489D01*
X2288164Y1258478D01*
D02*
G37*
G36*
X2238164D02*
X2240977Y1255664D01*
X2242500Y1251989D01*
Y1250000D01*
Y1200000D01*
Y1198011D01*
X2240977Y1194335D01*
X2238164Y1191522D01*
X2234489Y1190000D01*
X2215511D01*
X2211835Y1191522D01*
X2209022Y1194335D01*
X2207500Y1198011D01*
Y1200000D01*
Y1250000D01*
Y1251989D01*
X2209022Y1255664D01*
X2211835Y1258478D01*
X2215511Y1260000D01*
X2234489D01*
X2238164Y1258478D01*
D02*
G37*
G36*
X1248164Y1233478D02*
X1250977Y1230665D01*
X1252500Y1226989D01*
Y1225000D01*
Y1175000D01*
Y1173011D01*
X1250977Y1169335D01*
X1248164Y1166522D01*
X1244489Y1165000D01*
X1225511D01*
X1221835Y1166522D01*
X1219022Y1169335D01*
X1217500Y1173011D01*
Y1175000D01*
Y1225000D01*
Y1226989D01*
X1219022Y1230665D01*
X1221835Y1233478D01*
X1225511Y1235000D01*
X1244489D01*
X1248164Y1233478D01*
D02*
G37*
G36*
X1198164D02*
X1200978Y1230665D01*
X1202500Y1226989D01*
Y1225000D01*
Y1175000D01*
Y1173011D01*
X1200978Y1169335D01*
X1198164Y1166522D01*
X1194489Y1165000D01*
X1175511D01*
X1171835Y1166522D01*
X1169022Y1169335D01*
X1167500Y1173011D01*
Y1175000D01*
Y1225000D01*
Y1226989D01*
X1169022Y1230665D01*
X1171835Y1233478D01*
X1175511Y1235000D01*
X1194489D01*
X1198164Y1233478D01*
D02*
G37*
G36*
X1148164D02*
X1150977Y1230665D01*
X1152500Y1226989D01*
Y1225000D01*
Y1175000D01*
Y1173011D01*
X1150977Y1169335D01*
X1148164Y1166522D01*
X1144489Y1165000D01*
X1125511D01*
X1121835Y1166522D01*
X1119022Y1169335D01*
X1117500Y1173011D01*
Y1175000D01*
Y1225000D01*
Y1226989D01*
X1119022Y1230665D01*
X1121835Y1233478D01*
X1125511Y1235000D01*
X1144489D01*
X1148164Y1233478D01*
D02*
G37*
G36*
X1098164D02*
X1100977Y1230665D01*
X1102500Y1226989D01*
Y1225000D01*
Y1175000D01*
Y1173011D01*
X1100977Y1169335D01*
X1098164Y1166522D01*
X1094489Y1165000D01*
X1075511D01*
X1071835Y1166522D01*
X1069022Y1169335D01*
X1067500Y1173011D01*
Y1175000D01*
Y1225000D01*
Y1226989D01*
X1069022Y1230665D01*
X1071835Y1233478D01*
X1075511Y1235000D01*
X1094489D01*
X1098164Y1233478D01*
D02*
G37*
G36*
X3488164Y1223478D02*
X3490978Y1220665D01*
X3492500Y1216989D01*
Y1215000D01*
Y1165000D01*
Y1163011D01*
X3490978Y1159335D01*
X3488164Y1156522D01*
X3484489Y1155000D01*
X3465511D01*
X3461835Y1156522D01*
X3459022Y1159335D01*
X3457500Y1163011D01*
Y1165000D01*
Y1215000D01*
Y1216989D01*
X3459022Y1220665D01*
X3461835Y1223478D01*
X3465511Y1225000D01*
X3484489D01*
X3488164Y1223478D01*
D02*
G37*
G36*
X3438165D02*
X3440978Y1220665D01*
X3442500Y1216989D01*
Y1215000D01*
Y1165000D01*
Y1163011D01*
X3440978Y1159335D01*
X3438165Y1156522D01*
X3434489Y1155000D01*
X3415511D01*
X3411835Y1156522D01*
X3409022Y1159335D01*
X3407500Y1163011D01*
Y1165000D01*
Y1215000D01*
Y1216989D01*
X3409022Y1220665D01*
X3411835Y1223478D01*
X3415511Y1225000D01*
X3434489D01*
X3438165Y1223478D01*
D02*
G37*
G36*
X3388164D02*
X3390977Y1220665D01*
X3392500Y1216989D01*
Y1215000D01*
Y1165000D01*
Y1163011D01*
X3390977Y1159335D01*
X3388164Y1156522D01*
X3384489Y1155000D01*
X3365511D01*
X3361835Y1156522D01*
X3359022Y1159335D01*
X3357500Y1163011D01*
Y1165000D01*
Y1215000D01*
Y1216989D01*
X3359022Y1220665D01*
X3361835Y1223478D01*
X3365511Y1225000D01*
X3384489D01*
X3388164Y1223478D01*
D02*
G37*
G36*
X3338165D02*
X3340978Y1220665D01*
X3342500Y1216989D01*
Y1215000D01*
Y1165000D01*
Y1163011D01*
X3340978Y1159335D01*
X3338165Y1156522D01*
X3334489Y1155000D01*
X3315511D01*
X3311835Y1156522D01*
X3309022Y1159335D01*
X3307500Y1163011D01*
Y1165000D01*
Y1215000D01*
Y1216989D01*
X3309022Y1220665D01*
X3311835Y1223478D01*
X3315511Y1225000D01*
X3334489D01*
X3338165Y1223478D01*
D02*
G37*
G36*
X2470664Y1188477D02*
X2473477Y1185664D01*
X2475000Y1181989D01*
Y1180000D01*
Y1165000D01*
Y1163011D01*
X2473477Y1159335D01*
X2470664Y1156522D01*
X2466989Y1155000D01*
X2413011D01*
X2409335Y1156522D01*
X2406522Y1159335D01*
X2405000Y1163011D01*
Y1165000D01*
Y1180000D01*
Y1181989D01*
X2406522Y1185664D01*
X2409335Y1188477D01*
X2413011Y1190000D01*
X2466989D01*
X2470664Y1188477D01*
D02*
G37*
G36*
X2190664D02*
X2193477Y1185664D01*
X2195000Y1181989D01*
Y1180000D01*
Y1165000D01*
Y1163011D01*
X2193477Y1159335D01*
X2190664Y1156522D01*
X2186989Y1155000D01*
X2133011D01*
X2129335Y1156522D01*
X2126522Y1159335D01*
X2125000Y1163011D01*
Y1165000D01*
Y1180000D01*
Y1181989D01*
X2126522Y1185664D01*
X2129335Y1188477D01*
X2133011Y1190000D01*
X2186989D01*
X2190664Y1188477D01*
D02*
G37*
G36*
X1330664Y1163477D02*
X1333477Y1160664D01*
X1335000Y1156989D01*
Y1155000D01*
Y1140000D01*
Y1138011D01*
X1333477Y1134335D01*
X1330664Y1131522D01*
X1326989Y1130000D01*
X1273011D01*
X1269335Y1131522D01*
X1266522Y1134335D01*
X1265000Y1138011D01*
Y1140000D01*
Y1155000D01*
Y1156989D01*
X1266522Y1160664D01*
X1269335Y1163477D01*
X1273011Y1165000D01*
X1326989D01*
X1330664Y1163477D01*
D02*
G37*
G36*
X1050664D02*
X1053477Y1160664D01*
X1055000Y1156989D01*
Y1155000D01*
Y1140000D01*
Y1138011D01*
X1053477Y1134335D01*
X1050664Y1131522D01*
X1046989Y1130000D01*
X993011D01*
X989335Y1131522D01*
X986522Y1134335D01*
X985000Y1138011D01*
Y1140000D01*
Y1155000D01*
Y1156989D01*
X986522Y1160664D01*
X989335Y1163477D01*
X993011Y1165000D01*
X1046989D01*
X1050664Y1163477D01*
D02*
G37*
G36*
X3570664Y1153477D02*
X3573477Y1150664D01*
X3575000Y1146989D01*
Y1145000D01*
Y1130000D01*
Y1128011D01*
X3573477Y1124335D01*
X3570664Y1121522D01*
X3566989Y1120000D01*
X3513011D01*
X3509335Y1121522D01*
X3506522Y1124335D01*
X3505000Y1128011D01*
Y1130000D01*
Y1145000D01*
Y1146989D01*
X3506522Y1150664D01*
X3509335Y1153477D01*
X3513011Y1155000D01*
X3566989D01*
X3570664Y1153477D01*
D02*
G37*
G36*
X3290664D02*
X3293478Y1150664D01*
X3295000Y1146989D01*
Y1145000D01*
Y1130000D01*
Y1128011D01*
X3293478Y1124335D01*
X3290664Y1121522D01*
X3286989Y1120000D01*
X3233011D01*
X3229335Y1121522D01*
X3226522Y1124335D01*
X3225000Y1128011D01*
Y1130000D01*
Y1145000D01*
Y1146989D01*
X3226522Y1150664D01*
X3229335Y1153477D01*
X3233011Y1155000D01*
X3286989D01*
X3290664Y1153477D01*
D02*
G37*
G36*
X2470664Y1138478D02*
X2473477Y1135664D01*
X2475000Y1131989D01*
Y1130000D01*
Y1115000D01*
Y1113011D01*
X2473477Y1109335D01*
X2470664Y1106522D01*
X2466989Y1105000D01*
X2413011D01*
X2409335Y1106522D01*
X2406522Y1109335D01*
X2405000Y1113011D01*
Y1115000D01*
Y1130000D01*
Y1131989D01*
X2406522Y1135664D01*
X2409335Y1138478D01*
X2413011Y1140000D01*
X2466989D01*
X2470664Y1138478D01*
D02*
G37*
G36*
X2190664D02*
X2193477Y1135664D01*
X2195000Y1131989D01*
Y1130000D01*
Y1115000D01*
Y1113011D01*
X2193477Y1109335D01*
X2190664Y1106522D01*
X2186989Y1105000D01*
X2133011D01*
X2129335Y1106522D01*
X2126522Y1109335D01*
X2125000Y1113011D01*
Y1115000D01*
Y1130000D01*
Y1131989D01*
X2126522Y1135664D01*
X2129335Y1138478D01*
X2133011Y1140000D01*
X2186989D01*
X2190664Y1138478D01*
D02*
G37*
G36*
X1330664Y1113478D02*
X1333477Y1110665D01*
X1335000Y1106989D01*
Y1105000D01*
Y1090000D01*
Y1088011D01*
X1333477Y1084335D01*
X1330664Y1081522D01*
X1326989Y1080000D01*
X1273011D01*
X1269335Y1081522D01*
X1266522Y1084335D01*
X1265000Y1088011D01*
Y1090000D01*
Y1105000D01*
Y1106989D01*
X1266522Y1110665D01*
X1269335Y1113478D01*
X1273011Y1115000D01*
X1326989D01*
X1330664Y1113478D01*
D02*
G37*
G36*
X1050664D02*
X1053477Y1110665D01*
X1055000Y1106989D01*
Y1105000D01*
Y1090000D01*
Y1088011D01*
X1053477Y1084335D01*
X1050664Y1081522D01*
X1046989Y1080000D01*
X993011D01*
X989335Y1081522D01*
X986522Y1084335D01*
X985000Y1088011D01*
Y1090000D01*
Y1105000D01*
Y1106989D01*
X986522Y1110665D01*
X989335Y1113478D01*
X993011Y1115000D01*
X1046989D01*
X1050664Y1113478D01*
D02*
G37*
G36*
X3570664Y1103478D02*
X3573477Y1100665D01*
X3575000Y1096989D01*
Y1095000D01*
Y1080000D01*
Y1078011D01*
X3573477Y1074335D01*
X3570664Y1071522D01*
X3566989Y1070000D01*
X3513011D01*
X3509335Y1071522D01*
X3506522Y1074335D01*
X3505000Y1078011D01*
Y1080000D01*
Y1095000D01*
Y1096989D01*
X3506522Y1100665D01*
X3509335Y1103478D01*
X3513011Y1105000D01*
X3566989D01*
X3570664Y1103478D01*
D02*
G37*
G36*
X3290664D02*
X3293478Y1100665D01*
X3295000Y1096989D01*
Y1095000D01*
Y1080000D01*
Y1078011D01*
X3293478Y1074335D01*
X3290664Y1071522D01*
X3286989Y1070000D01*
X3233011D01*
X3229335Y1071522D01*
X3226522Y1074335D01*
X3225000Y1078011D01*
Y1080000D01*
Y1095000D01*
Y1096989D01*
X3226522Y1100665D01*
X3229335Y1103478D01*
X3233011Y1105000D01*
X3286989D01*
X3290664Y1103478D01*
D02*
G37*
G36*
X2470664Y1088478D02*
X2473477Y1085665D01*
X2475000Y1081989D01*
Y1080000D01*
Y1065000D01*
Y1063011D01*
X2473477Y1059335D01*
X2470664Y1056522D01*
X2466989Y1055000D01*
X2413011D01*
X2409335Y1056522D01*
X2406522Y1059335D01*
X2405000Y1063011D01*
Y1065000D01*
Y1080000D01*
Y1081989D01*
X2406522Y1085665D01*
X2409335Y1088478D01*
X2413011Y1090000D01*
X2466989D01*
X2470664Y1088478D01*
D02*
G37*
G36*
X2190664D02*
X2193477Y1085665D01*
X2195000Y1081989D01*
Y1080000D01*
Y1065000D01*
Y1063011D01*
X2193477Y1059335D01*
X2190664Y1056522D01*
X2186989Y1055000D01*
X2133011D01*
X2129335Y1056522D01*
X2126522Y1059335D01*
X2125000Y1063011D01*
Y1065000D01*
Y1080000D01*
Y1081989D01*
X2126522Y1085665D01*
X2129335Y1088478D01*
X2133011Y1090000D01*
X2186989D01*
X2190664Y1088478D01*
D02*
G37*
G36*
X1330664Y1063478D02*
X1333477Y1060665D01*
X1335000Y1056989D01*
Y1055000D01*
Y1040000D01*
Y1038011D01*
X1333477Y1034335D01*
X1330664Y1031522D01*
X1326989Y1030000D01*
X1273011D01*
X1269335Y1031522D01*
X1266522Y1034335D01*
X1265000Y1038011D01*
Y1040000D01*
Y1055000D01*
Y1056989D01*
X1266522Y1060665D01*
X1269335Y1063478D01*
X1273011Y1065000D01*
X1326989D01*
X1330664Y1063478D01*
D02*
G37*
G36*
X1050664D02*
X1053477Y1060665D01*
X1055000Y1056989D01*
Y1055000D01*
Y1040000D01*
Y1038011D01*
X1053477Y1034335D01*
X1050664Y1031522D01*
X1046989Y1030000D01*
X993011D01*
X989335Y1031522D01*
X986522Y1034335D01*
X985000Y1038011D01*
Y1040000D01*
Y1055000D01*
Y1056989D01*
X986522Y1060665D01*
X989335Y1063478D01*
X993011Y1065000D01*
X1046989D01*
X1050664Y1063478D01*
D02*
G37*
G36*
X3570664Y1053478D02*
X3573477Y1050665D01*
X3575000Y1046989D01*
Y1045000D01*
Y1030000D01*
Y1028011D01*
X3573477Y1024335D01*
X3570664Y1021522D01*
X3566989Y1020000D01*
X3513011D01*
X3509335Y1021522D01*
X3506522Y1024335D01*
X3505000Y1028011D01*
Y1030000D01*
Y1045000D01*
Y1046989D01*
X3506522Y1050665D01*
X3509335Y1053478D01*
X3513011Y1055000D01*
X3566989D01*
X3570664Y1053478D01*
D02*
G37*
G36*
X3290664D02*
X3293478Y1050665D01*
X3295000Y1046989D01*
Y1045000D01*
Y1030000D01*
Y1028011D01*
X3293478Y1024335D01*
X3290664Y1021522D01*
X3286989Y1020000D01*
X3233011D01*
X3229335Y1021522D01*
X3226522Y1024335D01*
X3225000Y1028011D01*
Y1030000D01*
Y1045000D01*
Y1046989D01*
X3226522Y1050665D01*
X3229335Y1053478D01*
X3233011Y1055000D01*
X3286989D01*
X3290664Y1053478D01*
D02*
G37*
G36*
X2435000Y1027500D02*
X2465000Y1027500D01*
X2465994Y1027499D01*
X2467831Y1026738D01*
X2469238Y1025331D01*
X2469999Y1023494D01*
X2469999Y1022500D01*
X2470000Y1022500D01*
Y1007500D01*
Y1006505D01*
X2469238Y1004668D01*
X2467832Y1003261D01*
X2465994Y1002500D01*
X2465000D01*
X2435000Y1002500D01*
Y995000D01*
X2165000D01*
Y1002500D01*
X2135000Y1002500D01*
X2134005D01*
X2132168Y1003261D01*
X2130761Y1004668D01*
X2130000Y1006506D01*
Y1007500D01*
Y1022500D01*
Y1023494D01*
X2130761Y1025332D01*
X2132168Y1026738D01*
X2134005Y1027500D01*
X2135000D01*
X2135000Y1027500D01*
X2165000Y1027500D01*
Y1035000D01*
X2435000D01*
Y1027500D01*
D02*
G37*
G36*
X1295000Y1002500D02*
X1325000Y1002500D01*
X1325994Y1002499D01*
X1327831Y1001738D01*
X1329238Y1000331D01*
X1329999Y998494D01*
X1329999Y997500D01*
X1330000Y997500D01*
Y982500D01*
Y981505D01*
X1329238Y979668D01*
X1327832Y978261D01*
X1325994Y977500D01*
X1325000D01*
X1295000Y977500D01*
Y970000D01*
X1025000D01*
Y977500D01*
X995000Y977500D01*
X994005D01*
X992168Y978261D01*
X990761Y979668D01*
X990000Y981506D01*
Y982500D01*
Y997500D01*
Y998494D01*
X990761Y1000332D01*
X992168Y1001738D01*
X994005Y1002500D01*
X995000D01*
X995000Y1002500D01*
X1025000Y1002500D01*
Y1010000D01*
X1295000D01*
Y1002500D01*
D02*
G37*
G36*
X3535000Y992500D02*
X3565000Y992500D01*
X3565994Y992499D01*
X3567832Y991738D01*
X3569238Y990331D01*
X3569999Y988494D01*
X3569999Y987500D01*
X3570000Y987500D01*
Y972500D01*
Y971505D01*
X3569238Y969668D01*
X3567832Y968261D01*
X3565994Y967500D01*
X3565000D01*
X3535000Y967500D01*
Y960000D01*
X3265000D01*
Y967500D01*
X3235000Y967500D01*
X3234005D01*
X3232168Y968261D01*
X3230761Y969668D01*
X3230000Y971506D01*
Y972500D01*
Y987500D01*
Y988494D01*
X3230761Y990332D01*
X3232168Y991738D01*
X3234005Y992500D01*
X3235000D01*
X3235000Y992500D01*
X3265000Y992500D01*
Y1000000D01*
X3535000D01*
Y992500D01*
D02*
G37*
G36*
X2435000Y957502D02*
X2465000Y957501D01*
X2465994D01*
X2467832Y956740D01*
X2469239Y955334D01*
X2470000Y953496D01*
Y952501D01*
X2470000Y952502D01*
X2470000Y937502D01*
Y936507D01*
X2469238Y934669D01*
X2467832Y933263D01*
X2465994Y932502D01*
X2465000D01*
X2435000Y932502D01*
Y925002D01*
X2317500Y925001D01*
X2316505Y925001D01*
X2314667Y925762D01*
X2313261Y927169D01*
X2312500Y929007D01*
X2312500Y930001D01*
Y930002D01*
Y960001D01*
X2312500Y960996D01*
X2313261Y962834D01*
X2314667Y964240D01*
X2316505Y965001D01*
X2317500D01*
X2317500Y965002D01*
X2435000D01*
Y957502D01*
D02*
G37*
G36*
X2285335Y964237D02*
X2286741Y962831D01*
X2287502Y960993D01*
X2287502Y959998D01*
X2287502D01*
X2287502Y929998D01*
X2287502Y929004D01*
X2286741Y927166D01*
X2285335Y925759D01*
X2283497Y924998D01*
X2165002D01*
Y932499D01*
X2134008D01*
X2132170Y933260D01*
X2130763Y934666D01*
X2130002Y936504D01*
Y937499D01*
Y952498D01*
Y953493D01*
X2130764Y955330D01*
X2132170Y956737D01*
X2134008Y957498D01*
X2135002D01*
X2135002Y957498D01*
X2165002Y957498D01*
Y964998D01*
X2282502D01*
X2283497Y964999D01*
X2285335Y964237D01*
D02*
G37*
G36*
X1295000Y932502D02*
X1325000Y932501D01*
X1325994D01*
X1327832Y931740D01*
X1329239Y930334D01*
X1330000Y928496D01*
Y927501D01*
X1330000Y927502D01*
X1330000Y912502D01*
Y911507D01*
X1329238Y909670D01*
X1327832Y908263D01*
X1325994Y907502D01*
X1325000D01*
X1295000Y907502D01*
Y900002D01*
X1177500Y900002D01*
X1176505Y900001D01*
X1174667Y900762D01*
X1173261Y902169D01*
X1172500Y904007D01*
X1172500Y905001D01*
Y905002D01*
Y935001D01*
X1172500Y935996D01*
X1173261Y937834D01*
X1174667Y939240D01*
X1176505Y940001D01*
X1177500D01*
X1177500Y940002D01*
X1295000D01*
Y932502D01*
D02*
G37*
G36*
X1145335Y939237D02*
X1146741Y937831D01*
X1147502Y935993D01*
X1147502Y934998D01*
X1147502D01*
X1147502Y904998D01*
X1147502Y904004D01*
X1146741Y902166D01*
X1145335Y900759D01*
X1143497Y899998D01*
X1025002D01*
Y907499D01*
X994008D01*
X992170Y908260D01*
X990763Y909666D01*
X990002Y911504D01*
Y912499D01*
Y927498D01*
Y928493D01*
X990764Y930330D01*
X992170Y931737D01*
X994008Y932498D01*
X995002D01*
X995002Y932498D01*
X1025002Y932499D01*
Y939998D01*
X1142502D01*
X1143497Y939999D01*
X1145335Y939237D01*
D02*
G37*
G36*
X3535000Y922502D02*
X3565000Y922501D01*
X3565994D01*
X3567832Y921740D01*
X3569239Y920334D01*
X3570000Y918496D01*
Y917501D01*
X3570000Y917502D01*
X3570000Y902502D01*
Y901507D01*
X3569238Y899670D01*
X3567832Y898263D01*
X3565994Y897502D01*
X3565000D01*
X3535000Y897502D01*
Y890002D01*
X3417500Y890002D01*
X3416505Y890001D01*
X3414668Y890763D01*
X3413261Y892169D01*
X3412500Y894007D01*
X3412500Y895002D01*
Y895002D01*
Y925001D01*
X3412500Y925996D01*
X3413261Y927834D01*
X3414668Y929240D01*
X3416505Y930001D01*
X3417500D01*
X3417500Y930002D01*
X3535000D01*
Y922502D01*
D02*
G37*
G36*
X3385335Y929237D02*
X3386741Y927831D01*
X3387502Y925993D01*
X3387502Y924998D01*
X3387502D01*
X3387502Y894998D01*
X3387502Y894004D01*
X3386741Y892166D01*
X3385335Y890759D01*
X3383497Y889998D01*
X3265002D01*
Y897499D01*
X3234008D01*
X3232170Y898260D01*
X3230763Y899666D01*
X3230002Y901504D01*
Y902499D01*
Y917498D01*
Y918493D01*
X3230764Y920330D01*
X3232170Y921737D01*
X3234008Y922498D01*
X3235002D01*
X3235002Y922498D01*
X3265002Y922499D01*
Y929998D01*
X3382502D01*
X3383497Y929999D01*
X3385335Y929237D01*
D02*
G37*
G36*
X2435000Y887500D02*
X2465000Y887500D01*
X2465995Y887500D01*
X2467832Y886739D01*
X2469239Y885332D01*
X2470000Y883495D01*
X2470000Y882500D01*
X2470000Y867500D01*
Y866506D01*
X2469239Y864668D01*
X2467832Y863261D01*
X2465994Y862500D01*
X2465000D01*
Y862500D01*
X2435000D01*
Y855000D01*
X2387500D01*
X2387500Y770000D01*
Y769006D01*
X2386739Y767168D01*
X2385332Y765761D01*
X2383494Y765000D01*
X2382500D01*
Y765000D01*
X2367500D01*
X2366505Y765000D01*
X2364667Y765761D01*
X2363261Y767168D01*
X2362499Y769005D01*
X2362500Y770000D01*
X2362500Y855000D01*
X2337500D01*
X2337500Y770000D01*
Y769006D01*
X2336739Y767168D01*
X2335332Y765761D01*
X2333494Y765000D01*
X2332500D01*
X2332500Y765000D01*
X2317500D01*
X2316505Y765000D01*
X2314667Y765761D01*
X2313261Y767168D01*
X2312500Y769005D01*
X2312500Y770000D01*
X2312500Y855000D01*
X2287500D01*
Y770000D01*
X2287500Y769005D01*
X2286739Y767168D01*
X2285332Y765761D01*
X2283495Y765000D01*
X2266505D01*
X2264668Y765761D01*
X2263261Y767168D01*
X2262500Y769005D01*
Y770000D01*
Y770000D01*
X2262500Y855000D01*
X2237500D01*
X2237500Y770000D01*
X2237500Y769005D01*
X2236739Y767168D01*
X2235332Y765761D01*
X2233494Y765000D01*
X2232500Y765000D01*
Y765000D01*
X2217500Y765000D01*
X2216505D01*
X2214668Y765761D01*
X2213261Y767168D01*
X2212500Y769006D01*
Y770000D01*
Y855000D01*
X2165000D01*
Y862500D01*
X2135000Y862500D01*
X2134005D01*
X2132168Y863261D01*
X2130761Y864668D01*
X2130000Y866506D01*
Y867500D01*
Y882500D01*
Y883494D01*
X2130761Y885332D01*
X2132168Y886738D01*
X2134005Y887500D01*
X2135000D01*
X2135000Y887500D01*
X2165000D01*
Y895000D01*
X2435000D01*
Y887500D01*
D02*
G37*
G36*
X1295000Y862500D02*
X1325000Y862500D01*
X1325995Y862500D01*
X1327832Y861739D01*
X1329239Y860332D01*
X1330000Y858495D01*
X1330000Y857500D01*
X1330000Y842500D01*
Y841506D01*
X1329239Y839668D01*
X1327832Y838261D01*
X1325994Y837500D01*
X1325000D01*
Y837500D01*
X1295000D01*
Y830000D01*
X1247500D01*
X1247500Y745000D01*
Y744006D01*
X1246739Y742168D01*
X1245332Y740761D01*
X1243494Y740000D01*
X1242500D01*
Y740000D01*
X1227500D01*
X1226505Y740000D01*
X1224667Y740761D01*
X1223261Y742168D01*
X1222499Y744005D01*
X1222500Y745000D01*
X1222500Y830000D01*
X1197500D01*
X1197500Y745000D01*
Y744006D01*
X1196739Y742168D01*
X1195332Y740761D01*
X1193494Y740000D01*
X1192500D01*
X1192500Y740000D01*
X1177500D01*
X1176505Y740000D01*
X1174667Y740761D01*
X1173261Y742168D01*
X1172500Y744005D01*
X1172500Y745000D01*
X1172500Y830000D01*
X1147500D01*
Y745000D01*
X1147500Y744005D01*
X1146739Y742168D01*
X1145332Y740761D01*
X1143495Y740000D01*
X1126505D01*
X1124668Y740761D01*
X1123261Y742168D01*
X1122500Y744005D01*
Y745000D01*
Y745000D01*
X1122500Y830000D01*
X1097500D01*
X1097500Y745000D01*
X1097500Y744005D01*
X1096739Y742168D01*
X1095332Y740761D01*
X1093494Y740000D01*
X1092500Y740000D01*
Y740000D01*
X1077500Y740000D01*
X1076505D01*
X1074668Y740761D01*
X1073261Y742168D01*
X1072500Y744006D01*
Y745000D01*
Y830000D01*
X1025000D01*
Y837500D01*
X995000Y837500D01*
X994005D01*
X992168Y838261D01*
X990761Y839668D01*
X990000Y841506D01*
Y842500D01*
Y857500D01*
Y858494D01*
X990761Y860332D01*
X992168Y861738D01*
X994005Y862500D01*
X995000D01*
X995000Y862500D01*
X1025000D01*
Y870000D01*
X1295000D01*
Y862500D01*
D02*
G37*
G36*
X3535000Y852500D02*
X3565000Y852500D01*
X3565995Y852500D01*
X3567832Y851739D01*
X3569239Y850332D01*
X3570000Y848495D01*
X3570000Y847500D01*
X3570000Y832500D01*
Y831506D01*
X3569239Y829668D01*
X3567832Y828261D01*
X3565994Y827500D01*
X3565000D01*
Y827500D01*
X3535000D01*
Y820000D01*
X3487500D01*
X3487500Y735000D01*
Y734006D01*
X3486739Y732168D01*
X3485332Y730761D01*
X3483494Y730000D01*
X3482500D01*
Y730000D01*
X3467500D01*
X3466505Y730000D01*
X3464667Y730761D01*
X3463261Y732168D01*
X3462500Y734005D01*
X3462500Y735000D01*
X3462500Y820000D01*
X3437500D01*
X3437500Y735000D01*
Y734006D01*
X3436739Y732168D01*
X3435332Y730761D01*
X3433494Y730000D01*
X3432500D01*
X3432500Y730000D01*
X3417500D01*
X3416505Y730000D01*
X3414668Y730761D01*
X3413261Y732168D01*
X3412500Y734005D01*
X3412500Y735000D01*
X3412500Y820000D01*
X3387500D01*
Y735000D01*
X3387500Y734005D01*
X3386739Y732168D01*
X3385332Y730761D01*
X3383495Y730000D01*
X3366506D01*
X3364668Y730761D01*
X3363261Y732168D01*
X3362500Y734005D01*
Y735000D01*
Y735000D01*
X3362500Y820000D01*
X3337500D01*
X3337500Y735000D01*
X3337500Y734005D01*
X3336739Y732168D01*
X3335332Y730761D01*
X3333494Y730000D01*
X3332500Y730000D01*
Y730000D01*
X3317500Y730000D01*
X3316505D01*
X3314668Y730761D01*
X3313261Y732168D01*
X3312500Y734006D01*
Y735000D01*
Y820000D01*
X3265000D01*
Y827500D01*
X3235000Y827500D01*
X3234005D01*
X3232168Y828261D01*
X3230761Y829668D01*
X3230000Y831506D01*
Y832500D01*
Y847500D01*
Y848494D01*
X3230761Y850332D01*
X3232168Y851738D01*
X3234005Y852500D01*
X3235000D01*
X3235000Y852500D01*
X3265000D01*
Y860000D01*
X3535000D01*
Y852500D01*
D02*
G37*
D12*
X1340000Y3855000D02*
D03*
Y3705000D02*
D03*
X310000Y4065000D02*
D03*
Y3915000D02*
D03*
D13*
X3275000Y3290000D02*
D03*
X3425000D02*
D03*
D57*
X3170000Y3397500D02*
D03*
Y3542500D02*
D03*
X550000Y3947500D02*
D03*
Y4092500D02*
D03*
X2450000Y1747500D02*
D03*
Y1892500D02*
D03*
X1180000Y4112500D02*
D03*
Y3967500D02*
D03*
X3180000Y2977500D02*
D03*
Y3122500D02*
D03*
X1930000Y3872500D02*
D03*
Y3727500D02*
D03*
X1790000Y3872500D02*
D03*
Y3727500D02*
D03*
D60*
X4400000Y4700000D02*
D03*
X300000Y600000D02*
D03*
X4400000D02*
D03*
X300000Y4700000D02*
D03*
D61*
X149640Y2973867D02*
D03*
Y3633867D02*
D03*
D62*
X3817000Y4674000D02*
D03*
X2634000Y4690000D02*
D03*
X1507000Y4674000D02*
D03*
D63*
X3690000Y4420000D02*
D03*
X3563000Y4674000D02*
D03*
X3436000Y4420000D02*
D03*
X560000Y1730000D02*
D03*
X306000Y1603000D02*
D03*
X560000Y1476000D02*
D03*
X2507000Y4436000D02*
D03*
X2380000Y4690000D02*
D03*
X2253000Y4436000D02*
D03*
X1380000Y4420000D02*
D03*
X1253000Y4674000D02*
D03*
X1126000Y4420000D02*
D03*
D64*
X3957000Y4494000D02*
D03*
X486000Y1997000D02*
D03*
X2774000Y4510000D02*
D03*
X1647000Y4494000D02*
D03*
D65*
X306000Y1857000D02*
D03*
D67*
X2290000Y2975000D02*
D03*
X2370000D02*
D03*
X2450000D02*
D03*
X2530000D02*
D03*
X2610000D02*
D03*
X2690000D02*
D03*
X2770000D02*
D03*
X2850000D02*
D03*
X2290000Y3865000D02*
D03*
X2370000D02*
D03*
X2450000D02*
D03*
X2530000D02*
D03*
X2610000D02*
D03*
X2690000D02*
D03*
X2770000D02*
D03*
X2850000D02*
D03*
D68*
X2125000Y3700000D02*
D03*
Y3620000D02*
D03*
Y3540000D02*
D03*
Y3460000D02*
D03*
Y3380000D02*
D03*
Y3300000D02*
D03*
Y3220000D02*
D03*
Y3140000D02*
D03*
X3015000Y3700000D02*
D03*
Y3620000D02*
D03*
Y3540000D02*
D03*
Y3460000D02*
D03*
Y3380000D02*
D03*
Y3300000D02*
D03*
Y3220000D02*
D03*
Y3140000D02*
D03*
D69*
X3550000Y3295000D02*
D03*
Y3425000D02*
D03*
X1180000Y3845000D02*
D03*
Y3715000D02*
D03*
X3150000Y1385000D02*
D03*
Y1255000D02*
D03*
X3010000Y1385000D02*
D03*
Y1255000D02*
D03*
X2030000Y1425000D02*
D03*
Y1295000D02*
D03*
X1870000Y1295000D02*
D03*
Y1425000D02*
D03*
X1150000Y1485000D02*
D03*
Y1355000D02*
D03*
X1000000Y1485000D02*
D03*
Y1355000D02*
D03*
D70*
X2444500Y2082500D02*
D03*
X2317500D02*
D03*
X2190500D02*
D03*
X2063500D02*
D03*
X1936500D02*
D03*
X1809500D02*
D03*
X1682500D02*
D03*
X1555500D02*
D03*
Y2577500D02*
D03*
X1682500D02*
D03*
X1809500D02*
D03*
X1936500D02*
D03*
X2063500D02*
D03*
X2190500D02*
D03*
X2317500D02*
D03*
X2444500D02*
D03*
X3524500Y2082500D02*
D03*
X3397500D02*
D03*
X3270500D02*
D03*
X3143500D02*
D03*
X3016500D02*
D03*
X2889500D02*
D03*
X2762500D02*
D03*
X2635500D02*
D03*
Y2577500D02*
D03*
X2762500D02*
D03*
X2889500D02*
D03*
X3016500D02*
D03*
X3143500D02*
D03*
X3270500D02*
D03*
X3397500D02*
D03*
X3524500D02*
D03*
D71*
X3522500Y1910000D02*
D03*
X3377500D02*
D03*
X2277500Y2780000D02*
D03*
X2422500D02*
D03*
X3822500Y1360000D02*
D03*
X3677500D02*
D03*
X3822500Y1910000D02*
D03*
X3677500D02*
D03*
X3387500Y2760000D02*
D03*
X3532500D02*
D03*
X2227500Y4060000D02*
D03*
X2372500D02*
D03*
D72*
X4540000Y1080000D02*
D03*
X810000Y650000D02*
D03*
X1950000Y640000D02*
D03*
X1510000Y650000D02*
D03*
X3040000Y640000D02*
D03*
X3760000D02*
D03*
X2650000D02*
D03*
D73*
X994501Y3951250D02*
D03*
X994500Y3761250D02*
D03*
X765500D02*
D03*
Y3856250D02*
D03*
Y3951250D02*
D03*
D74*
X3678751Y1754501D02*
D03*
X3868750Y1754500D02*
D03*
Y1525500D02*
D03*
X3773750D02*
D03*
X3678750D02*
D03*
D75*
X149640Y3183867D02*
D03*
Y3423867D02*
D03*
D76*
X394640Y2983867D02*
D03*
Y3623867D02*
D03*
D77*
X417140Y3173867D02*
D03*
Y3238867D02*
D03*
Y3303867D02*
D03*
Y3368867D02*
D03*
Y3433867D02*
D03*
D78*
X385000Y4270000D02*
D03*
X255000D02*
D03*
D79*
X4320000Y3099000D02*
D03*
Y3226000D02*
D03*
Y3353000D02*
D03*
Y3480000D02*
D03*
Y3607000D02*
D03*
X3913000D02*
D03*
Y3480000D02*
D03*
Y3353000D02*
D03*
Y3226000D02*
D03*
Y3099000D02*
D03*
D80*
X790000Y3455000D02*
D03*
X980000D02*
D03*
Y3210000D02*
D03*
X885000D02*
D03*
X790000D02*
D03*
D81*
X4540000Y1570000D02*
D03*
%TF.MD5,2d13d7d478573ec37c6733e75337bd8c*%
M02*
