%TF.GenerationSoftware,Altium Limited,Altium Designer,22.10.1 (41)*%
G04 Layer_Color=128*
%FSLAX45Y45*%
%MOMM*%
%TF.SameCoordinates,087233EE-98F5-4CDC-9370-A7D44EC71BE6*%
%TF.FilePolarity,Positive*%
%TF.FileFunction,Paste,Bot*%
%TF.Part,Single*%
G01*
G75*
%TA.AperFunction,SMDPad,CuDef*%
%ADD14R,1.05000X0.95000*%
%ADD52R,1.50822X1.40574*%
%ADD53R,1.62000X0.60000*%
G36*
X4284000Y1497000D02*
Y1343000D01*
X4427000D01*
Y1497000D01*
X4284000D01*
D02*
G37*
G36*
X4513000D02*
Y1343000D01*
X4656000D01*
Y1497000D01*
X4513000D01*
D02*
G37*
G36*
X4284000Y1737000D02*
Y1583000D01*
X4427000D01*
Y1737000D01*
X4284000D01*
D02*
G37*
G36*
X4513000D02*
Y1583000D01*
X4656000D01*
Y1737000D01*
X4513000D01*
D02*
G37*
D14*
X2350000Y1002500D02*
D03*
Y857500D02*
D03*
X3340000Y827500D02*
D03*
Y972500D02*
D03*
X1050000Y857500D02*
D03*
Y1002500D02*
D03*
D52*
X3820000Y992624D02*
D03*
Y807376D02*
D03*
X3550000Y992624D02*
D03*
Y807376D02*
D03*
X3120000Y982624D02*
D03*
Y797376D02*
D03*
X4090000Y992624D02*
D03*
Y807376D02*
D03*
X2790000Y1012624D02*
D03*
Y827376D02*
D03*
X2550000Y1012624D02*
D03*
Y827376D02*
D03*
X2130000Y1032624D02*
D03*
Y847375D02*
D03*
X1860000Y1032624D02*
D03*
Y847375D02*
D03*
X1290000Y1002624D02*
D03*
Y817376D02*
D03*
X850000Y1012624D02*
D03*
Y827376D02*
D03*
X1510000Y1002624D02*
D03*
Y817376D02*
D03*
X580000Y1012624D02*
D03*
Y827376D02*
D03*
D53*
X4099000Y1603500D02*
D03*
Y1476500D02*
D03*
Y1349500D02*
D03*
Y1730500D02*
D03*
%TF.MD5,c87657804a047fef63fbad44642e7bd1*%
M02*
